<?xml version="1.0" standalone="no"?>
<!DOCTYPE svg PUBLIC "-//W3C//DTD SVG 1.1//EN" "http://www.w3.org/Graphics/SVG/1.1/DTD/svg11.dtd" >
<svg xmlns="http://www.w3.org/2000/svg" xmlns:xlink="http://www.w3.org/1999/xlink" version="1.1">
<metadata>
Created by FontForge 20170731 at Thu May 31 05:38:54 2012
 By Aleksey,,,
Copyright (c) 2012 by Brian J. Bonislawsky DBA Astigmatic (AOETI) (astigma@astigmatic.com), with ReservedFont Name "Quintessential"
</metadata>
<defs>
<font id="Quintessential-Regular" horiz-adv-x="844" >
  <font-face 
    font-family="Quintessential"
    font-weight="400"
    font-stretch="normal"
    units-per-em="2048"
    panose-1="3 2 5 0 0 0 0 2 0 0"
    ascent="1638"
    descent="-410"
    x-height="1020"
    cap-height="1481"
    bbox="-567.056 -799 2404 2340"
    underline-thickness="41"
    underline-position="-312"
    unicode-range="U+0020-FB02"
  />
<missing-glyph horiz-adv-x="512" 
 />
    <glyph glyph-name="fi" unicode="fi" horiz-adv-x="1223" 
d="M1266 311l-23 -82q-16 -17 -41 -42.5t-54 -54t-61.5 -56.5t-63.5 -50t-59.5 -34.5t-50.5 -9.5q-34 5 -48.5 49.5t-14.5 144.5q0 18 1.5 58.5t4 94.5t6 118.5t7.5 130t8.5 129t9.5 116.5q3 34 -18.5 50t-61.5 18q-11 0 -48 -0.5t-87 -1.5t-106 -2t-104.5 -1.5t-83.5 -1
t-42 0.5q-10 -118 -17 -243t-13.5 -248t-13.5 -238.5t-16.5 -213t-22 -172.5t-30.5 -118q-29 -71 -78 -134t-105.5 -115.5t-115.5 -93t-108 -65.5q-44 -23 -91 -33t-94 -10q-57 0 -105.5 12.5t-76.5 30.5q-17 10 -16 26.5t13 36t32 40t42 39.5t43 34t34 23q-6 -24 -1.5 -42
t24 -31.5t56 -23.5t93.5 -18q112 -17 194 52t119 225q16 65 27 153.5t20 191.5t15.5 217t12.5 232t13 235.5t16 227.5q0 8 1 14.5t1 14.5q-31 -2 -61.5 -8.5t-60.5 -22.5q20 16 38 34t32 33q16 18 30 34q5 6 11 15q5 8 11.5 18t14.5 24q18 156 43 265t60 186t82 129t110 94
q37 24 78.5 41.5t83.5 28t83.5 15.5t79.5 5q40 0 80 -4.5t73.5 -18t59 -38t37.5 -64.5q2 -34 -15 -67q-14 -29 -50 -63t-107 -65q13 19 18 37t5 37q0 45 -25 75t-62 48t-79 25.5t-76 7.5q-37 0 -77.5 -8.5t-82.5 -28.5q-17 -8 -33 -23t-31 -43t-29 -72t-27 -109.5
t-26 -156.5t-26 -213l-4 -32q37 -4 96.5 -4.5t128.5 -0.5q59 0 119.5 0.5t112 1t90.5 1.5t55 2q40 7 67.5 -20t26.5 -79q-1 -22 -4.5 -70.5t-8 -110.5t-10 -131t-10 -133t-8 -116t-4.5 -80q-2 -57 13 -92t47 -35q24 0 55.5 21t62 49t55.5 57t36 45z" />
    <glyph glyph-name="fl" unicode="fl" horiz-adv-x="1257" 
d="M1282 262q-20 -26 -44.5 -57.5t-52.5 -64.5t-59 -63.5t-64 -54t-68 -36.5t-70 -11q-30 3 -49.5 27.5t-30.5 63t-14 88.5t-1 104q2 27 6 95.5t9 162.5t11.5 206t13 227t12 225.5t10.5 200.5t7.5 152.5t2.5 82.5q0 72 -30.5 101.5t-96.5 29.5q-23 0 -59.5 -8.5t-74 -21.5
t-70.5 -28t-48 -28q-14 -13 -29 -29.5t-29.5 -44.5t-29.5 -70.5t-29.5 -107t-28 -154t-26.5 -211.5l-4 -32q56 -5 101.5 -6.5t78.5 -2.5q39 -1 70 0q39 1 76 6q32 5 66.5 13.5t58.5 25.5q-48 -34 -92 -63.5t-88.5 -51t-91.5 -34t-101 -12.5q-23 0 -44.5 1t-43.5 3
q-10 -118 -17 -243t-13.5 -248t-13.5 -238.5t-16.5 -213t-22 -172.5t-30.5 -118q-29 -71 -78 -134t-105.5 -115.5t-115.5 -93t-108 -65.5q-44 -23 -91 -33t-94 -10q-57 0 -105.5 12.5t-76.5 30.5q-17 10 -16 26.5t13 36t32 40t42 39.5t43 34t34 23q-6 -24 -1.5 -42t24 -31.5
t56 -23.5t93.5 -18q112 -17 194 52t119 225q16 65 27 153.5t20 191.5t15.5 217t12.5 232t13 235.5t16 227.5q0 8 1 14.5t1 14.5q-31 -2 -61.5 -8.5t-60.5 -22.5q20 16 38 34t32 33q16 18 30 34q5 6 11 15q5 8 11.5 18t14.5 24q18 156 43.5 264.5t61 185t82 128.5t108.5 96
q50 34 109.5 65t118.5 53.5t112 36t90 13.5q31 0 57 -3t44 -12.5t27 -28.5t5 -51q-1 -19 -4 -81.5t-7.5 -154t-9.5 -204t-10.5 -232t-10.5 -238t-9 -220.5t-7 -181t-4 -120q-1 -56 6 -96t19.5 -65t29 -36.5t36.5 -11.5q23 0 45.5 14t44 36t40.5 50t34.5 56t27 53t18.5 41z
" />
    <glyph glyph-name=".notdef" horiz-adv-x="512" 
 />
    <glyph glyph-name=".null" horiz-adv-x="0" 
 />
    <glyph glyph-name="nonmarkingreturn" horiz-adv-x="512" 
 />
    <glyph glyph-name="space" unicode=" " horiz-adv-x="512" 
 />
    <glyph glyph-name="exclam" unicode="!" horiz-adv-x="524" 
d="M193 268q1 17 2.5 65.5t3.5 116.5t4.5 150.5t5 168t5 168t4.5 150t4 115.5t3 64q0 23 -11 41q-10 15 -33 25.5t-68 6.5q34 22 72 50.5t73 54t62.5 43.5t39.5 18q26 0 43 -13.5t15 -41.5q0 -10 -5 -49t-12.5 -98.5t-18 -135.5t-22 -159.5t-23.5 -170t-24 -167.5
t-22.5 -152.5t-19 -125t-14.5 -84t-7 -29.5zM381 111q-32 -23 -62.5 -44t-57 -37t-47 -26t-32.5 -10q-10 0 -27 10q-14 8 -37.5 25t-58.5 49l160 110q36 -32 65.5 -47.5t51.5 -22.5q25 -8 45 -7z" />
    <glyph glyph-name="quotedbl" unicode="&#x22;" horiz-adv-x="604" 
d="M291 1395q-1 -15 -5 -40t-10.5 -55.5t-15 -63.5t-17.5 -62.5t-18 -53t-18 -35.5q-14 -21 -30.5 -44.5t-33.5 -45.5q0 11 1 39.5t1 65.5q0 42 -1.5 89.5t-6.5 87.5t-13.5 66t-23.5 25q13 16 32 34t41 33t44.5 25t42.5 10q12 0 18 -8.5t9 -20t3.5 -24.5t0.5 -22zM539 1395
q-1 -15 -5 -40t-10 -55.5t-14 -63.5t-17 -62.5t-18 -53t-18 -35.5q-14 -21 -30.5 -44.5t-33.5 -45.5v78q0 42 -1.5 94t-6 97t-13.5 75t-24 29q13 16 32.5 34t41.5 33t45 25t43 10q11 0 17 -8.5t8.5 -20t3 -24.5t0.5 -22z" />
    <glyph glyph-name="numbersign" unicode="#" horiz-adv-x="1184" 
d="M985 1391q-17 -85 -37 -176t-45 -185h213q-15 -2 -38 -21.5t-47 -42t-46 -41t-37 -18.5h-80q-17 -63 -34 -124t-35 -121h205q-15 -3 -37 -22.5t-46 -42t-46 -40.5t-37 -18h-76q-26 -83 -49.5 -158.5t-44 -138.5t-36.5 -112.5t-26 -80.5v111.5t2 101.5q3 78 8 145t15 132
h-187q-25 -83 -49 -158.5t-44 -138.5t-36 -112.5t-26 -80.5l4 217q3 76 7.5 143t12.5 130h-250q9 10 34.5 30.5t53.5 41t52.5 36t32.5 15.5h96q11 58 23 118.5t28 126.5h-209q9 10 34.5 30.5t53.5 41t52 36t32 15.5h66q11 40 20.5 83t22.5 91q5 22 13 35.5t18.5 23t24 17
t30.5 18.5q24 13 48 28q20 13 41.5 30t37.5 35q-17 -85 -38.5 -176t-45.5 -185h145q11 40 21 83t22 91q5 22 13 35.5t18.5 23t24 17t30.5 18.5q24 13 48 28q20 13 41.5 30t37.5 35zM481 662h168q10 58 23 118.5t28 126.5h-149q-17 -63 -35 -124t-35 -121z" />
    <glyph glyph-name="dollar" unicode="$" horiz-adv-x="825" 
d="M700 1202q-6 -12 -24 -30q-16 -16 -46.5 -41.5t-84.5 -63.5q2 17 -3.5 28t-13.5 17q-9 7 -20 10q-28 5 -50.5 6t-38.5 -5t-25 -22t-9 -44q0 -52 19.5 -94t49 -78.5t63.5 -69.5t63.5 -67.5t49 -73t19.5 -84.5q0 -45 -23.5 -91.5t-61.5 -91t-87.5 -84t-101.5 -69.5
q-18 -114 -33 -214t-26 -174.5t-17 -118.5t-6 -46q-3 3 -11 11.5t-10 8.5q4 48 9.5 108t12.5 125.5t14 134.5t14 136q-41 -18 -79 -28.5t-69 -10.5q-38 0 -66 11t-34 34q-5 19 12.5 45t43 53t53 50.5t42.5 36.5q-3 -48 21 -68.5t78 -23.5q26 -2 56 3t56 17t43 30t17 42
q0 54 -19.5 100t-48.5 87t-63.5 80.5t-63.5 80.5t-48.5 86t-19.5 98q0 31 15.5 63.5t41 63.5t59 59.5t69.5 51.5l33 342q1 20 12.5 38.5t30.5 43.5t43.5 61t50.5 90q-18 -138 -30.5 -232t-21 -154.5t-13.5 -92.5t-7 -45q34 15 64 18q31 4 56 1t40.5 -11t22 -19.5t1.5 -23.5z
" />
    <glyph glyph-name="percent" unicode="%" horiz-adv-x="1112" 
d="M555 1083q0 -70 -18 -123.5t-45.5 -93t-61 -66.5t-64.5 -44t-56 -24t-36 -7q-26 0 -54 12.5t-51.5 42t-38.5 78.5t-15 121q0 59 19 120t53.5 110.5t83.5 80.5t108 31q49 0 82.5 -22.5t54.5 -57.5t30 -77t9 -81zM451 1065q0 38 -10 74t-26.5 63.5t-39 44.5t-47.5 17
q-6 0 -17 -2t-24 -11t-26 -26.5t-23.5 -48.5t-17.5 -78t-7 -113q0 -56 12 -94t29.5 -61.5t36.5 -33.5t33 -10q26 0 46 16t34 41t23 56.5t14.5 62.5t7.5 58t2 45zM993 516q0 -70 -18 -123.5t-45.5 -93t-61 -66.5t-65 -44t-56.5 -24t-36 -7q-26 0 -54 12.5t-51.5 42.5t-39 79
t-15.5 122q0 58 19.5 118.5t54.5 109.5t84 80.5t108 31.5q48 0 81.5 -22.5t54.5 -57t30.5 -77t9.5 -81.5zM887 498q0 39 -9.5 75t-26 63t-39 43.5t-48.5 16.5q-9 0 -28 -6t-38 -33t-33 -82.5t-14 -154.5q0 -56 12 -94.5t29 -62t35.5 -34t32.5 -10.5q27 0 47 16t34 41.5
t23 56.5t14 62t7 58.5t2 44.5zM840 1323q-15 -73 -46 -158t-70 -171.5t-81.5 -168t-79.5 -147.5q-26 -47 -64 -103t-81.5 -112.5t-90 -111.5t-88.5 -100.5t-76 -78t-54 -45.5q62 78 125 164.5t122.5 179t114 188.5t100.5 192.5t81 192t55 185.5q7 7 23.5 15t36 19t39 25.5
t34.5 34.5z" />
    <glyph glyph-name="ampersand" unicode="&#x26;" horiz-adv-x="2093" 
d="M1892 113q-86 -68 -159.5 -106.5t-128.5 -41.5q-52 -4 -109 19.5t-117.5 65.5t-123 99t-124.5 121q-70 -68 -149 -124.5t-160.5 -98t-161.5 -64t-151 -20.5q-49 1 -102 13.5t-103.5 36.5t-95.5 60t-78.5 84.5t-52 109t-15.5 134.5q4 88 40.5 156t90 119.5t116.5 88
t122 62.5q-44 19 -82.5 42.5t-67.5 57t-46 78t-17 105.5q0 78 39 151t117 125q64 45 123 77t110.5 53.5t95.5 33.5t78 15q65 6 138 1.5t135 -26.5q90 -31 32 -74q-12 -9 -34 -25q-19 -14 -50 -36t-79 -55q16 19 18 32.5t-2 21.5q-4 10 -16 15q-16 7 -52.5 17t-82 18t-96 12
t-95.5 0q-45 -3 -82.5 -28.5t-65.5 -63t-43.5 -81.5t-15.5 -85t11.5 -83.5t39.5 -80t75.5 -68t119.5 -48.5t140.5 -58.5t132 -91.5t121.5 -108t110 -109l73 -78q35 88 35 183q0 51 -15 104t-44.5 94t-73.5 64t-102 14l192 150q124 -17 221.5 -23t165.5 -6q58 0 115.5 4
t112 15t104 30.5t90.5 50.5q-73 -61 -143 -103.5t-143 -69.5t-151.5 -39.5t-166.5 -12.5h-16q14 -32 19 -65t5 -62q0 -96 -41 -194.5t-110 -192.5q55 -59 116.5 -119t126.5 -109.5t132 -80.5t133 -31q38 0 67.5 9t50.5 20zM616 758l-104 37q-54 -10 -90 -20t-59 -18
q-27 -10 -44 -20q-20 -14 -40 -36.5t-36.5 -52t-27 -65.5t-10.5 -77q0 -89 40.5 -163.5t105.5 -128t146 -83t162 -29.5q130 0 244.5 54t198.5 145q-71 74 -139 148.5t-130.5 137.5t-117 109t-99.5 62zM2032 1178q-5 -5 -9.5 -8.5t-9.5 -6.5q5 3 9.5 6.5t9.5 8.5z" />
    <glyph glyph-name="quotesingle" unicode="'" horiz-adv-x="352" 
d="M289 1395q-1 -15 -5 -40t-10.5 -55.5t-15 -63.5t-17.5 -62.5t-18 -53t-18 -35.5q-14 -21 -29.5 -44.5t-32.5 -45.5v82q0 42 -1 93t-5.5 95.5t-13 74t-23.5 28.5q13 16 32 34t40.5 33t43.5 25t42 10q12 0 18 -8.5t9 -20t3.5 -24.5t0.5 -22z" />
    <glyph glyph-name="parenleft" unicode="(" horiz-adv-x="801" 
d="M791 -119q-43 -34 -65 -62.5t-38 -49t-33 -32t-51 -11.5t-87.5 17.5t-114 56t-121.5 99.5t-110.5 148t-80.5 202t-31 261q0 209 59.5 387.5t167 324t257 256.5t329.5 183q-140 -59 -243 -138.5t-177 -170t-121 -186t-74.5 -185t-39 -168t-12.5 -135.5q-3 -94 14 -190
t51 -184.5t85 -165.5t117 -134t146 -90t173 -33z" />
    <glyph glyph-name="parenright" unicode=")" horiz-adv-x="809" 
d="M18 1505q43 34 65 62.5t38 49.5t33 32.5t51 11.5t87.5 -17.5t114 -56t121.5 -100t110.5 -148.5t80.5 -201.5t31 -260.5q0 -209 -59.5 -388t-167 -324.5t-257 -256t-329.5 -182.5q140 58 243 138t177 170t121 185.5t74.5 185t38.5 168.5t13 136q2 94 -14.5 189.5
t-50.5 184t-85 165.5t-117 134t-146 90t-173 33z" />
    <glyph glyph-name="asterisk" unicode="*" horiz-adv-x="874" 
d="M686 942q-3 2 -12 -8t-20.5 -25.5t-25 -34t-25.5 -34.5t-21 -26t-13 -9q-40 20 -77 40.5t-74 43.5q-25 -81 -44.5 -134t-27.5 -69l-24 6q14 53 21.5 112.5t10.5 119.5q-59 -35 -118.5 -67.5t-118.5 -53.5l-4 31q52 18 103.5 50t100.5 72q-51 36 -97 75.5t-91 82.5
q34 37 60 67l22 24t19 22t13 16l5 6q26 -26 54.5 -50.5t55.5 -47.5q-1 42 -2.5 76.5t-3.5 60.5q-2 30 -4 53q18 3 40.5 7t45.5 9.5t44 11.5t36 13q-5 -71 -16 -141.5t-25 -136.5q21 23 38.5 43.5t29.5 35.5q14 18 26 31q11 13 38 14t59 1q29 0 59.5 4t56.5 22
q-15 -18 -40 -42t-58.5 -53t-74 -61t-85.5 -65q40 -25 80.5 -47.5t83.5 -44.5z" />
    <glyph glyph-name="plus" unicode="+" horiz-adv-x="1067" 
d="M1010 612q-31 0 -58 -22.5t-53.5 -49t-54.5 -49t-60 -22.5h-745q17 3 35.5 15t37.5 27.5t38 33.5t38 32.5t38 24.5t38 10h746zM586 279q-1 -28 -22.5 -56t-48 -56t-50 -55.5t-29.5 -52.5l25 746q1 21 12.5 40t28 36.5t35.5 34.5t35.5 34t27.5 35t12 39z" />
    <glyph glyph-name="comma" unicode="," horiz-adv-x="483" 
d="M381 29q4 -42 -8.5 -82.5t-38.5 -79t-65.5 -73.5t-90.5 -66l-35 6q35 23 61 54q22 26 37.5 63.5t6.5 85.5q-6 34 -25.5 54t-46 30.5t-57 13t-58.5 0.5l164 147q66 -12 108 -47t48 -106z" />
    <glyph glyph-name="hyphen" unicode="-" horiz-adv-x="1161" 
d="M1065 612q-31 0 -57 -22.5t-51 -49t-52 -49t-59 -22.5h-746q17 3 35 15t36 27.5t36.5 33.5t37.5 32.5t37.5 24.5t36.5 10h746z" />
    <glyph glyph-name="period" unicode="." horiz-adv-x="496" 
d="M401 111q-32 -23 -61.5 -44t-55 -37t-45.5 -26t-32 -10q-10 0 -28 10q-15 8 -39 25t-60 49l156 110q38 -32 68 -47.5t52 -22.5q26 -8 45 -7z" />
    <glyph glyph-name="slash" unicode="/" horiz-adv-x="926" 
d="M829 1573q-69 -311 -178 -617q-47 -131 -106.5 -273.5t-134 -285.5t-163.5 -280.5t-194 -257.5q125 196 212.5 379.5t146 346t93 300t52.5 241.5t24 170t9 86q4 30 29.5 47t60.5 34t75 41t74 69z" />
    <glyph glyph-name="zero" unicode="0" horiz-adv-x="1260" 
d="M1147 887q0 -108 -17 -196.5t-45 -160.5t-64 -129t-73 -102q-45 -54 -100.5 -108.5t-118 -98t-130 -71t-136.5 -27.5q-77 0 -134 30.5t-98 80.5t-67.5 114.5t-42 133.5t-21.5 137t-6 124q0 64 6 128.5t18.5 124t31 112.5t43.5 94q31 52 72.5 100t89 89.5t98 76t99.5 59.5
t94 39t81 15q79 2 141 -21.5t108.5 -65.5t79 -98.5t53 -120t29.5 -130.5t9 -129zM971 809q2 91 -19.5 183.5t-67 167.5t-116.5 122t-168 47q-77 0 -132.5 -37.5t-94.5 -97.5t-63 -136.5t-37.5 -154t-18 -150t-4.5 -124.5q0 -54 8.5 -112.5t26.5 -114.5t45.5 -106.5t65.5 -88
t87 -60t109 -22.5q81 0 139.5 35t100 92t67.5 130t41 149t21.5 148.5t9.5 129.5z" />
    <glyph glyph-name="one" unicode="1" horiz-adv-x="598" 
d="M543 135q-51 -44 -89.5 -70.5t-71.5 -41.5t-64.5 -21t-69.5 -10q-48 -5 -95 -4.5t-94 8.5q35 0 59.5 25t38.5 55q17 35 27 80q9 55 17 156q7 86 12.5 233t7.5 373l-135 -76l137 131l193 117q-15 -24 -22.5 -55t-11.5 -58q-4 -32 -5 -64q0 -29 -0.5 -78.5t-1.5 -110
t-3 -127t-5 -128.5t-7 -114.5t-10 -84.5q-8 -37 -21 -70q-11 -29 -30 -57.5t-47 -42.5q84 -3 139.5 1.5t89.5 12.5q40 9 62 21z" />
    <glyph glyph-name="two" unicode="2" horiz-adv-x="995" 
d="M870 168q-32 -29 -69 -58.5t-78 -53.5t-86 -40.5t-92 -17.5q-48 -1 -98 0.5t-98 3.5t-92.5 3.5t-80.5 0.5q-29 -1 -57 -2q-25 -1 -53 -1.5t-52 -0.5q50 94 96.5 169t81.5 129q41 62 78 112q37 48 84 102.5t96 113.5t95 121.5t82 126.5t58 128t22 126q0 106 -55 158.5
t-154 52.5q-35 0 -67 -6t-52 -18q-11 -6 -20 -22t-15.5 -37t-10 -46.5t-3.5 -50.5q0 -29 5.5 -56t17.5 -45.5t32 -27.5t49 -2q-51 -37 -83.5 -59t-52.5 -34q-23 -14 -36 -19q-15 -6 -34 3t-36 28.5t-28.5 47t-11.5 58.5q0 62 51 136t153 142q34 23 74.5 45.5t84 40t87 28.5
t84.5 11q48 0 85.5 -20t62.5 -52.5t38 -74t13 -84.5q0 -80 -21.5 -149.5t-58.5 -133.5t-85.5 -123.5t-102.5 -120t-110 -123t-107 -131.5t-94.5 -146.5t-72.5 -168.5h41q82 0 142 -1t116 -1t108.5 1t97 4.5t78.5 11.5t54 22z" />
    <glyph glyph-name="three" unicode="3" horiz-adv-x="1032" 
d="M965 1063q-72 -48 -131 -108t-114 -124t-110.5 -126.5t-120.5 -114.5h31q88 0 164 -27t132.5 -76.5t89 -118t32.5 -151.5q0 -84 -31.5 -161.5t-85 -144.5t-123.5 -122t-148 -94t-159 -60.5t-155 -21.5q-78 0 -132 15t-77 26q-16 8 -14.5 22.5t14 33t33.5 38.5t44 38
t45.5 33t38.5 23q-12 -112 168 -118q90 -3 167 22.5t133 75t88 120t32 156.5q0 77 -30.5 146.5t-81.5 122t-118.5 83.5t-142.5 31q-43 0 -78.5 -7t-58.5 -15q25 17 58 50.5t70 76t75.5 90.5t75.5 94.5t69.5 88t57.5 71.5h-33q-83 0 -155 8t-142 8q-54 0 -101.5 -8t-84.5 -33
q44 41 79.5 71t71 50t76.5 29.5t96 9.5q72 0 135 -5t125 -5q44 0 100.5 1.5t125.5 6.5z" />
    <glyph glyph-name="four" unicode="4" horiz-adv-x="1229" 
d="M1241 563q-56 -40 -105 -69.5t-94 -50.5t-87.5 -34.5t-86.5 -21.5q-2 -26 -3 -45.5t-1 -32.5q-3 -28 -14 -60q-9 -27 -26.5 -62.5t-49.5 -73.5q97 -4 163 3.5t108 18.5q48 12 79 29q-48 -42 -86 -71.5t-73 -48.5t-70.5 -28t-79.5 -10q-35 -1 -72 -1q-32 -1 -70 -1t-75 -2
q38 17 60.5 53t33.5 71q13 41 17 89q1 12 2 33q1 18 2.5 47.5t3.5 75.5q-44 -2 -90.5 -2h-100.5q-143 0 -270.5 -3.5t-253.5 -17.5q54 42 104.5 94.5t89.5 98.5q46 54 85 108q42 60 106 157q55 83 139.5 214t204.5 321l217 144q-3 -16 -6 -42t-6 -57t-6 -65.5t-5 -67.5
q-5 -78 -10 -168q-6 -76 -11.5 -154.5t-10.5 -155t-9 -147t-7 -130.5q112 1 200.5 14t163.5 51zM762 1196l-14 -21t-11 -16q-5 -8 -10 -14q-26 -41 -61.5 -93.5t-78 -111t-89.5 -119.5t-96.5 -120t-100 -112t-98.5 -95q34 1 80.5 2t100 1.5t112 0.5h116.5h111z" />
    <glyph glyph-name="five" unicode="5" horiz-adv-x="1006" 
d="M930 152q-6 -71 -43 -140.5t-93.5 -132t-128 -114.5t-148 -88.5t-151.5 -55t-139 -12.5q-46 4 -87.5 17.5t-66.5 33t-28 43t29 47.5q24 19 50 37q23 15 50 31.5t55 27.5q-13 -15 -14.5 -27t1.5 -21q4 -11 13 -19q9 -7 29.5 -15t49 -14.5t62.5 -11t70 -4.5q76 0 134.5 27
t98 73t59.5 108t20 132q0 83 -30 147.5t-81.5 108.5t-119.5 67t-144 23q-72 0 -138.5 -21t-121.5 -49q37 48 56.5 105.5t28.5 117.5t10 120.5t1 115.5q0 26 -1 54t-3 57h-80l190 120q109 -6 192 -8t148 -2q75 0 125.5 2t80.5 5q35 3 55 7q-36 -24 -86.5 -45.5t-108 -37
t-117.5 -25t-116 -10.5q-13 0 -29 -1q-29 -2 -78 -3v-25q0 -216 -61 -399q44 18 88.5 25.5t82.5 9.5q43 2 85 -1q72 -8 138 -39t115.5 -81t76.5 -116.5t20 -143.5z" />
    <glyph glyph-name="six" unicode="6" horiz-adv-x="1151" 
d="M1081 1434q15 -16 -1 -37.5t-46 -44t-63.5 -43t-52.5 -35.5q13 25 5.5 39.5t-24.5 21.5t-38 9t-36 2q-95 0 -173 -29.5t-139.5 -81t-108 -121.5t-78.5 -149.5t-49.5 -166t-22.5 -171.5q45 48 100 85.5t114.5 63.5t121.5 39.5t123 13.5q64 0 116.5 -23t89 -62.5t56.5 -92
t20 -112.5q0 -68 -28 -138t-75.5 -134t-110 -119t-131 -92.5t-140 -54t-135.5 -3.5q-47 9 -95.5 34t-89.5 73t-69.5 124t-34.5 187q-7 117 20.5 239.5t84 238t139 218.5t185 179.5t221.5 121.5t249 45q38 0 61.5 -6.5t34.5 -17.5zM618 127q60 7 99.5 34.5t63 66.5t33 86
t9.5 94q0 70 -18.5 128.5t-55.5 101t-92 66t-127 23.5q-55 0 -99.5 -18.5t-78 -50t-57.5 -73.5t-39 -89q9 -92 40 -164.5t79 -121t110 -70.5t133 -13z" />
    <glyph glyph-name="seven" unicode="7" horiz-adv-x="915" 
d="M905 1073q-29 -32 -55.5 -82t-54.5 -122t-59.5 -167.5t-71.5 -218.5q-27 -82 -61.5 -176t-76 -189t-90.5 -186.5t-105 -169.5t-118.5 -138t-130.5 -91q72 63 124 139t94 167t79.5 198t79.5 231q53 154 89 266.5t61 192.5t41.5 131.5t31.5 83.5q-25 -3 -51.5 -4.5
t-52.5 -1.5q-52 0 -101.5 5t-98.5 10.5t-96.5 10.5t-95.5 5q-62 0 -111.5 -10.5t-97.5 -36.5q42 38 76 69.5t68.5 54t74.5 34.5t95 12q61 0 120.5 -6t117.5 -12.5t115.5 -12.5t115.5 -6q40 0 77 4.5t68 15.5z" />
    <glyph glyph-name="eight" unicode="8" horiz-adv-x="1155" 
d="M1034 426q-18 -97 -74.5 -179.5t-136 -143t-174 -94.5t-186.5 -34q-68 0 -136 20.5t-123 59t-91.5 92.5t-40.5 121q-5 77 15.5 141.5t63 123t105 113.5t141.5 112q-35 24 -64 51t-50 58t-33 67t-12 78q0 54 24.5 108t65 103.5t93 92.5t108.5 74.5t112.5 49.5t103.5 18
q58 0 108.5 -23t87.5 -61.5t58 -89t21 -104.5q0 -55 -27.5 -110t-71 -106.5t-96.5 -97.5t-104 -82q64 -39 124.5 -77.5t105.5 -81t68.5 -91.5t14.5 -108zM240 444q0 -77 30.5 -138.5t81 -105.5t116 -67.5t136.5 -23.5q45 0 94.5 8.5t91 29t68.5 55t27 85.5q0 58 -20.5 105
t-55.5 86.5t-81.5 72.5t-97.5 64t-103.5 60.5t-100.5 61.5q-40 -27 -74 -58.5t-59 -68t-39 -78t-14 -88.5zM848 1094q0 54 -21 99.5t-56.5 77.5t-81.5 50t-97 18q-50 0 -84.5 -13.5t-56.5 -39t-31.5 -62.5t-9.5 -83q0 -56 23 -103t61.5 -87.5t89 -76t104.5 -69.5
q69 54 114.5 126t45.5 163z" />
    <glyph glyph-name="nine" unicode="9" horiz-adv-x="1071" 
d="M979 623q0 -115 -22.5 -230.5t-66.5 -222.5t-108.5 -199.5t-148 -161t-185.5 -108t-221 -39.5q-40 0 -72 6.5t-55.5 16t-37.5 21.5t-17 24q-7 24 8.5 50t43.5 51.5t63 48t67 38.5q-8 -29 -5 -51.5t20.5 -37.5t51 -22.5t87.5 -5.5q87 1 152 22.5t111.5 60.5t76.5 94
t47.5 124t24.5 151t8 175q-42 -50 -91 -93t-103 -74.5t-113 -49.5t-123 -18q-72 0 -121 29.5t-79.5 76.5t-44 107t-13.5 120q0 69 25 135.5t67 125.5t96 108.5t112.5 86t116.5 56.5t107 21q98 -2 164 -39.5t105.5 -98t56 -138t16.5 -160.5zM483 954q-44 -6 -80 -32.5
t-62.5 -69.5t-41 -99t-14.5 -120q0 -63 14.5 -122t45.5 -104t79.5 -72.5t116.5 -27.5q54 0 95 21t72 55t52.5 78t36.5 90q-5 47 -16.5 97t-29.5 97.5t-43.5 88.5t-58.5 70t-74.5 43t-91.5 7z" />
    <glyph glyph-name="colon" unicode=":" horiz-adv-x="567" 
d="M428 111q-32 -23 -62.5 -44t-57 -37t-47 -26t-32.5 -10q-10 0 -27 10q-14 8 -37.5 25t-58.5 49l160 110q36 -32 65.5 -47.5t51.5 -22.5q25 -8 45 -7zM457 889q-32 -23 -62.5 -44t-57 -37t-47 -26t-32.5 -10q-10 0 -27 10q-15 8 -39 25t-59 49l160 111q37 -32 67 -48
t52 -23q26 -8 45 -7z" />
    <glyph glyph-name="semicolon" unicode=";" horiz-adv-x="557" 
d="M416 29q4 -42 -8.5 -82.5t-38.5 -79t-65.5 -73.5t-90.5 -66l-35 6q35 23 61 54q22 26 37.5 63.5t6.5 85.5q-6 34 -25.5 54t-46 30.5t-57 13t-58.5 0.5l164 147q66 -12 108 -47t48 -106zM446 889q-32 -23 -62.5 -44t-56.5 -37t-46.5 -26t-32.5 -10q-10 0 -27 10
q-15 8 -39 25t-59 49l160 111q37 -32 66.5 -48t51.5 -23q25 -8 45 -7z" />
    <glyph glyph-name="less" unicode="&#x3c;" horiz-adv-x="883" 
d="M768 229l-135 -143q-51 63 -103 115.5t-101.5 95.5t-96 77.5t-86.5 60.5q-95 61 -183 97q14 26 27 55q11 25 23 56.5t20 63.5q92 20 169.5 56t141 79.5t113 91t85.5 91t58 80t31 58.5l31 -51q-39 -45 -90.5 -108t-116.5 -129t-143.5 -129t-171.5 -109q52 -20 105 -52
t104 -70t98.5 -79t88.5 -80t74.5 -72t57.5 -55z" />
    <glyph glyph-name="equal" unicode="=" horiz-adv-x="1266" 
d="M1126 797q-31 0 -57 -22.5t-51 -49.5t-52 -49.5t-59 -22.5h-745q25 5 52 28t55 49t56 46.5t56 20.5h745zM1104 469q-31 0 -57 -22.5t-51 -49t-52 -49t-59 -22.5h-746q17 3 35 15t36 27.5t36.5 33.5t37.5 32.5t37.5 24.5t36.5 10h746z" />
    <glyph glyph-name="greater" unicode="&#x3e;" horiz-adv-x="883" 
d="M96 1020l135 143q51 -63 102.5 -115.5t101.5 -96t96 -77.5t87 -60q95 -62 183 -97q-14 -26 -27 -55q-11 -25 -23 -56t-20 -63q-92 -21 -169 -56.5t-140.5 -79t-113.5 -91.5t-86 -91.5t-58 -80.5t-31 -58l-31 51q39 45 90.5 108t116.5 129t143.5 129t172.5 109
q-52 20 -105 52t-104 70t-98.5 79t-89 80t-75.5 72t-57 55z" />
    <glyph glyph-name="question" unicode="?" horiz-adv-x="1034" 
d="M950 1190q-5 -76 -40 -139t-85 -119t-108 -107t-108 -103t-85.5 -106.5t-40.5 -117.5v-24t1.5 -39t5 -47t10.5 -48q3 -10 -6.5 -18t-25.5 -14.5t-37 -12.5t-40.5 -11.5t-35.5 -10.5t-23 -11q-8 23 -11.5 47t-3.5 45q0 69 21.5 124t56.5 101.5t80 87.5t92 83q36 30 73 71
t68 87.5t52 95.5t24 96q6 70 -18 131.5t-68 106t-103 67.5t-122 14q-58 -8 -99.5 -29.5t-69 -55t-41.5 -77.5t-17 -96q-2 -20 1 -43.5t12 -43.5t25 -34.5t42 -15.5q-41 -49 -81 -81q-17 -14 -35 -25t-35.5 -16.5t-34 -3.5t-29.5 15q-22 20 -31.5 47t-9.5 56q0 67 27 130.5
t72 119t104.5 101.5t125 79t132 51.5t126.5 18.5q69 0 125 -26t95 -70.5t58.5 -103.5t14.5 -126zM575 111q-32 -23 -62.5 -44t-56.5 -37t-46.5 -26t-32.5 -10q-10 0 -27 10q-14 8 -37.5 25t-58.5 49l160 110q36 -32 65.5 -47.5t50.5 -22.5q25 -8 45 -7z" />
    <glyph glyph-name="at" unicode="@" horiz-adv-x="1223" 
d="M764 170q-29 0 -43 34.5t-14 94.5v46t2 48q-28 -45 -58 -84.5t-60 -69.5t-60 -48.5t-58 -20.5q-14 -1 -32.5 8t-35 34.5t-28 71t-10.5 119.5q0 72 15 126.5t38 95.5t51 70t55 50q56 41 112 69.5t105 31.5q13 -1 27 -2q12 -2 28 -3.5t33 -6.5l43 34q-5 -23 -9.5 -67
t-9.5 -98.5t-9.5 -114.5t-8 -115.5t-6 -100.5t-2.5 -69q4 -18 12 -28.5t17 -4.5q26 1 46.5 26t36 64t26.5 87t18 94.5t10.5 86.5t3.5 64q0 67 -12.5 121.5t-44.5 92.5t-86.5 58.5t-138.5 20.5q-66 0 -129 -22.5t-118.5 -63t-102.5 -96t-80.5 -121t-52.5 -138.5t-19 -149
q0 -79 14 -136t38 -96t55.5 -62t66 -35.5t69.5 -16.5t66 -4q32 0 68 8.5t70.5 21t64.5 28t51 30.5l17 -14q-29 -29 -72 -55.5t-93.5 -46t-103 -31t-100.5 -11.5q-77 0 -140 22.5t-108 71t-69.5 126t-24.5 188.5q0 104 30.5 193.5t84 163t126 130t156 94.5t175 58t182.5 20
q87 0 142 -25.5t85.5 -68.5t41.5 -101t11 -122q0 -67 -15 -134t-41 -129t-61 -115t-74 -92.5t-81 -62t-82 -22.5zM733 725q-42 6 -76 6q-55 0 -89 -26.5t-52.5 -66.5t-24.5 -87.5t-6 -89.5q0 -32 3.5 -60.5t10.5 -49.5t18 -33.5t26 -12.5t37 18.5t47 47.5q3 4 13 19.5t24 45
t29.5 72.5t29.5 102q2 29 4.5 58t5.5 57z" />
    <glyph glyph-name="A" unicode="A" horiz-adv-x="1311" 
d="M399 104q-53 -30 -101.5 -50t-90.5 -32t-75.5 -17t-57.5 -5h-150l109 61q17 22 33 44t27 41q13 21 24 42q31 63 92 204q25 60 59.5 143t79.5 193t100 250t123 314l174 160l392 -1329q42 -11 80.5 -14t72.5 -3q18 0 33 0.5t26 1.5q12 1 23 3q-58 -28 -101 -48.5
t-76.5 -34.5t-62 -21t-57.5 -7h-160l52 33l-160 530q-29 -8 -67 -15.5t-90.5 -13.5t-122 -11t-160.5 -9q-42 -89 -77 -158t-63 -120t-49.5 -86t-36.5 -56q17 -3 38 -4.5t42 -1.5q32 0 63.5 2.5t57.5 5.5q30 4 57 8zM539 633q135 0 245 6l-153 508q-62 -159 -113.5 -284
t-97.5 -230h119z" />
    <glyph glyph-name="B" unicode="B" horiz-adv-x="1165" 
d="M1090 483q0 -95 -38.5 -167.5t-100 -126t-138.5 -90t-154 -58.5t-147 -31.5t-117 -9.5h-274q15 1 27 9t21 21.5t15.5 30t11.5 34.5q11 40 13 93q3 65 8 211q2 62 5 148t6.5 200t8.5 259t11 325q-37 -2 -84.5 -3t-106.5 1l187 105q34 -3 72 -5t75 -2t70 0.5t58 2.5
q29 2 54 4q73 0 148.5 -12t136.5 -44.5t100 -90.5t39 -150q-5 -70 -39 -132q-15 -27 -37 -54.5t-54.5 -52.5t-76.5 -46t-102 -35q17 2 32.5 3t31.5 1q63 0 111.5 -14.5t84 -38.5t60 -54.5t40.5 -61.5q37 -75 42 -169zM387 246q-4 -33 -15 -63q-9 -26 -24.5 -51t-40.5 -36
q100 -9 171 -12.5t116 -3.5q23 0 40.5 0.5t28.5 1.5q13 1 21 2q31 4 66 27t66 61.5t53.5 89.5t29.5 113q9 83 -8.5 149t-61.5 112t-114.5 70.5t-167.5 24.5q-17 0 -36 -1t-38 -3q65 31 124 59t103.5 67.5t70.5 97.5t26 149q0 52 -18 90t-48 64t-68.5 42t-80 25t-82.5 12
t-76 4q-4 -183 -7.5 -327t-7 -255t-6 -191.5t-5.5 -137.5q-6 -133 -11 -180z" />
    <glyph glyph-name="C" unicode="C" horiz-adv-x="1335" 
d="M1319 1374q-18 -23 -44 -45q-22 -19 -54.5 -40t-75.5 -38q14 18 2.5 38.5t-50.5 37.5t-105.5 28t-162.5 11q-56 0 -120.5 -11.5t-127.5 -39.5t-121.5 -74.5t-103.5 -116t-71.5 -165t-26.5 -220.5t30.5 -220t81 -163.5t115.5 -114t133 -73t133.5 -38.5t118.5 -11
q61 1 127 9q57 7 125.5 20.5t134.5 39.5q-97 -78 -180 -119t-146 -61q-73 -23 -134 -26q-148 0 -279 43.5t-229.5 126t-155.5 202.5t-57 273q0 95 18 176.5t47.5 149.5t66.5 122.5t75.5 96t75 69.5t63.5 43q26 15 66.5 34t89 38.5t102.5 38.5t110 34t109.5 24t101.5 9
q107 0 173 -10t100.5 -24.5t43 -29.5t1.5 -24z" />
    <glyph glyph-name="D" unicode="D" horiz-adv-x="1538" 
d="M1460 803q0 -124 -41.5 -231.5t-112 -197t-164.5 -159t-199.5 -117.5t-216 -73t-214.5 -25q-10 -1 -36.5 -1t-61.5 -0.5t-76 -0.5h-80t-73 0.5t-56 1.5q17 0 30 9t22.5 24t16 34.5t11.5 39.5q10 48 12 108q0 74 2 220q1 62 2 146.5t3 194t4.5 246.5t5.5 305
q-44 -5 -87.5 -7.5t-91.5 -0.5l187 123q46 -6 95 -8t97 -2q88 0 162.5 7t147.5 7q66 0 144.5 -10.5t157.5 -38t153 -73.5t131 -117.5t91.5 -171t34.5 -232.5zM389 276q-3 -31 -13 -60q-8 -25 -23.5 -53t-41.5 -48q139 -7 229 -9t144 -2q138 0 248 49.5t186.5 134t117 196.5
t40.5 237q0 123 -32.5 218.5t-86.5 167t-123 120.5t-141.5 79.5t-143.5 44t-128 13.5q-59 0 -110 -4t-99 -10q-3 -182 -5.5 -324.5t-4.5 -252t-4 -189t-3 -134.5q-4 -129 -6 -174z" />
    <glyph glyph-name="E" unicode="E" horiz-adv-x="1049" 
d="M879 784q-9 -4 -27 -15q-16 -10 -45.5 -29.5t-77.5 -53.5q8 15 -0.5 23t-22.5 11q-17 4 -40 3q-36 -3 -103.5 -7t-152.5 -7q0 -160 -2 -260.5t-3 -156.5q-2 -66 -4 -97q-2 -20 -12 -39q-8 -17 -25.5 -36t-48.5 -34h453q32 0 65 4q28 3 60 10t61 21q-50 -47 -99 -72
t-90 -36q-48 -13 -91 -15q-98 0 -185 -1t-157 -4t-119.5 -7.5t-71.5 -10.5q31 31 48.5 61t26.5 67t11.5 83.5t1.5 110.5v410q-29 0 -56.5 1t-53.5 3l110 57q0 54 -0.5 113.5t-0.5 127.5t-0.5 146.5t-0.5 171.5q-45 0 -85 1t-74 3l186 99q190 0 324.5 2.5t222.5 5.5
q102 4 170 8q34 0 45 -5.5t9 -12t-12 -13.5t-18 -10q-8 -4 -30 -17q-19 -11 -53.5 -34.5t-94.5 -63.5q20 22 17 32.5t-14 15.5q-13 5 -36 5q-19 -2 -57 -3.5t-88.5 -3.5t-109.5 -4t-121 -3q1 -160 1.5 -287t0.5 -233q102 1 183.5 3.5t139.5 5.5q68 4 121 7q33 1 44 -4t9 -12
t-11.5 -14.5t-16.5 -10.5z" />
    <glyph glyph-name="F" unicode="F" horiz-adv-x="1006" 
d="M844 752q-8 -5 -26 -16q-16 -11 -45 -30t-77 -53q8 15 -0.5 23t-22.5 11q-17 4 -40 3q-35 -3 -93 -7t-130 -7q-1 -148 -2.5 -241.5t-2.5 -146.5q-2 -62 -4 -93q-2 -20 -12 -39q-8 -17 -25.5 -36t-48.5 -34q61 0 121 4q51 3 108.5 10t104.5 21q-47 -42 -95.5 -67t-97 -39
t-95 -20t-87 -8t-75 -4t-58.5 -8q31 31 48.5 61t26.5 67t11.5 83.5t1.5 110.5v377q-27 0 -54.5 1t-55.5 3l110 57q0 55 -0.5 117.5t-0.5 135t-0.5 156.5t-0.5 183q-45 0 -85 1t-74 3l186 99q190 0 324.5 2.5t222.5 5.5q102 4 170 8q34 0 45 -5.5t9 -12t-12 -13.5t-18 -10
q-8 -4 -30 -17q-19 -11 -53.5 -34.5t-94.5 -63.5q20 22 17 32.5t-14 15.5q-13 5 -36 5q-19 -2 -57 -3.5t-88.5 -3.5t-109.5 -4t-121 -3q2 -173 2 -308v-247q91 1 166 3.5t129 5.5q63 4 114 8q34 1 45 -3.5t9 -11.5t-12 -14t-17 -10z" />
    <glyph glyph-name="G" unicode="G" horiz-adv-x="1489" 
d="M1319 1374q-18 -23 -44 -45q-22 -19 -54.5 -40t-75.5 -38q14 18 2.5 38.5t-50.5 37.5t-105.5 28t-162.5 11q-56 0 -120.5 -11.5t-127.5 -39.5t-121.5 -74.5t-103.5 -116t-71.5 -165t-26.5 -220.5t30.5 -220t81 -163.5t115.5 -114t133 -73t133.5 -38.5t118.5 -11
q40 0 86 4q39 3 89 10t104 21q14 15 22 31.5t13 30.5q5 16 8 32q6 103 5 204t-1 203q-28 3 -60 6t-63 3q-25 0 -45.5 -2t-36.5 -9q57 35 97 54.5t66 30.5q30 12 50 16q22 3 54.5 5t67 3.5t68 4t58.5 7.5l-70 -49q-2 -104 -4.5 -173.5t-4.5 -111.5q-3 -49 -5 -78
q-1 -33 -11.5 -63t-33 -58.5t-59 -56.5t-88.5 -57q-81 -54 -150 -83t-120 -43q-60 -16 -109 -19q-148 0 -279 43.5t-229.5 126t-155.5 202.5t-57 273q0 95 18 176.5t47.5 149.5t66.5 122.5t75.5 96t75 69.5t63.5 43q26 15 66.5 34t89 38.5t102.5 38.5t110 34t109.5 24
t101.5 9q107 0 173 -10t100.5 -24.5t43 -29.5t1.5 -24z" />
    <glyph glyph-name="H" unicode="H" horiz-adv-x="1552" 
d="M578 1489q-47 -31 -84.5 -51.5t-71.5 -34.5q-2 -86 -4 -159.5t-3.5 -138.5t-2.5 -123t-2 -112q53 11 110 11q55 0 127.5 -1.5t150.5 -4t157 -4t147 -1.5h47v498q-31 -3 -75.5 -7.5t-100.5 -12.5q54 44 97 66.5t74 33.5q36 12 64 14q36 0 78 2t82 5.5t72.5 8.5t48.5 11
q-47 -31 -84.5 -51.5t-71.5 -34.5q-5 -182 -8 -325t-5.5 -253.5t-4 -191.5t-2.5 -138q-3 -134 -2 -182q-1 -37 -10 -73q-8 -31 -24 -66.5t-46 -64.5q18 -2 35 -2.5t34 -0.5q47 0 84.5 4.5t65 9.5t43.5 10t20 7q-53 -36 -88 -62t-63 -42.5t-54.5 -24.5t-62.5 -8
q-48 0 -81.5 4t-67.5 4q-17 0 -34.5 -1.5t-39.5 -6.5q32 15 56 31.5t39.5 46t23.5 78t8 129.5v520q-29 -6 -65 -10t-83 -4q-65 0 -152 4t-190 4q-61 0 -123.5 -3t-127.5 -10q-4 -147 -5.5 -239t-2.5 -144q-1 -61 -1 -90q-1 -37 -10 -73q-8 -31 -24 -66.5t-46 -64.5
q19 -2 36 -2.5t34 -0.5q47 0 84.5 4.5t65 9.5t43.5 10t20 7q-53 -36 -88 -62t-63 -42.5t-54.5 -24.5t-62.5 -8q-48 0 -82 4t-68 4q-17 0 -34.5 -1.5t-38.5 -6.5q28 24 51 52.5t39.5 69.5t25.5 98t9 138v398q-23 -5 -45 -11t-44 -14q22 20 44 37t45 33v567q-31 -3 -75 -7.5
t-100 -12.5q54 44 97.5 66.5t74.5 33.5q36 12 64 14q35 0 77.5 2t82 5.5t72.5 8.5t49 11zM602 137v1q1 1 2 1zM1513 137v1h1q1 1 2 1z" />
    <glyph glyph-name="I" unicode="I" horiz-adv-x="641" 
d="M604 129q-54 -36 -89 -62t-63.5 -42.5t-55 -24.5t-62.5 -8q-48 0 -82 4t-68 4q-17 0 -34.5 -1.5t-38.5 -6.5q28 24 51 52t39.5 69t25.5 98.5t9 138.5v1010q-31 -3 -75 -8t-100 -13q54 44 97.5 67t74.5 34q36 12 64 14q35 -1 77.5 1t82 5.5t72.5 9t49 11.5
q-47 -31 -84.5 -52.5t-71.5 -35.5q-5 -181 -8.5 -324t-6 -253.5t-4 -191t-2.5 -137.5q-3 -133 -2 -182q-1 -37 -10 -73q-8 -32 -24 -67.5t-46 -64.5q19 -2 37 -2h35q51 0 90.5 4.5t66.5 10.5q32 7 56 16z" />
    <glyph glyph-name="J" unicode="J" horiz-adv-x="616" 
d="M569 1481q-46 -31 -84.5 -52.5t-72.5 -35.5q-5 -181 -8.5 -324t-6 -253.5t-4 -191t-2.5 -137.5q-3 -133 -2 -182q-1 -32 -7.5 -83.5t-25.5 -114.5t-53 -132.5t-88.5 -136.5t-133 -127t-185.5 -104q75 40 128.5 95.5t90 120t59 134.5t34 139.5t15.5 134.5t4 119v1010
q-31 -3 -75.5 -8t-100.5 -13q54 44 97.5 67t74.5 34q36 12 64 14q35 -1 77.5 1t82 5.5t72.5 9t50 11.5z" />
    <glyph glyph-name="K" unicode="K" horiz-adv-x="1403" 
d="M1294 1481q-60 -42 -106 -66t-90 -37q-51 -81 -111.5 -153.5t-126 -140.5t-133 -132.5t-131.5 -128.5q42 -60 96 -134t116.5 -149t132 -146.5t142 -126.5t148 -88.5t149.5 -33.5q26 0 55 6t60 21q-60 -65 -105.5 -101.5t-76.5 -53.5q-36 -21 -62 -25q-32 -3 -78 15
t-100 50.5t-112 76.5t-113 93q-61 57 -130 132q-59 64 -133.5 155.5t-152.5 208.5l86 108q30 25 71 62.5t86 82t91.5 94.5t87.5 100.5t73 99.5t50 92q-29 -3 -81 -8t-118 -15q54 44 97 67t74 34q36 12 65 14q35 -1 77 1t81.5 5.5t72 9t49.5 11.5zM604 129q-54 -36 -89 -62
t-63.5 -42.5t-55 -24.5t-62.5 -8q-48 0 -82 4t-68 4q-17 0 -34.5 -1.5t-38.5 -6.5q28 24 51 52t39.5 69t25.5 98.5t9 138.5v1010q-31 -3 -75 -8t-100 -13q54 44 97.5 67t74.5 34q36 12 64 14q35 -1 77.5 1t82 5.5t72.5 9t49 11.5q-47 -31 -84.5 -52.5t-71.5 -35.5
q-5 -181 -8.5 -324t-6 -253.5t-4 -191t-2.5 -137.5q-3 -133 -2 -182q-1 -37 -10 -73q-8 -32 -24 -67.5t-46 -64.5q19 -2 37 -2h35q51 0 90.5 4.5t66.5 10.5q32 7 56 16z" />
    <glyph glyph-name="L" unicode="L" horiz-adv-x="975" 
d="M578 1481q-47 -31 -84.5 -52.5t-71.5 -35.5q-5 -181 -8.5 -324t-6 -253.5t-4 -191t-2.5 -137.5q-3 -133 -2 -182q-1 -37 -8 -71q-6 -29 -19 -61.5t-36 -55.5q60 -2 112.5 -2h100.5q137 0 226 4t142 9.5t75 10t26 6.5q-53 -36 -88 -62t-62.5 -42.5t-54 -24.5t-61.5 -8
h-154q-65 0 -141 -0.5t-145 -2t-123.5 -5t-77.5 -8.5q28 24 51 52t39.5 69t25.5 98.5t9 138.5v1010q-31 -3 -75 -8t-100 -13q54 44 97.5 67t74.5 34q36 12 64 14q35 -1 77.5 1t82 5.5t72.5 9t49 11.5zM1018 145v1q1 1 2 1z" />
    <glyph glyph-name="M" unicode="M" horiz-adv-x="2028" 
d="M2019 119q-24 -20 -67 -45t-100.5 -47t-126.5 -37t-144 -15q13 24 21.5 43.5t14 38.5t7.5 38t2 42q0 26 -3 90.5t-7 151.5t-9 189t-9.5 202t-8 190t-4.5 154q-53 -93 -104.5 -171.5t-101 -150.5t-96 -141t-90 -143t-82.5 -156.5t-73 -181.5l-174 -195q2 35 -13 84.5
t-35 95.5q-23 54 -52 111q-34 62 -91 170q-50 91 -131 243t-202 378q-7 -122 -13.5 -247t-17.5 -247.5t-30.5 -240t-51.5 -222.5q17 -6 38 -9t42 -3q22 0 42 2t36 4q18 3 35 6q-42 -32 -77.5 -55t-73 -39t-82.5 -23.5t-107 -7.5q28 27 48.5 89.5t35 149t24.5 191.5
t17.5 215.5t12 221.5t9.5 210.5t10 182t13 135.5l145 160q-8 -16 -8 -36t4 -38q4 -21 12 -43q5 -13 27 -57t55 -108.5t75.5 -146t88.5 -170t93 -179t90 -173.5t79 -154.5t60 -121.5q85 132 172.5 267t168 269t150 266.5t119.5 260.5l209 164q-6 -185 -3 -354.5t9.5 -330.5
t12.5 -316t6 -310q0 -45 -5.5 -73.5t-19.5 -39.5q46 -6 94 -6q40 0 75.5 4.5t59.5 14.5z" />
    <glyph glyph-name="N" unicode="N" horiz-adv-x="1540" 
d="M289 184q-2 -9 -9 -21q-6 -11 -17 -27.5t-30 -39.5q29 -6 58.5 -8t54.5 -2q50 0 81.5 4t37.5 6q-47 -22 -78 -41t-63.5 -33t-74 -23.5t-110.5 -12.5q4 2 13 16l-19 -16q-14 -2 -29 -2h-30l92 69q4 24 8 54.5t7 63.5t6 66.5t5 65.5q5 74 9 152q5 227 7.5 446.5t2.5 441.5
l111 179q6 -96 37 -185t81 -172.5t114 -161t136 -151.5t147 -145t146 -140.5t134.5 -138t111.5 -137.5q15 217 19.5 423.5t4.5 411.5q0 92 -5 144.5t-15 87.5q-12 -2 -25.5 -2h-27.5q-35 0 -67.5 -1.5t-53.5 -11.5q37 26 72 48t70.5 37.5t72 24.5t78.5 9q23 0 51.5 -1.5
t62.5 -6.5q-27 -17 -51 -30.5t-47 -24.5q-2 -306 -17.5 -601.5t-29.5 -590.5q-60 -98 -86.5 -161t-30.5 -77v-4q-46 104 -113 194t-146.5 172t-165.5 160t-169 159.5t-157.5 170t-130.5 191.5q-1 -87 -2.5 -174t-3.5 -170t-5 -159t-6.5 -139t-7.5 -111t-8 -75zM139 -14
q-2 -2 -6 -2v2h6z" />
    <glyph glyph-name="O" unicode="O" horiz-adv-x="1579" 
d="M1501 776q0 -127 -42 -235t-111 -197t-157.5 -157.5t-181 -115t-181.5 -70.5t-160 -24q-60 0 -127 18.5t-132.5 55t-125.5 91t-105.5 126t-72.5 160t-27 193.5q0 140 39 256t103.5 208.5t147 161.5t169 114.5t170.5 68t151 22.5q71 0 146 -15t146.5 -48t135 -85.5
t111.5 -127.5t76 -174.5t28 -225.5zM1319 715q0 110 -27 199.5t-72.5 159t-105 120t-124 83.5t-130.5 48.5t-125 15.5q-94 0 -182 -35.5t-156.5 -111t-109.5 -194.5t-41 -285q0 -111 32 -199.5t84 -155.5t117.5 -115t133 -78t131 -44t110.5 -14t99.5 14t104.5 44.5t99 78.5
t83 115t57.5 155t21.5 199z" />
    <glyph glyph-name="P" unicode="P" horiz-adv-x="1124" 
d="M1102 1073q-7 -67 -30.5 -123.5t-57.5 -103t-73.5 -83t-78 -64t-72.5 -46t-55 -28.5q-29 -13 -63 -23q-29 -8 -67.5 -15t-82.5 -5l103 49q57 -4 114 29.5t101 94t69.5 143t18.5 177.5q-6 72 -39.5 127.5t-80.5 93.5t-102 58t-106 20q-35 0 -84 -2.5t-104 -7.5
q-3 -189 -6.5 -337.5t-6.5 -263t-5.5 -198t-5.5 -141.5q-6 -137 -11 -186q-3 -20 -10 -41q-6 -18 -16.5 -39t-26.5 -41q43 -5 77.5 -5.5t63.5 -0.5q69 0 101.5 4t37.5 6q-52 -26 -98 -48t-88 -39t-80.5 -26.5t-75.5 -9.5h-174l88 59q7 26 13.5 62t11.5 77.5t8.5 86t6.5 87.5
q6 99 9 210q2 154 4 298q1 61 2 126t1.5 127.5t1.5 118t2 98.5l-181 -19l195 117q28 -3 55.5 -3.5t56.5 -0.5q49 0 95 3.5t91 8t89 8.5t88 4q79 0 151 -27t125.5 -78t81.5 -124t19 -164z" />
    <glyph glyph-name="Q" unicode="Q" horiz-adv-x="1599" 
d="M1864 -94q-78 -44 -137 -68t-100 -35q-48 -13 -81 -16q-62 0 -140 25.5t-158.5 62t-157 77.5t-136.5 73q-71 -23 -139.5 -35.5t-128.5 -12.5q-61 0 -129.5 18.5t-136 55t-129.5 91t-109.5 126t-75.5 160t-28 193.5q0 127 26 229.5t70.5 185t103 145t124 109t133.5 77.5
t131 50t117 27t91 8q71 0 146 -15t146.5 -48t135.5 -85.5t112 -127.5t76 -174.5t28 -225.5q0 -117 -28.5 -216t-77 -180t-114 -145t-139.5 -112q67 -43 133.5 -85.5t134 -76.5t137.5 -55t144 -21q34 0 73 5t83 16zM1335 715q0 166 -47 284.5t-126.5 194.5t-185.5 111.5
t-224 35.5q-68 0 -132 -12t-120.5 -40t-103 -74.5t-80 -116t-52 -164.5t-18.5 -219q0 -111 27.5 -200.5t74 -159t108.5 -119.5t131.5 -82.5t142 -48t140.5 -15.5q89 0 173 35.5t149 111t104 194t39 284.5z" />
    <glyph glyph-name="R" unicode="R" horiz-adv-x="1382" 
d="M1067 1073q-8 -75 -40 -131.5t-77 -99.5t-96.5 -72.5t-97.5 -50.5q88 -95 158.5 -169t125.5 -131t95.5 -98.5t69.5 -69.5q68 -67 95 -89q28 -22 61 -30.5t64 -8.5q26 0 50 5t38 11q-48 -32 -84.5 -58t-67 -44.5t-58 -28.5t-56.5 -10q-20 0 -39.5 6t-41 19t-46 33
t-53.5 48q-19 19 -57 61.5t-85 95t-98 109.5t-96 105.5t-79.5 83.5t-47.5 43q-15 9 -32 16q-14 6 -32.5 10.5t-35.5 2.5l145 100q50 0 95.5 23t79 67.5t52.5 108.5t15 145q-2 48 -21.5 87.5t-50 70.5t-69.5 54t-80 38.5t-81.5 23t-74.5 7.5q-23 0 -50 -1t-54 -1
q-3 -187 -6.5 -334t-6.5 -261t-5.5 -196.5t-5.5 -140.5q-6 -136 -11 -184q-3 -20 -10 -41q-6 -18 -16.5 -39t-26.5 -41q43 -5 77.5 -5.5t63.5 -0.5q69 0 101.5 4t37.5 6q-52 -26 -98 -48t-88 -39t-80.5 -26.5t-75.5 -9.5h-174l88 59q7 26 13.5 62t11.5 77.5t8.5 86t6.5 87.5
q6 99 9 210q2 153 4 296q1 61 2 125.5t1.5 126t1.5 117t1 98.5l-180 -14l195 117q17 -3 37.5 -3.5t42.5 -0.5q43 0 85 3.5t83.5 8t81.5 8.5t81 4q80 0 157 -27t135.5 -78t91.5 -124t24 -164zM1516 141l-2 -1h-1v-1v1h1q1 1 2 1z" />
    <glyph glyph-name="S" unicode="S" horiz-adv-x="1032" 
d="M952 422q0 -51 -33 -105t-86.5 -104.5t-120 -95.5t-134 -79.5t-129.5 -55t-105 -21.5q-41 -2 -88 7t-89.5 22.5t-76 29t-45.5 27.5q-7 8 -11.5 17.5t-4.5 21t6.5 24t21.5 25.5q14 11 35 28q18 14 46 36.5t69 54.5q-15 -15 -19 -28t-3 -24q1 -12 8 -22q10 -13 35 -29
t60.5 -29.5t80 -22.5t92.5 -9q59 0 117 11.5t104.5 38.5t75 71.5t28.5 110.5q0 61 -28.5 107.5t-74.5 83.5t-105.5 67.5t-121 60.5t-121 61t-105.5 69.5t-74.5 87t-28.5 112.5q0 62 30.5 121.5t80.5 112t114.5 97.5t132.5 77.5t133.5 51t118.5 19.5q51 1 98 -4.5t79 -16.5
t44 -27.5t-6 -37.5q-15 -17 -37 -36q-20 -17 -49 -38t-71 -45q8 12 9 21.5t-1 15.5q-3 7 -8 12q-7 6 -24.5 13t-43.5 14t-59 11.5t-70 4.5q-60 0 -115.5 -14.5t-98 -44.5t-68 -76t-25.5 -108q0 -68 28.5 -119t75 -90.5t106 -71.5t121 -61.5t121 -60.5t106 -69t75 -86.5
t28.5 -113.5z" />
    <glyph glyph-name="T" unicode="T" horiz-adv-x="1251" 
d="M1270 1397q-11 -6 -34 -19q-20 -11 -54.5 -31.5t-89.5 -52.5q17 22 15.5 31.5t-9.5 12.5q-10 4 -27 1q-10 -2 -43 -4.5t-82.5 -4.5t-112.5 -4t-133 -3q-4 -167 -7 -299t-5.5 -234t-4 -177t-2.5 -128q-3 -124 -3 -172q-1 -37 -10 -73q-8 -31 -24 -66.5t-46 -64.5
q19 -2 36 -2.5t34 -0.5q47 0 84.5 4.5t64.5 9.5t43.5 10t20.5 7q-53 -36 -88 -62t-63 -42.5t-55 -24.5t-63 -8q-48 0 -81.5 4t-67.5 4q-17 0 -34.5 -1.5t-39.5 -6.5q28 24 51.5 52.5t39.5 69.5t25 98t9 138v959q-87 -2 -170.5 -4t-150.5 -3.5t-112.5 -3.5t-57.5 -3
q-28 -3 -40 2t-11 15.5t14.5 25.5t36.5 32l137 99q-15 -18 -9.5 -27t17.5 -14q14 -5 37 -6q16 0 65 1t119.5 2.5t156.5 3t175 4t175 4.5t156.5 3.5t119.5 3t65 2.5q31 1 45 -5t15.5 -16t-7 -20t-20.5 -16zM881 137v1q1 1 2 1z" />
    <glyph glyph-name="U" unicode="U" horiz-adv-x="1591" 
d="M569 1444q-40 -28 -88.5 -59t-93.5 -50q-4 -128 -6.5 -233t-5 -189.5t-3.5 -149.5t-2 -114q-2 -114 -1 -174q-2 -71 20 -138t71.5 -120t129.5 -85t194 -32q62 2 129 18q57 14 126 42t135 82v1081q-14 2 -29 2h-29q-28 0 -55.5 -1.5t-50.5 -4.5q47 42 83.5 64t62.5 33
q30 12 52 14q19 0 48 0.5t61.5 1.5t66 2.5t62 3t49 3t27.5 3.5q-35 -25 -78.5 -52.5t-83.5 -45.5v-1031q-1 -49 -6 -91q-5 -36 -13.5 -70.5t-25.5 -47.5q56 -8 99 -10t75 -2q57 0 82 4t28 6q-47 -27 -86 -46.5t-73.5 -32t-67 -19t-65.5 -6.5h-195q23 8 35.5 35t18.5 56
q7 33 8 73v47q-106 -86 -202 -132t-171 -67q-87 -25 -164 -28q-126 0 -211.5 33.5t-137 93.5t-73 144t-18.5 185q-1 83 1 209q1 108 3.5 274.5t7.5 401.5h-45q-28 0 -56 -1.5t-51 -4.5q47 42 83.5 64t62.5 33q30 12 53 14q19 0 48 0.5t61.5 1.5t66 2.5t62 3t48.5 3t27 3.5z
M1599 104v1h1q1 1 2 1z" />
    <glyph glyph-name="V" unicode="V" horiz-adv-x="1393" 
d="M481 1444q-34 -23 -74.5 -49.5t-80.5 -46.5q64 -171 120.5 -322t107 -290.5t93.5 -271t80 -261.5q45 77 94 165t95 181t87.5 189.5t72.5 190.5t49 183.5t18 169.5q0 11 -1 21.5t-3 19.5q-14 2 -29 2h-31q-28 0 -55.5 -1.5t-50.5 -4.5q46 42 82.5 64t62.5 33q30 12 53 14
q19 0 48 0.5t61.5 1.5t66 2.5t61.5 3t48.5 3t26.5 3.5q-21 -15 -45.5 -31.5t-50 -32t-51.5 -29t-50 -22.5q-11 -97 -45 -207t-79 -221t-96 -215.5t-97 -189.5t-81.5 -144t-49.5 -78q-17 -25 -35 -53q-15 -24 -32.5 -55t-31.5 -64l-133 -133q-20 62 -33.5 105t-24.5 75.5
t-20 60t-20 58.5t-25 69.5t-34.5 94.5t-49.5 132.5t-69 184t-93 249t-122 327.5h-39q-28 0 -56 -1.5t-51 -4.5q47 42 83.5 64t62.5 33q30 12 53 14q19 0 48 0.5t61.5 1.5t66 2.5t62 3t48.5 3t27 3.5z" />
    <glyph glyph-name="W" unicode="W" horiz-adv-x="2318" 
d="M1726 125l-137 -162q-125 311 -232.5 619t-189.5 620q-60 -167 -120.5 -332t-129.5 -323.5t-150.5 -308t-182.5 -285.5q-59 174 -112 347.5t-105 345.5t-106.5 341t-117.5 336q-14 2 -26.5 2h-26.5q-28 0 -55.5 -1.5t-50.5 -4.5q47 42 83.5 64t62.5 33q30 12 52 14
q19 0 48 0.5t61.5 1.5t66 2.5t62 3t49 3t27.5 3.5q-38 -25 -81.5 -54t-86.5 -49l348 -1134q24 43 48 92t47.5 100t45.5 101t41 96q45 107 86 215q39 107 69 205q13 42 25 85.5t21 84t14 76t4 61.5q-12 2 -23 2h-24q-28 0 -55.5 -1.5t-50.5 -4.5q47 42 84 64t63 33
q30 12 53 14q18 0 46.5 0.5t61 1.5t66 2.5t62 3t49 3t27.5 3.5q-28 -20 -61.5 -42t-65.5 -40q47 -162 92 -314.5t92 -298t97.5 -285t107.5 -274.5q26 57 51 116t49 116t45.5 110.5t40.5 100.5q44 111 82 213q30 86 55 168q10 35 20.5 72t18 73.5t12.5 70t5 60.5v17.5
t-2 15.5q-19 0 -38.5 1t-37.5 1q-28 0 -56 -1.5t-51 -4.5q46 42 83 64t63 33q30 12 53 14q19 0 48 0.5t61.5 1.5t66 2.5t62 3t48.5 3t27 3.5q-22 -15 -48 -32t-52.5 -33t-52.5 -29.5t-49 -22.5q-92 -318 -213.5 -612.5t-266.5 -581.5q0 -4 4 -8z" />
    <glyph glyph-name="X" unicode="X" horiz-adv-x="1413" 
d="M1438 94q-27 -17 -57 -34.5t-61.5 -32t-65.5 -24t-68 -9.5q-3 0 -23.5 -0.5t-45.5 -1t-49 -0.5t-34 2l21 22l-418 611q-36 -45 -75 -91t-91.5 -106.5t-124.5 -142.5t-174 -199q40 -5 73.5 -6.5t59.5 -1.5q27 0 46.5 1t33.5 3q16 2 27 4q-51 -27 -91 -45.5t-74.5 -29.5
t-67 -16t-68.5 -5q-2 0 -22 -0.5t-45.5 -1t-49.5 -0.5t-33 2l160 108q125 150 242.5 296t230.5 294l-434 635q-31 -3 -69 -7.5t-85 -12.5q53 50 96.5 76t74.5 38q36 14 65 15q35 -1 77 1t81.5 6.5t72 10t49.5 12.5q-46 -35 -84 -59t-73 -39l350 -514q86 119 167.5 237
t161.5 240q-29 -3 -66.5 -6.5t-80.5 -9.5q54 48 98 73t76 36q37 13 66 14q14 -2 29 -2h30q32 0 65.5 1.5t63.5 4.5t54 7t38 9q-43 -32 -78.5 -53.5t-68 -36t-63 -22t-62.5 -11.5q-73 -103 -131 -185t-104.5 -148t-83.5 -118t-68 -94l475 -694q73 -6 117 -6q46 0 67 3
q12 1 21 3z" />
    <glyph glyph-name="Y" unicode="Y" horiz-adv-x="1247" 
d="M969 113q-56 -36 -107 -59.5t-108 -37t-124 -19t-153 -5.5q17 14 27.5 27.5t16.5 31t9 41.5t5 58q0 29 2 88q2 50 5 136t9 220q-109 190 -186 321t-128.5 216t-80.5 130.5t-43 65.5q-29 -3 -69.5 -8.5t-88.5 -13.5q54 50 97 76t74 38q36 14 64 15q36 -1 78 1t82 6.5
t72.5 10t48.5 12.5q-43 -34 -79 -56t-70 -38l376 -625q78 127 132 225.5t88.5 171t52 119.5t24.5 70q-29 -2 -80.5 -5.5t-119.5 -12.5q42 34 76.5 57t69 37t71.5 20.5t84 6.5q32 0 65.5 1.5t63.5 4.5t54 7t38 9q-63 -46 -111.5 -71t-93.5 -37q-58 -130 -117.5 -238
t-112.5 -192t-96.5 -143t-68.5 -91q-2 -90 -4 -160.5t-3.5 -124.5t-2.5 -92.5t-1 -65.5q-2 -62 -1 -83q0 -12 -3 -24q-2 -11 -8 -22.5t-16 -19.5q20 -2 38.5 -2h35.5q58 0 99.5 3t67.5 8q31 5 50 12z" />
    <glyph glyph-name="Z" unicode="Z" horiz-adv-x="1087" 
d="M944 817q-45 -25 -80.5 -45.5t-66.5 -36t-58 -26t-55 -15.5q-15 -3 -39 -3.5t-55 -0.5q-25 -49 -43.5 -84.5t-31.5 -58.5q-15 -27 -26 -47q-87 -176 -147.5 -274t-101.5 -130q26 5 52 6.5t54 1.5q45 0 89 -3t87 -5.5t84 -3.5t82 4q55 3 114 9q51 5 112.5 14.5t121.5 25.5
q-51 -51 -105.5 -83t-113 -50t-120.5 -25t-126 -7q-60 0 -122.5 2.5t-117.5 5.5t-98 5.5t-65 2.5q-25 0 -50 -2q-21 -2 -44 -5t-39 -9q27 32 57.5 76.5t62 95.5t62.5 105.5t59 106.5q66 122 132 257q3 7 8 18q4 9 10 21.5t14 29.5q-57 -2 -117 -6.5t-116 -15.5l174 116h54.5
t51.5 2q26 55 57.5 122.5t64.5 138.5t65 143.5t61 138.5q-32 -3 -75 -5.5t-91 -5t-98 -4t-94.5 -2.5t-81 -1.5t-57.5 0.5q-25 1 -55 -2q-26 -2 -59 -9t-71 -20q47 60 90 91.5t76 46.5q39 18 72 20q28 0 87.5 -1.5t133.5 -3t155 -2.5t154 -1q75 0 132 1.5t83 6.5
q-24 -16 -49 -29.5t-51 -26.5q-98 -201 -169.5 -343.5t-123.5 -245.5q78 4 135 8t94 8q43 4 72 8z" />
    <glyph glyph-name="bracketleft" unicode="[" horiz-adv-x="674" 
d="M741 1726q-13 0 -38.5 -21.5t-58.5 -47t-70 -47t-72 -21.5h-121q-9 -269 -16 -476.5t-12.5 -364.5t-9.5 -270.5t-7 -195t-4.5 -138t-3.5 -99.5q-1 -12 -5.5 -39t-13.5 -55.5t-22 -50t-31 -21.5h406q-20 0 -47.5 -21.5t-59.5 -48t-67 -48t-70 -21.5h-330q16 19 26.5 30.5
t16.5 22t8.5 23.5t3.5 34q8 221 15.5 410t14.5 352t13.5 301.5t11 258t7 222.5t2.5 195q49 30 94 56q38 23 78.5 45.5t66.5 35.5h295z" />
    <glyph glyph-name="backslash" unicode="\" horiz-adv-x="915" 
d="M838 -106q-96 64 -178 161.5t-151.5 212.5t-126 240.5t-100.5 246.5q-105 284 -173 603q-6 22 8 36.5t39.5 34t59 51t67.5 87.5q3 -20 10.5 -97.5t27.5 -198t56.5 -277t97 -336t149.5 -374t214 -390.5z" />
    <glyph glyph-name="bracketright" unicode="]" horiz-adv-x="672" 
d="M-66 -260q13 0 39 21.5t59 47t70 47t72 21.5h121q9 269 16 476.5t12.5 364.5t9.5 270.5t7 195t5 138t3 99.5q1 12 5.5 39t13.5 55.5t22 50t31 21.5h-406q20 0 47.5 21.5t59.5 48t67 48t70 21.5h330q-16 -19 -26.5 -30.5t-16.5 -22t-9 -23.5t-4 -34q-11 -331 -22.5 -592.5
t-20.5 -470.5t-14.5 -373.5t-5.5 -302.5q-49 -29 -94 -55q-38 -23 -79 -46t-67 -36h-295z" />
    <glyph glyph-name="asciicircum" unicode="^" horiz-adv-x="838" 
d="M731 870q0 -10 -12 -19.5t-29.5 -18t-38 -16.5t-38 -16t-29.5 -16t-11 -16q-35 87 -60 177t-50 179q-8 25 -14.5 51t-14.5 52l-127 -275q-10 -20 -36 -40.5t-57 -41t-62 -41.5t-50 -41q37 50 81.5 120t86.5 144.5t75 147t48 127.5q23 20 39 28l30 15t28 17t34 34
q19 -65 39.5 -134t44 -137.5t51 -134.5t62.5 -126q3 -6 6.5 -9t3.5 -10zM102 788q-3 -6 -7 -10.5t-7 -9.5z" />
    <glyph glyph-name="underscore" unicode="_" horiz-adv-x="1157" 
d="M1049 -223q-31 0 -57 -22.5t-51.5 -49.5t-52.5 -49.5t-59 -22.5h-745q25 5 52 28t55 49t56 46.5t56 20.5h746z" />
    <glyph glyph-name="grave" unicode="`" horiz-adv-x="440" 
d="M440 1350q-10 -9 -29 -25t-40.5 -32t-41 -28t-30.5 -12q-94 60 -170 140.5t-129 177.5q0 4 22 19t48 32q31 19 71 43q29 -49 57 -90.5t61.5 -79t77 -73t103.5 -72.5z" />
    <glyph glyph-name="a" unicode="a" horiz-adv-x="1010" 
d="M1030 260q-9 -14 -25 -33.5t-32 -38.5q-18 -22 -39 -45q-26 -32 -56 -62t-59.5 -53.5t-57.5 -37.5t-50 -13q-42 2 -58 51.5t-16 143.5q0 50 3 108t9 130q-22 -35 -42 -64t-36 -51q-18 -26 -36 -47q-53 -65 -102.5 -115t-91 -84t-73 -52t-49.5 -20t-43.5 12t-48.5 54
t-39.5 112t-15.5 187t24.5 202.5t61 153t83.5 113t91 82.5q93 71 178.5 113.5t167.5 44.5q27 1 53 -1q23 -2 49.5 -6.5t50.5 -13.5l29 23q-6 -28 -12.5 -76t-12.5 -108t-12 -128t-10.5 -136.5t-8.5 -133t-6.5 -117.5t-3 -90t0.5 -51q5 -57 26.5 -78t59.5 4q15 12 37 38
q19 22 46.5 60.5t65.5 100.5v-78zM688 897q-95 12 -156 12q-65 0 -113 -21t-82 -56.5t-56 -82t-34.5 -98.5t-17 -106t-4.5 -103q0 -17 2 -46t7.5 -62t14 -67t22 -61.5t31.5 -45t42 -17.5q26 0 63.5 28.5t90.5 96.5q31 42 62 101q26 50 55.5 123t52.5 170z" />
    <glyph glyph-name="b" unicode="b" horiz-adv-x="922" 
d="M215 -33q-25 0 -51 2.5t-55 7.5q13 201 28 391t27.5 373t20.5 360t8 353q0 115 -14 174.5t-46 65.5q-17 3 -35 1q-16 -2 -35 -9.5t-38 -24.5q45 45 76.5 75t51.5 48q24 21 40 33q14 11 29.5 15.5t29.5 4.5q25 0 45.5 -16.5t30.5 -55.5q4 -15 6.5 -40.5t4 -59.5t2.5 -75.5
t1 -86.5q0 -207 -11.5 -405.5t-27.5 -395.5q28 46 55.5 84t49.5 64q26 31 49 55q71 69 134 101t111 32q34 0 58.5 -18.5t41.5 -47.5t28 -65.5t16.5 -73.5t7.5 -70.5t2 -55.5q0 -88 -21 -177t-61 -171t-96.5 -153.5t-128 -124.5t-155.5 -83.5t-179 -30.5zM252 123
q39 -15 72 -20.5t57 -7.5q28 -2 51 1q87 21 139 70t79 114t35.5 139.5t8.5 147.5q0 24 -1.5 58.5t-6.5 73t-14 76.5t-24 68t-37 49t-52 19q-20 0 -39 -9t-33 -23q-32 -31 -61.5 -82t-56 -116t-50 -139.5t-43.5 -152.5z" />
    <glyph glyph-name="c" unicode="c" horiz-adv-x="737" 
d="M737 965q-10 -11 -29 -29q-17 -15 -46.5 -38.5t-77.5 -55.5q12 11 13 20t-2 16q-4 8 -13 15q-16 9 -51.5 14.5t-75.5 5.5q-34 0 -64 -4.5t-49 -15.5q-18 -11 -38.5 -53t-37.5 -102t-28 -131.5t-11 -141.5q0 -33 3.5 -72t11.5 -77.5t22 -74t35 -62.5t49 -42t66 -12
q24 4 54 21q25 14 58.5 43.5t71.5 82.5l84 25q-53 -60 -95 -102.5t-71 -69.5q-34 -32 -61 -51q-33 -23 -62 -41.5t-56.5 -31t-54.5 -17.5t-55 -2q-24 2 -51.5 27t-51.5 69.5t-40 107.5t-16 142q0 86 16.5 174t49.5 169.5t84 151t120 117.5q36 25 78.5 44t85 31t82 17t69.5 4
q60 -3 81.5 -22.5t2.5 -48.5z" />
    <glyph glyph-name="d" unicode="d" horiz-adv-x="1018" 
d="M1067 322l-23 -109q-54 -46 -89.5 -75.5t-57.5 -47.5q-26 -21 -41 -33q-17 -14 -36 -28.5t-39.5 -25.5t-41 -17.5t-39.5 -3.5q-59 6 -59 239q0 101 6 236q-29 -51 -54.5 -92.5t-45.5 -70.5q-23 -34 -43 -61q-45 -57 -88 -102.5t-81 -78.5t-68.5 -51.5t-49.5 -20.5t-42 5
t-44.5 31.5t-38 70.5t-22.5 122q-2 15 -2 30.5v30.5q0 73 11.5 152t31 150.5t46 130t56.5 90.5q22 24 55 51t71.5 53.5t79.5 51t78 43.5t67 31t48 15h20h24t32 -2q7 90 13.5 175t11 160.5t7.5 138.5t3 108q0 40 -6.5 60.5t-20.5 35.5q-9 8 -22 10q-11 2 -28 -2t-40 -18
q51 35 86 59t58 38q26 17 43 26q21 12 41.5 12.5t36.5 -14t24 -45.5t4 -82q-3 -26 -8.5 -90.5t-13.5 -154t-16.5 -196.5t-17.5 -219t-17.5 -221.5t-14.5 -203t-10 -164.5t-4 -105q0 -103 14 -160t51 -57q26 0 66 31q29 23 55 50q23 23 46 52.5t38 61.5zM678 895
q-59 11 -102 14.5t-72 3.5q-56 0 -98.5 -27.5t-74.5 -71.5t-53.5 -100t-34.5 -113t-18.5 -109.5t-5.5 -90.5q0 -16 1.5 -41.5t6 -54t12.5 -57.5t20 -52.5t29 -38t40 -14.5q26 0 62.5 33t94.5 109q28 39 58 96q26 49 57 124t62 179z" />
    <glyph glyph-name="e" unicode="e" horiz-adv-x="692" 
d="M639 291q-53 -60 -97.5 -105.5t-78.5 -76.5q-40 -36 -72 -62q-88 -70 -153 -70q-37 0 -63.5 19.5t-45.5 50.5t-31 70t-18.5 78.5t-9 75.5t-2.5 61q0 67 15.5 145t45 155.5t72.5 149t98.5 127t122 88.5t143.5 33q21 0 35 -7.5t23 -20.5t12.5 -29t3.5 -33q0 -44 -20 -88
t-53.5 -86.5t-76.5 -83t-89.5 -77t-92.5 -68.5t-84 -58v-22q0 -25 2.5 -60.5t9 -74t17.5 -76.5t28 -68t40.5 -48.5t54.5 -18.5q14 0 29 4.5t30 15.5q26 21 59 58q28 32 65 83t81 129v-110zM453 881q-12 14 -31 18t-40.5 -2t-42 -23t-34.5 -45q-20 -40 -44 -114.5t-34 -171.5
q32 19 66 44t65.5 53t57 58.5t40 62t15.5 62t-18 58.5z" />
    <glyph glyph-name="f" unicode="f" horiz-adv-x="694" 
d="M961 1804q21 -16 12 -42q-4 -11 -15 -26t-32.5 -34t-55 -42t-82.5 -50q19 28 13.5 47.5t-23 31t-42 16.5t-44.5 5q-46 0 -92.5 -14.5t-77.5 -40.5q-14 -13 -29 -29.5t-29.5 -44.5t-29.5 -70.5t-29.5 -107t-28 -154t-26.5 -211.5l-4 -32q56 -5 101.5 -6.5t78.5 -2.5
q39 -1 70 0q39 1 76 6q32 5 66.5 13.5t58.5 25.5q-48 -34 -92 -63.5t-88.5 -51t-91.5 -34t-101 -12.5q-23 0 -44.5 1t-43.5 3q-10 -118 -17 -243t-13.5 -248t-13.5 -238.5t-16.5 -213t-22 -172.5t-30.5 -118q-29 -71 -78 -134t-105.5 -115.5t-115.5 -93t-108 -65.5
q-44 -23 -91 -33t-94 -10q-57 0 -105.5 12.5t-76.5 30.5q-17 10 -16 26.5t13 36t32 40t42 39.5t43 34t34 23q-6 -24 -1.5 -42t24 -31.5t56 -23.5t93.5 -18q112 -17 194 52t119 225q16 65 27 153.5t20 191.5t15.5 217t12.5 232t13 235.5t16 227.5q0 8 1 14.5t1 14.5
q-31 -2 -61.5 -8.5t-60.5 -22.5q20 16 38 34t32 33q16 18 30 34q5 6 11 15q5 8 11.5 18t14.5 24q18 156 43.5 264.5t61 185t82 128.5t108.5 96q100 69 187 103t161 34q64 0 115 -25z" />
    <glyph glyph-name="g" unicode="g" horiz-adv-x="942" 
d="M842 1047q-6 -28 -12.5 -76t-12 -108t-11.5 -128t-10.5 -136.5t-8.5 -133t-7 -117.5t-4.5 -90t-1.5 -51q0 -101 -13.5 -211t-44 -216.5t-80.5 -203t-122 -169.5t-169 -116t-222 -43q-58 0 -118 19t-109.5 54.5t-81 85t-31.5 110.5q0 46 19.5 90t53 85t76.5 79t90.5 73
t95 67t89.5 60q-19 1 -43.5 17.5t-45.5 57.5t-35.5 111t-12.5 179q1 115 24.5 202.5t60.5 153t83 113t92 82.5q91 71 177.5 113.5t168.5 46.5q25 1 50 -2q21 -2 44.5 -7t42.5 -14zM532 242q-65 -79 -122.5 -134.5t-104.5 -89.5q-31 -23 -69 -50t-76.5 -57.5t-75.5 -64
t-65.5 -69.5t-46 -73.5t-17.5 -76.5q0 -47 17 -83t46 -64t66.5 -47t78.5 -31t82.5 -17.5t78.5 -5.5q84 0 137.5 44t84.5 119t44.5 174.5t18.5 209.5t7 225.5t9 221.5q-19 -28 -35.5 -52t-29.5 -41q-15 -21 -28 -38zM522 905q-63 0 -110 -22t-80 -58.5t-55 -84.5t-34 -100
t-17 -105.5t-5 -100.5q0 -19 2 -48t7.5 -62t14.5 -66.5t22.5 -60t32 -43.5t42.5 -17q26 0 63 28.5t91 96.5q24 32 49 77q21 38 46 94t48 130q3 37 6.5 80.5t7.5 87.5t8.5 85.5t8.5 76.5q-93 12 -148 12z" />
    <glyph glyph-name="h" unicode="h" horiz-adv-x="1038" 
d="M338 1739q2 -19 2 -50v-73q0 -232 -10.5 -453.5t-26.5 -441.5q37 58 82.5 118t96.5 108.5t106 79t112 30.5q47 0 78 -24t49 -60t25.5 -78t7.5 -78q0 -76 -6 -150.5t-12.5 -147.5t-12.5 -145.5t-6 -144.5q0 -20 2 -40t9 -36.5t19.5 -27t33.5 -10.5q28 0 57.5 23.5t55 55
t46 63t31.5 48.5l-22 -92q-44 -43 -72.5 -69.5t-45.5 -42.5q-20 -18 -32 -27q-12 -10 -30 -27t-39.5 -33t-45 -27.5t-47.5 -11.5q-20 0 -33 6t-21 21t-11.5 39.5t-3.5 62.5q0 94 5.5 183.5t11.5 176.5t10 172t1 169q-2 24 -12 45.5t-27.5 37.5t-41.5 24.5t-52 5.5t-54.5 -16
t-52 -39t-51 -67t-51.5 -102q-11 -27 -23 -60q-11 -29 -24 -67.5t-26 -85.5l-25 -403l-160 -125q16 193 31.5 377.5t27.5 363t19.5 353t7.5 348.5q0 62 -2.5 114t-7 91.5t-11.5 65.5t-17 36q-15 10 -35 10q-17 0 -42.5 -9.5t-60.5 -39.5q21 18 52 48t65 58.5t68 49t61 20.5
q29 0 52 -23t28 -77z" />
    <glyph glyph-name="i" unicode="i" horiz-adv-x="528" 
d="M571 311l-22 -82q-17 -17 -41.5 -42.5t-54 -54t-61.5 -56.5t-63 -50t-59.5 -34.5t-50.5 -9.5q-34 5 -48.5 49.5t-14.5 144.5q0 18 1.5 58.5t4 94.5t6 118.5t7.5 130t8.5 129t9.5 116.5q3 35 -14 50.5t-42 15.5q-21 0 -44 -10t-42 -27q40 39 71 65.5t53 43.5q26 19 44 32
q25 15 48.5 15.5t42 -11.5t29 -35t9.5 -55q-1 -22 -4.5 -70.5t-8 -110.5t-10 -131t-10 -133t-8 -116t-4.5 -80q-2 -57 12.5 -92t46.5 -35q24 0 55.5 21t62.5 49t55.5 57t35.5 45zM401 1786q2 -49 -2.5 -87.5t-10.5 -65.5q-7 -32 -17 -56q-12 -24 -37 -52
q-21 -24 -57.5 -55.5t-94.5 -66.5q19 38 30 80.5t17 78.5q7 42 9 83z" />
    <glyph glyph-name="j" unicode="j" horiz-adv-x="463" 
d="M354 1804q1 -49 -3.5 -87.5t-10.5 -65.5q-7 -32 -16 -56q-12 -23 -37 -51q-21 -24 -58 -56t-96 -67q20 38 31 81t17 79q7 42 9 82zM342 926q-1 -17 -3.5 -72t-6 -136t-9 -179.5t-12 -201t-14 -202.5t-16 -183t-18 -142.5t-19.5 -81.5q-20 -44 -50.5 -87t-67 -82.5
t-77 -75t-82.5 -63.5q-41 -28 -85 -50t-87 -37t-84.5 -21.5t-77.5 -3.5q-35 3 -66 12.5t-51 23.5t-25 32t11 38q14 16 35 38q18 19 47 45.5t72 60.5q-9 -17 -9.5 -31.5t2.5 -25.5q4 -12 11 -23q6 -8 21 -14.5t36 -11t46.5 -7t52.5 -2.5q130 0 210 66.5t93 191.5q3 28 7 88.5
t8.5 141t10 174t11 189.5t10.5 187t9 165.5t7 126.5t4 69q3 35 -13.5 50t-41.5 15q-23 0 -48.5 -11.5t-43.5 -31.5q42 42 74 70.5t55 45.5q26 20 45 32q25 15 48.5 15.5t42 -11.5t29 -35t9.5 -55z" />
    <glyph glyph-name="k" unicode="k" horiz-adv-x="952" 
d="M334 1735q2 -19 2 -50v-73q0 -71 -2 -165.5t-5.5 -201t-9 -218t-12.5 -216.5l-10 -133q19 35 36 61.5t31 45.5q16 22 29 38q37 40 78 78.5t82.5 69t82.5 49t77 18.5q29 0 52 -14t38.5 -36t24 -48.5t8.5 -50.5q0 -66 -31.5 -123.5t-79 -106.5t-102.5 -88t-103 -67
q31 -42 60 -82.5t52 -72.5q26 -38 50 -73q24 -32 44 -61.5t40 -51.5t40.5 -35t45.5 -13q15 0 32.5 5t37.5 19q-26 -24 -54.5 -52t-58 -51t-59.5 -38.5t-60 -15.5q-32 0 -59.5 17.5t-42.5 43.5q-8 12 -24.5 42.5t-38 69t-46 81.5t-49 81t-46.5 66.5t-38 38.5q58 37 113 74
t98 80t69.5 93.5t26.5 114.5q0 51 -21.5 84t-66.5 31q-63 -3 -105 -49.5t-73 -120.5q-11 -27 -27 -77q-14 -43 -35.5 -114t-50.5 -180l-16 -284l-160 -125q16 193 31.5 377.5t27.5 363t19.5 353t7.5 348.5q0 62 -2.5 114t-7 91.5t-12 65.5t-17.5 36q-14 10 -34 10
q-17 0 -42.5 -9.5t-60.5 -39.5q21 18 51.5 48t65 58.5t68.5 49t61 20.5q29 0 52 -23t28 -77zM926 141q-2 -2 -4 -2q2 0 4 2z" />
    <glyph glyph-name="l" unicode="l" horiz-adv-x="563" 
d="M588 262q-20 -26 -44.5 -57.5t-52.5 -64.5t-59 -63.5t-64.5 -54t-68.5 -36.5t-70 -11q-30 3 -49 27.5t-30 63t-14 88.5t-1 104q1 27 5 95.5t9.5 162.5t12 206t12.5 227t12 225.5t10.5 200.5t7.5 152.5t3 82.5q0 54 -8.5 84t-42.5 30q-33 0 -97 -30q44 38 76 65t53 44
q25 19 41 32q30 25 66 25q31 0 53.5 -23t18.5 -72q-1 -19 -4.5 -81.5t-7.5 -154t-9.5 -204t-10.5 -232t-10.5 -238t-9.5 -220.5t-6.5 -181t-3.5 -120q-1 -56 6 -96t19 -65t29 -36.5t36 -11.5q23 0 46 14t44 36t40 50t35 56t27.5 53t18.5 41z" />
    <glyph glyph-name="m" unicode="m" horiz-adv-x="1524" 
d="M817 117l-166 -146q19 206 30 345t17 223q7 99 9 155q4 65 -4 105.5t-24.5 63t-38 30.5t-42.5 8q-22 0 -39.5 -8t-33.5 -24.5t-32 -41t-34 -57.5q-15 -29 -33 -75q-15 -39 -35 -100t-43 -149v-18q-2 -48 -6 -102q-3 -46 -7 -104t-9 -118l-158 -139q11 243 19.5 401.5
t13.5 250.5q6 108 10 165q3 67 -18 95t-52 28q-24 0 -51.5 -15t-52.5 -38q25 28 55.5 60t64.5 59t69.5 45t70.5 18q22 0 37.5 -11.5t23.5 -37.5q7 -18 9 -53t2 -80q0 -29 -1 -62t-3 -67q21 35 41 64t36 49q18 24 35 43q41 43 85.5 78.5t87 57t80.5 26.5t67 -13
q20 -12 34 -28t22.5 -38t12.5 -52.5t4 -71.5v-61.5t-2 -61.5q23 33 43.5 61t37.5 49q19 25 36 45q38 43 78.5 76t79 54t71.5 29.5t56 2.5q47 -12 63.5 -69.5t16.5 -155.5q0 -75 -5 -147t-10.5 -141.5t-10.5 -138t-5 -136.5q0 -47 7.5 -74.5t29.5 -32.5q22 -2 49 12
q23 12 55 41.5t70 88.5l-8 -62q-27 -30 -62.5 -72t-74 -79.5t-78 -62.5t-74.5 -21q-38 5 -62 43.5t-24 121.5q0 84 6.5 166.5t13 164t11.5 163t2 162.5q-2 48 -24.5 69t-51.5 21q-38 0 -70 -29q-15 -15 -36 -43.5t-44.5 -74.5t-49 -110.5t-50.5 -150.5q-8 -94 -18.5 -185.5
t-18.5 -182.5z" />
    <glyph glyph-name="n" unicode="n" horiz-adv-x="1098" 
d="M358 985q7 -18 9 -53t2 -80q0 -32 -1 -68t-3 -73q29 42 63 86.5t71.5 85t78.5 74.5t84.5 55.5t89 28t92.5 -8.5q26 -8 42.5 -24t26.5 -39.5t13.5 -53.5t3.5 -65q0 -78 -6 -154t-13.5 -150.5t-13.5 -148.5t-6 -147q0 -50 8.5 -79t30.5 -34q22 1 49 19q23 14 55 46t70 91
l-8 -76q-27 -30 -62.5 -72t-74 -79.5t-78 -62.5t-74.5 -21q-38 5 -62 43.5t-24 121.5q0 41 3 96.5t8 116.5t10.5 124t11 120t10 104.5t6.5 77.5t-5.5 54.5t-23 42.5t-36.5 27.5t-46 9.5q-27 0 -57 -13.5t-61 -42.5q-15 -15 -36.5 -41.5t-46.5 -69t-52.5 -101.5t-53.5 -138
q-2 -23 -3 -45t-1 -41q-2 -48 -6 -102q-3 -46 -7 -104t-9 -118l-158 -139q11 243 19.5 401.5t13.5 250.5q6 108 10 165q3 67 -18 95t-52 28q-24 0 -51.5 -15t-52.5 -38q25 28 55.5 60t64.5 59t69.5 45t70.5 18q22 0 37.5 -11.5t23.5 -37.5z" />
    <glyph glyph-name="o" unicode="o" 
d="M774 770q3 -78 -5 -153t-23.5 -140.5t-38 -119t-48.5 -87.5q-17 -23 -47.5 -53.5t-68.5 -63t-81 -64.5t-85 -56.5t-80.5 -40t-67.5 -15.5q-34 0 -59 17.5t-43 46t-30 64t-19 71t-9.5 68t-2.5 55.5q0 88 16 174.5t49.5 164.5t84.5 144.5t122 114.5q46 31 83 56.5t68 42.5
t56.5 26.5t48.5 9.5q22 0 51.5 -12t57 -41.5t47.5 -80t24 -128.5zM616 604q0 42 -6 96t-24 101t-50.5 79.5t-86.5 32.5q-22 0 -45.5 -9.5t-43.5 -29.5q-40 -40 -64.5 -91.5t-38.5 -108.5t-19 -115t-5 -110q0 -27 1 -62.5t6 -73t14.5 -74.5t26 -65.5t41.5 -46.5t61 -18
q48 0 84 27.5t62 71.5t42.5 99t26.5 110t14 104.5t4 82.5z" />
    <glyph glyph-name="p" unicode="p" horiz-adv-x="1001" 
d="M500 -520q-37 -38 -67.5 -65.5t-53.5 -44.5q-26 -20 -49 -34q-27 -17 -55 -25.5t-52 -10.5t-41.5 3t-23.5 15q-7 9 -7 51.5t4 105t9.5 138.5t9.5 154l10 221q-26 0 -50 1t-46 1t-37.5 -0.5t-23.5 -3.5q48 34 85.5 66t77.5 52q3 76 6.5 156t7 156.5t6 146t5 124t3.5 91
t1 47.5q0 31 -21.5 53.5t-56.5 22.5q-17 0 -37 -6.5t-43 -20.5q28 26 57.5 54t60 50.5t62 37t64.5 14.5q31 0 51.5 -20t20.5 -68q0 -25 -2.5 -103.5t-7.5 -191.5q20 49 36.5 82.5t27.5 54.5q13 25 22 39q31 45 68 85t75 71t76 51.5t73 26.5q36 5 70 -8.5t61 -47.5t45 -88.5
t21 -130.5q2 -85 -18 -173.5t-58.5 -173t-93.5 -160.5t-123 -135.5t-147 -99t-164 -50.5l-23 -531q8 -4 19 -8q9 -3 21.5 -5.5t29.5 -2.5q23 0 53 7.5t62 29.5zM436 123q29 0 57 1.5t52.5 5t44.5 10t33 16.5q20 15 48 50t53.5 88.5t43.5 125.5t18 162q0 28 -2.5 67t-9.5 80
t-20 79.5t-33.5 66t-49.5 39.5t-69 -1q-21 -7 -46 -32.5t-51.5 -76.5t-53 -130.5t-48.5 -194.5q-7 -29 -16 -65q-8 -31 -17.5 -72.5t-19.5 -89.5l-6 -127q23 0 46 -1t46 -1z" />
    <glyph glyph-name="q" unicode="q" horiz-adv-x="938" 
d="M967 -463q-23 -39 -57 -76.5t-74.5 -67t-85 -47.5t-88.5 -18q-36 0 -53 21t-19 61q-4 67 -2.5 171.5t7 232t14.5 272.5t20 295q-19 -28 -35.5 -52t-29.5 -41q-15 -21 -29 -38q-53 -66 -102.5 -116t-91 -83.5t-73 -51.5t-49.5 -19q-18 -3 -43.5 10.5t-48.5 53t-39.5 112
t-15.5 188.5q1 115 24.5 202.5t61 153t83.5 113t91 82.5q93 71 178.5 113t167.5 45q25 1 50 -2q21 -2 44.5 -7t42.5 -14l29 23q-13 -106 -25.5 -225t-23.5 -244t-20.5 -253.5t-16 -252.5t-10 -240t-3.5 -217q0 -59 5.5 -98t19.5 -53q17 -14 44 -13q23 1 60.5 17t92.5 63z
M524 911q-63 0 -109.5 -21.5t-80 -58t-54.5 -84t-33.5 -100t-17 -105.5t-4.5 -100q0 -17 2 -45.5t7.5 -62t14 -67.5t22 -61.5t31.5 -45t42 -17.5q26 0 63.5 28.5t90.5 96.5q24 33 50 80q22 40 47.5 97.5t49.5 134.5q6 83 13.5 162.5t15.5 156.5q-93 12 -150 12z" />
    <glyph glyph-name="r" unicode="r" horiz-adv-x="799" 
d="M369 555q-5 -57 -9 -128q-4 -61 -9 -144.5t-11 -184.5l-168 -143q22 204 38.5 389t16.5 365q0 91 -25 134.5t-67 43.5q-44 0 -102 -45q13 12 31.5 30.5t40 39.5t45 42t46 38t43.5 27.5t37 10.5q39 0 60 -22t31 -54t12 -67t2 -60v-47q53 88 125.5 155t169.5 95
q21 6 41 3.5t40 -8t42.5 -11.5t48.5 -6q20 0 42 5t50 17l-57 -57t-55.5 -50.5t-54 -38t-50.5 -18.5q-26 -3 -49.5 3.5t-48 14t-51.5 11t-58 -5.5q-21 -7 -41.5 -38.5t-40 -78t-36 -103t-29.5 -112.5v-2z" />
    <glyph glyph-name="s" unicode="s" horiz-adv-x="647" 
d="M594 997q-5 -12 -23 -30q-15 -16 -44.5 -41.5t-82.5 -63.5q1 17 -4.5 28.5t-13.5 17.5q-9 7 -20 10q-64 12 -101 0q-9 -4 -13.5 -19.5t-4.5 -38.5q0 -55 20.5 -98.5t51.5 -81t67 -71.5t67 -69.5t51.5 -74.5t20.5 -86q0 -40 -16.5 -82.5t-50.5 -77.5q-29 -30 -62.5 -62
t-69 -61t-72.5 -53t-73 -39q-61 -22 -117 -22q-38 0 -66 11t-34 34q-5 18 11 44.5t40 53t50.5 50t41.5 36.5q-2 -48 22.5 -68.5t78.5 -23.5q27 -2 57 3.5t55.5 17t42 29.5t15.5 42q-2 56 -23.5 102.5t-53 88t-67 81t-66 80.5t-51 87t-20.5 100q0 23 5 44t18 40q23 34 63 71
t85 68t89 52.5t76 25.5q31 4 55.5 0.5t40.5 -11.5t22.5 -19.5t2.5 -23.5z" />
    <glyph glyph-name="t" unicode="t" horiz-adv-x="678" 
d="M672 332l-21 -103q-23 -19 -53.5 -47.5t-66 -59.5t-73.5 -60.5t-76 -50t-74.5 -29t-67.5 3.5q-20 7 -34.5 21t-24 40t-14.5 66.5t-5 99.5q0 178 7.5 345.5t18.5 332.5q-42 -3 -82.5 -10.5t-62.5 -24.5q63 56 99 103.5t55 84.5l12 183l172 143l-21 -358q22 -2 41 -2h37
q87 0 161.5 15.5t143.5 41.5q-64 -51 -122.5 -83t-108.5 -51.5t-91 -28t-69 -11.5q-10 -180 -15.5 -291.5t-8.5 -172.5q-4 -72 -4 -105q-3 -49 6 -87t27.5 -63t45 -35t58.5 -2q25 8 58 32q28 20 66.5 58.5t86.5 104.5zM43 856l-6 -4z" />
    <glyph glyph-name="u" unicode="u" horiz-adv-x="1114" 
d="M1176 258q-48 -42 -79 -70.5t-51 -45.5q-23 -20 -36 -33q-15 -15 -40.5 -37.5t-55 -43.5t-60 -35.5t-55.5 -12.5q-41 2 -59.5 72.5t-18.5 191.5v96q-35 -47 -66.5 -84.5t-55.5 -63.5q-28 -31 -52 -55q-50 -49 -93 -81.5t-79 -50.5t-64 -23.5t-49 -1.5q-20 4 -37 19
t-29 47t-18.5 83.5t-5.5 128.5t4.5 153.5t7 145.5t8 126.5t7.5 96.5q3 50 -10.5 80.5t-47.5 30.5q-20 0 -45 -11.5t-57 -37.5q24 23 56 55.5t67.5 62.5t71.5 51t67 21q24 0 36.5 -12.5t18 -30.5t6 -38.5t0.5 -35.5q0 -72 -5 -142.5t-11 -140t-11 -138.5t-5 -138
q0 -48 4.5 -92.5t16.5 -77.5t32.5 -51.5t52.5 -15.5q42 4 83.5 35t78.5 80.5t67 112.5t48 130q2 8 5 19q2 9 5.5 20t7.5 25q6 97 16.5 191t24.5 188l195 139q-37 -183 -58.5 -351t-21.5 -335q0 -79 7.5 -128t21 -75t32.5 -32t41 1q20 9 47 34q23 21 58 61t82 108v-84z
M39 842l-6 -4z" />
    <glyph glyph-name="v" unicode="v" horiz-adv-x="909" 
d="M481 121l-137 -191q2 135 -12.5 253.5t-32.5 208.5q-21 105 -49 192q-27 78 -49 131.5t-41.5 86t-37.5 46.5t-36 14q-15 0 -31 -8.5t-35 -22.5q15 22 39.5 55t54 63t61.5 51.5t61 21.5q20 0 37 -13t32 -44q15 -33 41 -106.5t52.5 -175.5t48.5 -226.5t30 -259.5
q46 70 94 146.5t87.5 154t64.5 152.5t25 141q0 35 -9 70.5t-32 64.5l170 131q18 -50 18 -105q0 -68 -21.5 -140.5t-56.5 -146.5t-79.5 -147.5t-90.5 -143t-89.5 -134t-76.5 -119.5z" />
    <glyph glyph-name="w" unicode="w" horiz-adv-x="1405" 
d="M977 121l-137 -191q2 16 2 32v32q0 48 -4 99.5t-11 102t-15 99t-17 91.5q-21 101 -47 198q-2 8 -6 19q-3 10 -6.5 23.5t-8.5 32.5q-42 -68 -89.5 -133t-91 -130.5t-77.5 -133.5t-49 -141l-135 -191q-6 129 -17 245.5t-22 207.5q-13 106 -27 197q-9 89 -21.5 147.5
t-27.5 93.5t-32 49.5t-36 14.5q-20 0 -42 -13t-44 -30q16 19 42.5 50.5t56.5 61.5t60 52t54 22q22 0 43 -16.5t39 -55.5q15 -31 31.5 -94t31.5 -153t26 -203.5t16 -243.5q40 84 87 161t87.5 155.5t67 163.5t24.5 184l172 131q-5 -66 2 -131.5t21 -132.5t31.5 -136t33 -142
t26 -151t11.5 -161q28 43 59.5 92t61.5 101t57.5 104t48 100.5t33 92t12.5 77.5q0 37 -9.5 66.5t-24 49t-32 29t-32.5 7.5l186 135q28 -23 41 -56t13 -71q0 -56 -23 -125t-60 -143.5t-83 -150.5t-92 -147.5t-88 -134t-70 -108.5z" />
    <glyph glyph-name="x" unicode="x" horiz-adv-x="999" 
d="M1047 1024q7 -2 4.5 -14.5t-12 -31t-25.5 -40t-36.5 -42t-44 -37t-48.5 -23.5q11 22 9 36.5t-9 22.5q-8 10 -21 14q-38 11 -77.5 1.5t-67.5 -52.5l-156 -260q27 -86 60 -171t72 -153t85.5 -110.5t100.5 -42.5q20 0 43.5 9.5t48.5 31.5q-56 -59 -103 -93.5t-81 -52.5
q-40 -21 -72 -28q-49 16 -88.5 55.5t-72 95t-59.5 122.5t-51 138q-20 -34 -48.5 -72t-61.5 -75.5t-68 -72t-67 -60.5q21 -2 39.5 -3t35.5 -1q62 0 94 8t36 10q-57 -45 -97 -74.5t-74.5 -46.5t-68 -23.5t-78.5 -6.5q-50 0 -123 6l148 147q11 -3 22.5 -5.5t22.5 -4.5
q22 17 42 40.5t36 43.5q18 24 34 49q23 38 60 103t84 141q-16 53 -32 104t-32.5 97.5t-34 86t-36.5 68.5q-17 25 -39.5 36t-46.5 11q-39 0 -75 -20.5t-59 -44.5q24 32 53.5 67.5t64 65t72.5 48.5t79 19q37 0 69.5 -23t57.5 -77q15 -37 35 -103.5t45 -148.5q52 74 103 136
t99 100q59 43 109 66t89 32t67.5 7.5t44.5 -5.5z" />
    <glyph glyph-name="y" unicode="y" horiz-adv-x="1053" 
d="M948 1020q-15 -147 -28 -287.5t-22.5 -278t-15 -273.5t-5.5 -273q0 -76 -3 -135t-14 -90q-18 -56 -59 -110.5t-96.5 -103.5t-121 -90.5t-133.5 -71t-134 -45.5t-121 -14q-47 1 -87 14.5t-64.5 34.5t-30.5 46.5t16 48.5q17 17 43 38q22 17 54 41t77 50q-19 -20 -21 -37
t3 -29q5 -14 18 -26q25 -19 76.5 -35.5t113.5 -16.5q77 0 134.5 24.5t97.5 67.5t61.5 102t26.5 128q6 75 7 162t1 180v133t2 127q-17 -22 -32 -39.5t-27 -30.5q-14 -15 -27 -28q-125 -118 -216 -175t-159 -46q-56 11 -81 72t-25 157q0 44 2.5 98.5t6.5 112.5t8.5 116t9 110
t8 94t4.5 69q2 42 -13.5 64t-44.5 22q-37 0 -102 -41q24 22 54 49t62.5 51t66.5 40t67 16q32 0 51.5 -26.5t19.5 -86.5q0 -31 -2 -80t-5.5 -106.5t-8 -119t-8 -119.5t-6.5 -107.5t-4 -81.5q-1 -37 6.5 -68.5t22 -54.5t35 -36t44.5 -13q31 0 64 20q30 20 61 49.5t61.5 71
t59.5 96t55 123.5q6 115 17 220t26 210z" />
    <glyph glyph-name="z" unicode="z" horiz-adv-x="813" 
d="M811 1053q-37 -27 -73.5 -59.5t-67 -64.5t-53.5 -62t-33 -52q-13 -29 -41.5 -83.5t-63.5 -119.5h64q46 0 91 6.5t79 28.5q-56 -38 -100 -65.5t-79 -46t-64 -28.5t-56 -13l-17 -27q-27 -48 -60.5 -98.5t-68 -94.5t-67 -79.5t-56.5 -53.5q48 -3 104.5 -11.5t112.5 -17
t107 -13.5t88 -1q29 5 61 18q27 11 61.5 31t70.5 54l57 16q-53 -48 -108 -91.5t-113 -75.5t-119 -51t-125 -19q-53 0 -105 5t-103.5 11.5t-102 14t-99.5 12.5q52 28 89.5 58t62.5 54q29 28 49 55q50 75 92 151.5t84 154.5q-15 0 -29 1t-26 1q-41 0 -68 -13q67 64 114 90.5
t69 32.5q45 81 92.5 155.5t107.5 143.5q-13 -2 -25 -2t-22 1q-11 1 -22 3q-34 6 -70.5 14t-71 16t-64.5 13.5t-50 5.5q-16 -1 -40 -11q-20 -8 -50 -25.5t-70 -49.5q39 45 75 85t75 70.5t82.5 48.5t97.5 18q51 0 101 -10t99 -20t98 -15t99 4z" />
    <glyph glyph-name="braceleft" unicode="{" horiz-adv-x="729" 
d="M786 1704q-5 0 -16.5 -13.5t-26.5 -34t-31.5 -44.5t-31.5 -45t-26.5 -35t-16.5 -14q-65 0 -109 -17t-73 -50t-46 -82.5t-28 -113.5q-12 -75 -18 -136.5t-12 -110.5t-16 -87t-30.5 -66t-55 -47.5t-89.5 -31.5q47 -14 79.5 -30.5t52.5 -39.5t29 -54.5t9 -76.5
q0 -44 -5.5 -85.5t-12 -82t-12 -81t-5.5 -80.5q0 -96 32.5 -160t86.5 -102t123.5 -52.5t142.5 -11.5q-35 -45 -65 -80q-13 -15 -26 -29.5t-25 -26.5t-21.5 -19.5t-14.5 -8.5q-42 -8 -97.5 5t-106 49t-85 96t-34.5 145q0 48 7 94t15.5 92t15.5 92t7 93q0 44 -17.5 79
t-49.5 63t-77.5 49t-101.5 36l107 176q35 1 65 24q13 10 25.5 25t23.5 37.5t19 53t12 71.5q13 137 44 258.5t87.5 213t142 145t207.5 53.5h25t24 -2z" />
    <glyph glyph-name="bar" unicode="|" horiz-adv-x="487" 
d="M387 1761q-7 -87 -13 -156t-10.5 -123t-7.5 -94t-6 -69q-6 -68 -10 -96q-7 -93 -17.5 -207.5t-22.5 -239t-25 -252.5t-26 -248q-30 -281 -63 -577q-8 6 -15 11q-6 4 -11 7.5t-6 3.5q0 53 0.5 120.5t2 141t2.5 150t3 147.5q4 167 8 345q4 209 7.5 373.5t5.5 280t3 179
t0 70.5q-2 20 15 38.5t46 43.5t65.5 61t74.5 90z" />
    <glyph glyph-name="braceright" unicode="}" horiz-adv-x="725" 
d="M-59 -266q5 -1 16.5 13t26.5 34.5t31.5 44.5t31.5 45t26.5 35t16.5 14q65 0 109 16.5t73 49.5t46 82t28 114q12 75 18 136.5t12 110.5t16 87t30.5 66t55 47.5t89.5 32.5q-47 13 -79.5 29.5t-52.5 39.5t-29 54.5t-9 76.5q0 44 5.5 85.5t12 82.5t12 81t5.5 81
q0 96 -32.5 160t-86.5 102t-123.5 52.5t-142.5 11.5q35 44 65 79q13 15 26 29.5t24.5 26.5t21 19.5t15.5 8.5q42 9 97.5 -4t106 -49t85 -96.5t34.5 -145.5q0 -47 -7 -93.5t-15.5 -92t-15.5 -91.5t-7 -93q0 -44 17.5 -79.5t49.5 -63t77.5 -49t101.5 -36.5l-107 -176
q-35 -1 -65 -24q-26 -20 -49 -63t-31 -124q-9 -91 -25.5 -176t-42.5 -159.5t-63.5 -135.5t-88 -105t-115.5 -68.5t-146 -24.5h-25t-24 2z" />
    <glyph glyph-name="asciitilde" unicode="~" horiz-adv-x="952" 
d="M831 971q-16 -59 -38 -112t-52.5 -94t-71.5 -65t-96 -24q-36 0 -71 17.5t-67.5 39t-60.5 40.5t-50 22q-21 4 -43 -7q-20 -9 -43.5 -34.5t-49.5 -77.5l-53 -37q15 37 39.5 86t61.5 92t88.5 73t121.5 30q33 0 66.5 -16t64 -34.5t58.5 -34.5t51 -16q9 0 23.5 8.5t28.5 22
t25 30.5t15 35z" />
    <glyph glyph-name="nonbreakingspace" unicode="&#xa0;" horiz-adv-x="512" 
 />
    <glyph glyph-name="exclamdown" unicode="&#xa1;" horiz-adv-x="483" 
d="M309 821q-1 -17 -2.5 -65t-3.5 -116.5t-4.5 -151t-5 -167.5t-5 -167.5t-5 -150t-4.5 -115.5t-3 -64q0 -23 11 -41q10 -15 33 -26t69 -7q-34 -21 -72 -50t-73 -54.5t-63 -43.5t-40 -18q-26 0 -42.5 14t-14.5 42q0 12 7 69t18.5 142t26 189t29.5 211t30 208t27 179.5
t20 126t10 46.5zM121 979q32 22 62.5 43t56.5 37.5t46.5 26.5t32.5 10q10 -2 27 -11q14 -8 37.5 -24.5t58.5 -48.5l-159 -111q-37 32 -66.5 47.5t-50.5 22.5q-25 8 -45 8z" />
    <glyph glyph-name="cent" unicode="&#xa2;" horiz-adv-x="870" 
d="M768 1169q-9 -11 -29 -29q-17 -15 -47 -38t-78 -55q12 11 13.5 20t-2.5 16q-4 8 -13 15q-15 9 -50.5 14.5t-76.5 5.5q-34 0 -64 -4.5t-48 -15.5t-38.5 -53t-37.5 -102t-28 -131.5t-11 -141.5q0 -33 3.5 -72t11.5 -77.5t22 -74.5t34.5 -62.5t49 -41.5t65.5 -12q25 4 55 21
q26 14 59 43.5t71 82.5l84 25q-53 -60 -95.5 -102.5t-71.5 -69.5q-35 -32 -61 -51q-24 -17 -46 -32t-44 -26q-17 -111 -30.5 -205.5t-24.5 -165.5q-12 -83 -23 -151q-5 6 -9 11q-4 4 -7 7.5t-4 3.5l45 476q-41 -17 -84 -11q-24 3 -52 27.5t-52 69t-40 107.5t-16 142
q0 86 16.5 174.5t50 170t84.5 151t120 117.5q17 12 36 23t39 20l31 340q1 20 12.5 38.5t30.5 43.5t43.5 61t50.5 90q-11 -87 -20 -156t-16.5 -123t-13 -94t-9.5 -69q-10 -68 -14 -96v-2q40 12 78 17t67 3q60 -3 81.5 -23t2.5 -49z" />
    <glyph glyph-name="sterling" unicode="&#xa3;" horiz-adv-x="1128" 
d="M768 758q-55 -45 -106.5 -75t-97 -49.5t-84.5 -30t-70 -15.5q-1 -68 -2 -120.5t-2 -88.5q-2 -42 -3 -74q-1 -37 -8 -71q-6 -29 -19 -61.5t-36 -55.5q60 -2 112.5 -2h100.5q138 0 227 4t141.5 9.5t74.5 10t26 6.5q-53 -36 -88 -62t-62.5 -42.5t-54 -24.5t-61.5 -8h-154
q-65 0 -141 -0.5t-145 -2t-123.5 -5t-77.5 -8.5q28 24 51 52t39.5 69t25.5 98.5t9 138.5v232q-23 0 -48 -2t-48.5 -6t-43 -10.5t-32.5 -16.5q81 71 119.5 130.5t52.5 96.5q3 106 18 186.5t43.5 142t70.5 107.5t99 84q61 41 107.5 70.5t86 48.5t75.5 28t77 9q51 1 95 -4.5
t72.5 -16.5t37 -27.5t-9.5 -37.5q-14 -17 -37 -36q-20 -17 -49.5 -38t-71.5 -45q8 12 9.5 21.5t-0.5 15.5q-3 7 -9 12q-7 6 -18.5 13t-28.5 14t-41 11.5t-55 4.5q-69 0 -124.5 -23t-94.5 -64t-59.5 -96.5t-20.5 -119.5v-178.5t-2 -155.5h53q87 0 161.5 16t143.5 42zM68 547
l-7 -4zM1022 145v1q1 1 2 1z" />
    <glyph glyph-name="currency" unicode="&#xa4;" horiz-adv-x="662" 
d="M254 852q-12 -94 22.5 -143.5t102.5 -49.5q12 0 25.5 3t27.5 6q15 51 3 89.5t-40 62t-66 32t-75 0.5zM629 1069q-19 -29 -54 -74t-83 -98q17 -22 26.5 -50t9.5 -59q0 -26 -6.5 -50t-17.5 -46q21 -21 43 -41t45 -37q-5 1 -21.5 -13.5t-35.5 -32t-35 -31t-21 -9.5
q-20 14 -38 29.5t-35 32.5q-49 -31 -107 -31q-34 0 -63.5 14.5t-49.5 40.5q-70 -51 -145 -92q73 61 129 117q-14 28 -14 74q0 32 10 63.5t27 59.5q-23 31 -46 62.5t-43 62.5q33 24 59 43q11 8 21.5 15.5t18.5 13.5t13 10l5 4q19 -28 38.5 -57t41.5 -58q20 9 41 14.5t43 5.5
q12 0 25.5 -3t25.5 -9l4 8q9 14 30 25.5t48 25t56 30t55 40.5z" />
    <glyph glyph-name="yen" unicode="&#xa5;" horiz-adv-x="1479" 
d="M1120 688q-91 -72 -169 -108t-140 -52q0 -31 -1 -55t-1 -49q43 0 66 3q13 1 24 3q26 4 58 11q27 6 62 15.5t75 24.5q-84 -66 -156.5 -101t-132.5 -52q-1 -53 -1.5 -86t-0.5 -52v-32q0 -12 -3 -24q-2 -11 -8 -22.5t-16 -19.5q20 -2 38.5 -2h35.5q59 0 100 3t67 8
q31 5 50 12q-55 -36 -106.5 -59.5t-108.5 -37t-124 -19t-153 -5.5q17 14 28 27.5t17 31t8.5 41.5t4.5 58q-1 11 0 32q0 18 1 47.5t3 75.5q-14 1 -43 1t-63.5 -2t-68 -8t-56.5 -17q52 35 92 68t69 61t48 49t28 32q0 7 1 12t1 11q-20 1 -50.5 0.5t-63.5 -3.5t-63 -10t-48 -20
q43 37 74.5 66.5t54 52t37 39t22.5 27.5q-97 169 -166 286.5t-116 194.5t-74.5 120t-40.5 62q-29 -3 -69.5 -8.5t-88.5 -13.5q54 50 97.5 76t74.5 38q36 14 64 15q35 -1 77 1t82 6.5t72.5 10t48.5 12.5q-43 -34 -79 -56t-70 -38l377 -625q78 127 131.5 225.5t88 171
t52.5 119.5t25 70q-29 -2 -81 -5.5t-120 -12.5q55 48 99 73t76 36q37 13 65 14q14 -2 29 -2h32q32 0 65.5 1.5t63.5 4.5t54 7t38 9q-63 -46 -111.5 -71t-93.5 -37q-57 -130 -116.5 -238t-113 -192t-97 -143t-68.5 -91v-53q53 0 82 3q17 1 29 3q26 4 58 11q26 6 61.5 15.5
t74.5 24.5z" />
    <glyph glyph-name="brokenbar" unicode="&#xa6;" horiz-adv-x="485" 
d="M285 662l-18 -176t-18 -172t-17.5 -162.5t-15.5 -146.5q-18 -160 -34 -306q-8 6 -15 11q-6 4 -11 7.5t-6 3.5q0 65 1 150t2.5 176t3.5 182t4 168t3 133.5t2 79.5q31 2 61 16t58 36zM172 805q3 159 5 289.5t3.5 224.5t2 148.5t-0.5 60.5q-2 20 15 38.5t46 43.5t65.5 61
t74.5 90q-7 -87 -13 -156t-10.5 -123t-7.5 -94t-6 -69q-6 -68 -10 -96l-31 -355q-65 -51 -133 -63z" />
    <glyph glyph-name="section" unicode="&#xa7;" horiz-adv-x="1182" 
d="M240 1176q0 46 17 90t47 85.5t70.5 78.5t88.5 69q61 41 109.5 70t92.5 48t88.5 28t96.5 10q51 1 98 -4.5t79 -16.5t44 -27.5t-6 -37.5q-14 -17 -37 -36q-20 -17 -49.5 -38.5t-71.5 -44.5q8 12 9.5 21.5t-0.5 15.5q-3 7 -9 12q-7 5 -24.5 12.5t-43 14t-58.5 11.5t-70 5
q-61 0 -116.5 -14.5t-98 -44.5t-68 -76t-25.5 -109q0 -68 28.5 -118.5t75 -90.5t106 -71.5t121.5 -61t121.5 -60.5t106 -69t75 -86.5t28.5 -113.5q0 -36 -11.5 -67t-32.5 -60t-49.5 -56t-62.5 -55q34 -34 54 -76t20 -96q0 -46 -19 -85t-52 -75t-77.5 -71t-95.5 -72
q-102 -75 -191.5 -115t-172.5 -43q-41 -2 -88 7t-90 22.5t-76 29t-45 27.5q-7 8 -12 18t-4.5 21t7 23.5t21.5 25.5q14 11 35 28q18 14 46 36.5t69 54.5q-15 -15 -19 -28t-3 -24q1 -12 7 -22q10 -13 35 -28.5t61 -29t80 -23t93 -9.5q48 0 90.5 6.5t76.5 17.5t59 25t40 29
q8 8 18.5 23t19.5 35t15 44.5t6 51.5q0 61 -28.5 107.5t-74.5 83.5t-105.5 68t-121 60.5t-121 61t-105.5 69.5t-74.5 86t-28.5 111q0 71 37.5 136t99.5 122q-26 32 -40.5 69.5t-14.5 84.5zM897 526q0 62 -29 109t-75.5 84t-106.5 68t-122 61t-121.5 61.5t-104.5 71.5
q-2 -2 -2 -6q-6 -19 -10 -40t-4 -46q0 -67 27.5 -117.5t73 -90t104 -71.5t119.5 -61.5t120 -59.5t106 -67q10 22 17.5 47.5t7.5 56.5z" />
    <glyph glyph-name="dieresis" unicode="&#xa8;" horiz-adv-x="643" 
d="M643 1380l-156 -108l-120 114l155 107zM276 1380l-155 -108l-121 114l156 107z" />
    <glyph glyph-name="copyright" unicode="&#xa9;" horiz-adv-x="827" 
d="M545 598q-23 -25 -51 -39t-52 -21q-29 -8 -57 -10q-37 -2 -67.5 10t-52.5 34.5t-34.5 54t-13.5 69.5q0 54 22 98.5t58 76.5t82.5 49.5t95.5 17.5q2 0 21 -2t36.5 -6.5t25 -12.5t-12.5 -20h2q-3 -3 -11 -9q-7 -5 -20 -15t-35 -25l-8 14q10 9 3.5 14.5t-19 8.5t-24.5 3.5
t-13 0.5q-39 0 -66 -14.5t-42.5 -39t-21 -56.5t-1.5 -66q4 -33 17.5 -57t32.5 -40t41.5 -24.5t43.5 -9.5q18 -2 36 1q16 2 35.5 7.5t39.5 19.5zM713 774q-2 -80 -40.5 -145t-96.5 -111.5t-125 -72t-125 -25.5q-53 0 -95.5 23.5t-72.5 62.5t-46 89.5t-14 104.5
q3 81 43.5 146.5t98.5 112.5t123.5 72.5t119.5 25.5q55 0 98 -23.5t72.5 -62.5t45 -90.5t14.5 -106.5zM432 995q-53 0 -98.5 -21t-79 -58t-54 -88t-22.5 -111q-2 -57 15.5 -100.5t48.5 -73.5t72.5 -45t86.5 -15t86.5 18.5t73.5 54t52 87.5t22 119q3 49 -10 91.5t-39.5 74
t-65.5 49.5t-88 18z" />
    <glyph glyph-name="ordfeminine" unicode="&#xaa;" horiz-adv-x="754" 
d="M684 877q-12 -19 -22.5 -33t-18.5 -24q-10 -11 -18 -19q-15 -18 -33.5 -36.5t-37.5 -33t-36.5 -23.5t-32.5 -8q-29 2 -42 33.5t-13 91.5q0 20 1 44.5t3 50.5q-8 -13 -16 -23t-14 -18q-7 -9 -13 -17q-32 -39 -62 -69t-55.5 -50.5t-45 -31t-29.5 -11.5q-12 -1 -29.5 7
t-33.5 32.5t-27 69.5t-11 117q5 105 35 177t79.5 120.5t114 78.5t138.5 50q12 0 26 -1q12 -1 26.5 -3t31.5 -7l41 33q-2 -9 -4 -20t-4 -25q2 0 2 -1t2 -1l-4 -6q-5 -36 -10 -84t-9.5 -99.5t-8 -102t-6 -93t-3.5 -72.5t0 -39q2 -24 11 -32.5t22 -3.5q1 1 11 8.5t25 27
t33.5 52t36.5 82.5v-88zM457 1239q-23 3 -42.5 4.5t-31.5 1.5q-55 0 -89 -25t-52.5 -63t-24.5 -84.5t-6 -89.5q0 -22 2 -45.5t6 -44.5t9.5 -38.5t11.5 -27.5q7 -12 15.5 -19t21 -4t30.5 18.5t43 47.5q14 22 30 51q14 25 30.5 61t33.5 83z" />
    <glyph glyph-name="guillemotleft" unicode="&#xab;" horiz-adv-x="1210" 
d="M635 231l-135 -143q-87 80 -164.5 139.5t-137.5 99.5q-70 47 -130 79q14 26 27 55q11 25 22.5 56t19.5 63q46 12 96.5 37.5t99 58.5t94 71t82 74.5t61.5 68.5t34 54l31 -51q-39 -45 -90 -96t-106 -100t-111 -92.5t-105 -74.5q46 -32 103 -70t114 -78t108.5 -79t86.5 -72z
M1106 231l-135 -143q-87 80 -164.5 139.5t-137.5 99.5q-70 47 -130 79q14 26 27 55q11 25 22.5 56t19.5 63q46 12 96.5 37.5t99 58.5t94 71t82 74.5t61.5 68.5t34 54l31 -51q-39 -45 -90 -96t-106 -100t-111 -92.5t-105 -74.5q46 -32 103 -70t114 -78t108.5 -79t86.5 -72z
" />
    <glyph glyph-name="logicalnot" unicode="&#xac;" horiz-adv-x="1257" 
d="M1159 844q-45 -45 -73 -96.5t-43 -106t-20 -112t-5 -115.5l-193 -138q10 39 18.5 94.5t23 116t39.5 119t67 103.5h-858q5 4 16.5 12t26.5 18.5t32 22t35 23.5q40 27 90 59h844z" />
    <glyph glyph-name="uni00AD" unicode="&#xad;" horiz-adv-x="1016" 
d="M915 612q-12 0 -26.5 -10.5t-32 -26.5t-36.5 -34.5t-39.5 -34.5t-42 -26.5t-42.5 -10.5h-598q17 3 35 15t36 27.5t36.5 33.5t37.5 32.5t37.5 24.5t36.5 10h598z" />
    <glyph glyph-name="registered" unicode="&#xae;" horiz-adv-x="778" 
d="M657 1219q0 -54 -33 -105t-82.5 -90.5t-108.5 -63.5t-111 -24q-48 0 -87.5 18.5t-68 50t-44.5 72t-16 84.5q0 43 17.5 81t45.5 69.5t64.5 56.5t73.5 42.5t72.5 26.5t62.5 9q48 0 88 -19t68 -50.5t43.5 -72.5t15.5 -85zM391 1063q-17 -16 -41.5 -30.5t-52.5 -14.5
q-11 0 -20 6t-9 23q-1 9 0 39q0 26 1 76.5t3 140.5q-8 0 -21.5 0.5t-35.5 3.5q-17 -28 -28 -62t-11 -71q0 -45 18 -80t47 -59t67 -36t79 -12q70 0 123 41q-5 3 -10.5 6.5t-10.5 9.5q-7 6 -25 22q-15 14 -41.5 38t-68.5 63q25 8 40 18.5t23 19.5q10 11 13 22q5 25 -8 48
t-39 34q-18 3 -45 0l-8 -240q6 -3 15 -3t18 2q11 2 22 5zM399 1397q-38 0 -70.5 -9t-49.5 -20q-14 -8 -26.5 -19t-25.5 -26l45 27q25 -3 47 -3q11 0 21 1q5 0 7 1t7 1q10 0 22.5 1t24.5 1q19 0 37.5 -5t32.5 -15t22.5 -25t8.5 -35t-17 -43t-49 -43q51 -47 79 -70t42 -33
q14 26 22.5 57.5t8.5 69.5q0 43 -14.5 77.5t-40 59t-60 37.5t-74.5 13z" />
    <glyph glyph-name="macron" unicode="&#xaf;" horiz-adv-x="711" 
d="M711 1462q-10 -1 -35 -22.5t-54.5 -47t-58 -46.5t-45.5 -21h-518q7 1 20.5 11.5t31.5 26t38 32.5t39.5 32t36.5 25t29 10h516z" />
    <glyph glyph-name="degree" unicode="&#xb0;" horiz-adv-x="549" 
d="M473 1194q0 -45 -20 -86t-52.5 -73t-73.5 -51t-83 -19q-29 0 -55 10.5t-45.5 30.5t-31.5 48.5t-12 63.5q0 45 19.5 88.5t51.5 77t73.5 54t85.5 20.5q28 0 54 -13t46 -35.5t31.5 -52t11.5 -63.5zM199 1257q-13 -94 21.5 -143t103.5 -49q12 0 25.5 2.5t27.5 5.5
q15 51 3 89.5t-40 62.5t-66 32.5t-75 -0.5z" />
    <glyph glyph-name="plusminus" unicode="&#xb1;" horiz-adv-x="1137" 
d="M647 279q-1 -28 -22.5 -56t-47.5 -56t-50 -55.5t-29 -52.5l12 410h-410q17 3 35.5 15t37.5 27.5t38.5 33.5t38.5 32.5t38.5 24.5t37.5 10h190l6 193q1 31 23.5 56.5t49.5 50.5t50.5 50t28.5 54l-15 -404h406q-30 -3 -56 -25.5t-52 -49t-53 -47.5t-58 -21h-193zM784 -145
h-745q17 3 35.5 15t37.5 27.5t38 33.5t38 32.5t38 24.5t38 10h740q-30 -2 -56.5 -25t-52 -49t-53 -47.5t-58.5 -21.5z" />
    <glyph glyph-name="twosuperior" unicode="&#xb2;" horiz-adv-x="586" 
d="M473 813q-8 -14 -23 -31.5t-34 -33t-40.5 -26t-41.5 -11.5q-60 -3 -118.5 0.5t-117.5 1.5q32 55 54 91t36 58q17 26 27 39q34 44 64 84t52.5 76t35 68t12.5 61q0 32 -17 45.5t-45 13.5q-14 0 -23.5 -7t-15 -17.5t-8 -23.5t-2.5 -25q0 -7 4 -17t10 -19t13.5 -16t15.5 -8
q-21 -28 -44.5 -41.5t-45.5 -13.5q-25 0 -41 18t-16 56q0 36 23.5 67.5t58 55.5t73 37.5t68.5 13.5q23 0 40.5 -9.5t29.5 -24.5t18 -34t6 -39q0 -35 -16 -72.5t-45 -74.5q-51 -63 -91.5 -122.5t-80.5 -131.5q94 0 150.5 1.5t74.5 10.5z" />
    <glyph glyph-name="threesuperior" unicode="&#xb3;" horiz-adv-x="598" 
d="M496 1298q-5 -23 -17.5 -43.5t-32 -41.5t-44.5 -45t-54 -54q68 -17 111 -55t43 -103q0 -53 -28 -98t-71 -78t-94.5 -52t-97.5 -19q-50 0 -70 11t-20 28q0 12 8.5 25.5t22 27t31.5 25t36 20.5q-2 -15 -0.5 -29t6.5 -25.5t14 -18.5t21 -7q30 -2 55.5 10t44 32.5t29 47.5
t10.5 57q0 39 -20 66t-50 42t-65 18t-65 -5q17 19 38 40.5t43.5 44t44.5 46t40 47.5q-31 4 -61.5 6.5t-47.5 2.5q-9 0 -25 -1.5t-33 -4.5t-32 -7t-23 -8q12 27 30.5 45.5t40.5 30.5t46 17t47 5q56 0 100.5 -1.5t88.5 1.5z" />
    <glyph glyph-name="acute" unicode="&#xb4;" horiz-adv-x="516" 
d="M518 1681q-27 -36 -52 -69q-21 -28 -43 -56t-36 -43q-63 -69 -130 -118t-124 -81q-66 -37 -129 -61q-1 3 -1 6q0 6 1 7q51 41 84 74t59 64.5t49.5 64.5t55.5 75q24 24 54.5 39.5t65.5 29t72 29t74 39.5z" />
    <glyph glyph-name="mu" unicode="&#xb5;" horiz-adv-x="1309" 
d="M1241 276q-48 -42 -79 -70.5t-51 -45.5q-23 -21 -36 -33q-15 -15 -40.5 -37.5t-55 -43.5t-60 -35.5t-55.5 -12.5q-40 2 -59 72.5t-19 191.5v48t2 52q-35 -47 -67 -85t-56 -65q-29 -32 -53 -56q-84 -83 -148.5 -119t-107.5 -39q-5 -81 -7.5 -132.5t-3.5 -80.5
q-2 -34 -1 -51q-3 -35 -7 -56t-10 -35t-15.5 -23.5t-24.5 -20.5q-12 -10 -27 -21q-14 -10 -32.5 -24t-41.5 -31q12 204 21.5 364.5t17 284.5t13 215t9.5 156t6.5 108.5t4.5 72t3.5 45.5t2.5 30q3 49 -10 79.5t-47 30.5q-20 0 -45.5 -11.5t-57.5 -37.5q24 23 56.5 56t68 63
t71.5 51t67 21q24 0 36.5 -12.5t18 -30.5t6 -38.5t0.5 -35.5q0 -43 -3 -100t-7.5 -117t-9.5 -118.5t-9 -104.5q-1 -21 -3 -56t-1.5 -75.5t5 -82t16 -74.5t32.5 -52.5t54 -16.5q41 4 77.5 29.5t67 63t55.5 84t44.5 93.5t33 90.5t21.5 75.5q5 75 14 170t23 195l194 139
q-37 -182 -58.5 -350.5t-21.5 -335.5q0 -79 7.5 -128t21.5 -74.5t32.5 -31.5t41.5 1q20 8 47 33q23 21 57.5 61t81.5 108v-84zM104 860l-6 -4z" />
    <glyph glyph-name="paragraph" unicode="&#xb6;" horiz-adv-x="1595" 
d="M76 928q0 109 49 203t130 164.5t185 113t213 49.5q119 -4 239 -8q51 -2 107.5 -3t113.5 -2.5t113 -2t107 -0.5q59 0 106.5 0.5t78.5 3.5l-117 -158l-189 15q-3 -179 -6 -319.5t-6 -248.5t-6 -187t-5 -134q-6 -129 -11 -176q-4 -20 -11 -41q-6 -18 -16.5 -39t-26.5 -41
q44 -5 78.5 -5.5t63.5 -0.5q66 0 98.5 4t40.5 6q-52 -26 -98 -48t-88 -39t-80.5 -26.5t-75.5 -9.5h-174l88 59l12 52q-48 -23 -90.5 -43.5t-81.5 -35.5t-75 -23.5t-70 -8.5h-174l159 111q6 30 10.5 66t8.5 75t7 78.5t5 76.5q5 86 8 175q2 148 5 287q1 59 2 122.5t1.5 124.5
t1.5 117t1 100q-26 0 -47 1t-35 1q-85 0 -159 -13t-129.5 -47t-87.5 -94.5t-32 -154.5q0 -85 22 -161.5t60 -134.5t90.5 -92t114.5 -34q32 0 67 11t72 34l14 -41q-49 -38 -103 -57t-110 -19q-71 0 -137 28t-117.5 79.5t-82.5 125t-31 165.5zM883 1323q-3 -182 -6.5 -325
t-6.5 -253.5t-5.5 -191t-5.5 -136.5q-6 -132 -11 -179q-4 -21 -11 -42q-6 -18 -17 -40.5t-27 -42.5q23 -2 43 -2h38q42 0 70 2t45 4q11 63 18.5 142.5t11.5 151.5q4 84 7 169q2 141 4 276q1 57 2 118.5t1.5 121.5t1.5 116t1 101z" />
    <glyph glyph-name="periodcentered" unicode="&#xb7;" horiz-adv-x="565" 
d="M444 713q-32 -23 -61.5 -44t-55 -37t-45.5 -26t-32 -10q-10 0 -28 10q-15 8 -39 25t-60 49l156 111q38 -32 68 -48t52 -23q26 -8 45 -7z" />
    <glyph glyph-name="cedilla" unicode="&#xb8;" horiz-adv-x="377" 
d="M324 68q-35 -43 -57 -69.5t-35 -42.5t-20.5 -25.5t-14 -17t-14 -16.5t-21.5 -26q6 6 22 9t27 5q29 4 57.5 1t51 -13t37.5 -27t18 -41q5 -37 -12 -70.5t-48 -61.5t-72.5 -49t-84.5 -34.5t-84.5 -18.5t-73.5 1l49 90q17 -12 37 -18.5t38.5 -8.5t33 -1t20.5 4q28 11 46 24.5
t12 44.5q-3 28 -16 45t-31 26t-39.5 12t-43.5 3q-20 0 -40.5 -2t-40.5 -8q60 74 99 117.5t64.5 68t41 36.5t28.5 22q4 3 15 9.5t22 13.5q13 8 29 18z" />
    <glyph glyph-name="onesuperior" unicode="&#xb9;" horiz-adv-x="477" 
d="M383 813q-31 -30 -52 -47.5t-37.5 -27t-30.5 -13.5t-30 -6q-19 -1 -37 -1q-16 0 -33.5 0.5t-31.5 2.5q15 13 27 27q11 12 19.5 26.5t10.5 30.5q4 11 8 43q3 27 5.5 77t3.5 136l-74 -17l205 138q-25 -48 -32 -96t-8 -96t-1.5 -95t-11.5 -94q13 2 30 3.5t33 3.5q18 2 37 5z
" />
    <glyph glyph-name="ordmasculine" unicode="&#xba;" horiz-adv-x="612" 
d="M537 1188q5 -162 -58.5 -279t-191.5 -186q-45 -23 -80 -23q-31 0 -52 16.5t-33.5 43.5t-18 61.5t-5.5 71.5q0 42 10.5 92.5t30 101.5t48 99.5t64.5 85.5t78.5 59.5t90.5 22.5q15 0 34 -7t36.5 -26t30.5 -51t16 -82zM422 1094q0 15 -3.5 39.5t-11 50t-18 49t-25 37
t-33 13.5t-40.5 -21q-23 -25 -36.5 -61.5t-21 -76t-10 -78.5t-2.5 -69q0 -28 3.5 -67.5t15.5 -72t34.5 -48t61.5 5.5q26 15 43 53t26.5 84t13 90.5t3.5 71.5z" />
    <glyph glyph-name="guillemotright" unicode="&#xbb;" horiz-adv-x="1212" 
d="M102 801l136 143q86 -81 164 -139.5t138 -98.5q70 -47 130 -79q-14 -26 -27 -55q-11 -25 -23 -56t-20 -63q-46 -12 -96 -37.5t-99 -59t-94.5 -71.5t-82 -74.5t-61.5 -69t-34 -53.5l-31 51q39 45 90 96t106 100t111 92.5t105 74.5q-46 31 -103 69.5t-113.5 78.5t-108 79
t-87.5 72zM573 801l136 143q86 -81 164 -139.5t138 -98.5q70 -47 130 -79q-14 -26 -27 -55q-11 -25 -23 -56t-20 -63q-46 -12 -96 -37.5t-99 -59t-94.5 -71.5t-82 -74.5t-61.5 -69t-34 -53.5l-31 51q39 45 90 96t106 100t111 92.5t105 74.5q-46 31 -103 69.5t-113.5 78.5
t-108 79t-87.5 72z" />
    <glyph glyph-name="onequarter" unicode="&#xbc;" horiz-adv-x="1010" 
d="M911 406q-31 -41 -64.5 -63.5t-68.5 -35.5q0 -12 -3.5 -34t-18.5 -42q20 2 40.5 5t36.5 7q18 4 35 9q-14 -29 -29.5 -48t-32 -30t-34.5 -15.5t-37 -4.5h-40q-17 0 -36 -0.5t-34 -1.5q19 14 29.5 31.5t15.5 32.5q5 18 6 36v41q-11 -2 -21.5 -1t-21.5 1q-72 0 -139 -3.5
t-136 -13.5q58 48 103 99t83.5 104t72.5 108.5t69 112.5l96 62l31 26q-8 -48 -14 -100.5t-10.5 -105t-8 -104t-4.5 -99.5q8 0 14 1t11 1q20 1 39 4q17 2 35.5 7t35.5 14zM803 1323q-15 -73 -46 -158t-70 -171.5t-81.5 -168t-79.5 -147.5q-26 -47 -63.5 -103t-81.5 -112.5
t-90 -111.5t-88 -100.5t-76.5 -78t-54.5 -45.5q94 117 187.5 253t174.5 279.5t143 289t93 280.5q7 7 23.5 15t36 19t39 25.5t34.5 34.5zM426 813q-31 -30 -52 -47.5t-37.5 -27t-30.5 -13.5t-30 -6q-19 -1 -37 -1q-16 0 -33.5 0.5t-31.5 2.5q15 13 27 27q11 12 19.5 26.5
t10.5 30.5q4 11 8 43q3 27 5.5 77t3.5 136l-74 -17l205 138q-25 -48 -32 -96t-8 -96t-1.5 -95t-11.5 -94q13 2 30 3.5t33 3.5q18 2 37 5zM694 592q-14 -23 -24.5 -43t-25 -43.5t-37 -53.5t-60.5 -73h135q3 37 5 90.5t7 122.5z" />
    <glyph glyph-name="onehalf" unicode="&#xbd;" horiz-adv-x="1026" 
d="M426 813q-31 -30 -52 -47.5t-37.5 -27t-30.5 -13.5t-30 -6q-19 -1 -37 -1q-16 0 -33.5 0.5t-31.5 2.5q15 13 27 27q11 12 19.5 26.5t10.5 30.5q4 11 8 43q3 27 5.5 77t3.5 136l-74 -17l205 138q-25 -48 -32 -96t-8 -96t-1.5 -95t-11.5 -94q13 2 30 3.5t33 3.5q18 2 37 5z
M803 1323q-15 -73 -46 -158t-70 -171.5t-81.5 -168t-79.5 -147.5q-26 -47 -63.5 -103t-81.5 -112.5t-90 -111.5t-88 -100.5t-76.5 -78t-54.5 -45.5q94 117 187.5 253t174.5 279.5t143 289t93 280.5q7 7 23.5 15t36 19t39 25.5t34.5 34.5zM895 254q-8 -14 -23 -31.5
t-34.5 -33t-40.5 -26t-41 -11.5q-60 -4 -118.5 0t-117.5 2q32 55 54 91t36 58q17 26 27 39q34 44 64 84t52.5 76t35 68t12.5 61q0 32 -17 45.5t-45 13.5q-15 0 -24.5 -7t-15 -17.5t-7.5 -24t-2 -25.5q0 -7 4 -16.5t10 -18.5t13.5 -16t15.5 -8q-21 -28 -44.5 -41.5
t-45.5 -13.5q-25 0 -41 18t-16 55q0 36 23.5 68t58 56t73 37.5t68.5 13.5q23 0 40.5 -9.5t29.5 -24.5t18 -34t6 -39q0 -35 -16 -72.5t-45 -74.5q-51 -63 -91.5 -122.5t-80.5 -131.5q94 0 150 1.5t75 10.5z" />
    <glyph glyph-name="threequarters" unicode="&#xbe;" horiz-adv-x="1042" 
d="M944 406q-31 -41 -64.5 -63.5t-68.5 -35.5q0 -12 -3.5 -34t-19.5 -42q21 2 41 5t36 7q18 4 36 9q-14 -29 -29.5 -48t-32 -30t-34.5 -15.5t-37 -4.5h-40q-17 0 -36.5 -0.5t-34.5 -1.5q20 14 30 31.5t15 32.5q5 18 7 36v41q-11 -2 -21.5 -1t-21.5 1q-73 0 -140 -3.5
t-135 -13.5q58 48 103 99t83.5 104t72.5 108.5t69 112.5l96 62l31 26q-8 -48 -14 -100.5t-10.5 -105t-8 -104t-4.5 -99.5q8 0 14 1t11 1q20 1 39 4q17 2 35.5 7t35.5 14zM502 1298q-5 -23 -17.5 -43.5t-32 -41.5t-44.5 -45t-54 -54q68 -17 111 -55t43 -103q0 -53 -28 -98
t-71 -78t-94.5 -52t-97.5 -19q-49 0 -69.5 11t-20.5 28q0 12 8.5 25.5t22 27t31.5 25t36 20.5q-2 -15 -0.5 -29t6.5 -25.5t14 -18.5t21 -7q30 -2 55.5 10t44.5 32.5t29.5 47.5t10.5 57q0 39 -20 66t-50.5 42t-65.5 18t-65 -5q17 19 38.5 40.5l44 44t44 46t39.5 47.5
q-31 4 -61.5 6.5t-47.5 2.5q-9 0 -25 -1.5t-32.5 -4.5t-32 -7t-22.5 -8q11 27 29.5 45.5t40.5 30.5t46 17t47 5q56 0 100.5 -1.5t88.5 1.5zM836 1323q-15 -73 -46 -158t-70 -171.5t-81.5 -168t-79.5 -147.5q-26 -47 -64 -103t-81.5 -112.5t-90 -111.5t-88.5 -100.5
t-76.5 -78t-54.5 -45.5q62 78 125 164.5t123 179t114.5 188.5t100 192.5t80.5 192t55 185.5q8 7 24.5 15t36 19t39 25.5t34.5 34.5zM727 592q-14 -23 -24.5 -43t-25 -43.5t-37 -53.5t-60.5 -73h135q3 37 5 90.5t7 122.5z" />
    <glyph glyph-name="questiondown" unicode="&#xbf;" horiz-adv-x="1016" 
d="M53 -90q5 76 40.5 139t85.5 119t108 107t108 103t85 106.5t40 117.5v24t-1.5 39t-4.5 47t-10 48q-3 10 6.5 18t25.5 14.5t36.5 12.5t40.5 11.5t36 10.5t23 11q8 -23 11 -47t3 -46q0 -69 -21.5 -123.5t-56.5 -101t-80 -87.5t-92 -83q-35 -31 -72.5 -72t-68.5 -87t-52 -95
t-24 -96q-6 -70 18 -131.5t68.5 -106t103 -67.5t121.5 -14q58 7 99.5 29t69 55t42 77t17.5 97q1 20 -1.5 43.5t-11.5 43.5t-25.5 34t-41.5 16q40 48 80 80q17 13 35 24.5t36 17t34 3.5t30 -15q22 -20 31.5 -46.5t9.5 -55.5q0 -68 -27 -131t-72 -118.5t-105 -101.5t-125 -79
t-132 -51.5t-127 -18.5q-68 0 -124 26t-95 70.5t-59 103.5t-15 126zM428 989q32 22 62.5 43.5t57 37.5t47 26t32.5 10q10 -2 27 -11q14 -8 37.5 -24.5t58.5 -48.5l-160 -111q-36 32 -66 47.5t-51 22.5q-26 8 -45 8z" />
    <glyph glyph-name="Agrave" unicode="&#xc0;" horiz-adv-x="1311" 
d="M399 104q-53 -30 -101.5 -50t-90.5 -32t-75.5 -17t-57.5 -5h-150l109 61q17 22 33 44t27 41q13 21 24 42q31 63 92 204q25 60 59.5 143t79.5 193t100 250t123 314l174 160l392 -1329q42 -11 80.5 -14t72.5 -3q18 0 33 0.5t26 1.5q12 1 23 3q-58 -28 -101 -48.5
t-76.5 -34.5t-62 -21t-57.5 -7h-160l52 33l-160 530q-29 -8 -67 -15.5t-90.5 -13.5t-122 -11t-160.5 -9q-42 -89 -77 -158t-63 -120t-49.5 -86t-36.5 -56q17 -3 38 -4.5t42 -1.5q32 0 63.5 2.5t57.5 5.5q30 4 57 8zM539 633q135 0 245 6l-153 508q-62 -159 -113.5 -284
t-97.5 -230h119zM702 1532q-10 -9 -29 -25t-40.5 -32t-41 -28t-30.5 -12q-94 60 -170 140.5t-129 177.5q0 4 22 19t48 32q31 19 71 43q29 -49 57 -90.5t61.5 -79t77 -73t103.5 -72.5z" />
    <glyph glyph-name="Aacute" unicode="&#xc1;" horiz-adv-x="1311" 
d="M399 104q-53 -30 -101.5 -50t-90.5 -32t-75.5 -17t-57.5 -5h-150l109 61q17 22 33 44t27 41q13 21 24 42q31 63 92 204q25 60 59.5 143t79.5 193t100 250t123 314l174 160l392 -1329q42 -11 80.5 -14t72.5 -3q18 0 33 0.5t26 1.5q12 1 23 3q-58 -28 -101 -48.5
t-76.5 -34.5t-62 -21t-57.5 -7h-160l52 33l-160 530q-29 -8 -67 -15.5t-90.5 -13.5t-122 -11t-160.5 -9q-42 -89 -77 -158t-63 -120t-49.5 -86t-36.5 -56q17 -3 38 -4.5t42 -1.5q32 0 63.5 2.5t57.5 5.5q30 4 57 8zM539 633q135 0 245 6l-153 508q-62 -159 -113.5 -284
t-97.5 -230h119zM1149 1894q-27 -36 -52 -69q-21 -28 -43 -56t-36 -43q-63 -69 -130 -118t-124 -81q-66 -37 -129 -61q-1 3 -1 6q0 6 1 7q51 41 84 74t59 64.5t49.5 64.5t55.5 75q24 24 54.5 39.5t65.5 29t72 29t74 39.5z" />
    <glyph glyph-name="Acircumflex" unicode="&#xc2;" horiz-adv-x="1317" 
d="M401 104q-53 -30 -101.5 -50t-90.5 -32t-75.5 -17t-57.5 -5h-150l109 61q17 22 33 44t27 41q13 21 24 42q31 63 92 204q25 60 59.5 143t79.5 193t100 250t123 314l174 160l392 -1329q42 -11 80.5 -14t72.5 -3q18 0 33 0.5t26 1.5q12 1 23 3q-58 -28 -101 -48.5
t-76.5 -34.5t-62 -21t-57.5 -7h-160l52 33l-160 530q-29 -8 -67 -15.5t-90.5 -13.5t-122 -11t-160.5 -9q-42 -89 -77 -158t-63 -120t-49.5 -86t-36.5 -56q17 -3 38 -4.5t42 -1.5q32 0 63.5 2.5t57.5 5.5q30 4 57 8zM541 633q135 0 245 6l-153 508q-62 -159 -113.5 -284
t-97.5 -230h119zM1016 1518q-10 -8 -21.5 -19.5t-28 -25t-40 -29t-57.5 -30.5q-53 62 -107 125.5t-100 117.5q-78 -102 -144 -157t-114 -70l-31 20q75 50 139 117t111 142l145 100q32 -38 67 -80.5t68 -82.5t62.5 -74t50.5 -54z" />
    <glyph glyph-name="Atilde" unicode="&#xc3;" horiz-adv-x="1311" 
d="M399 104q-53 -30 -101.5 -50t-90.5 -32t-75.5 -17t-57.5 -5h-150l109 61q17 22 33 44t27 41q13 21 24 42q31 63 92 204q25 60 59.5 143t79.5 193t100 250t123 314l174 160l392 -1329q42 -11 80.5 -14t72.5 -3q18 0 33 0.5t26 1.5q12 1 23 3q-58 -28 -101 -48.5
t-76.5 -34.5t-62 -21t-57.5 -7h-160l52 33l-160 530q-29 -8 -67 -15.5t-90.5 -13.5t-122 -11t-160.5 -9q-42 -89 -77 -158t-63 -120t-49.5 -86t-36.5 -56q17 -3 38 -4.5t42 -1.5q32 0 63.5 2.5t57.5 5.5q30 4 57 8zM539 633q135 0 245 6l-153 508q-62 -159 -113.5 -284
t-97.5 -230h119zM1033 1775q-15 -53 -35 -101t-47.5 -85t-64.5 -58.5t-85 -21.5q-33 0 -65 16t-61 35.5t-54 36.5t-45 19q-18 3 -38 -7q-17 -8 -39.5 -30.5t-45.5 -69.5l-47 -33q14 34 36 77.5t55.5 82.5t80 65.5t109.5 26.5q29 0 58.5 -14t57 -31t53 -31t46.5 -14
q8 0 20.5 7.5t25.5 20t23.5 28.5t14.5 32z" />
    <glyph glyph-name="Adieresis" unicode="&#xc4;" horiz-adv-x="1313" 
d="M399 104q-53 -30 -101.5 -50t-90.5 -32t-75.5 -17t-57.5 -5h-150l109 61q17 22 33 44t27 41q13 21 24 42q31 63 92 204q25 60 59.5 143t79.5 193t100 250t123 314l174 160l392 -1329q42 -11 80.5 -14t72.5 -3q18 0 33 0.5t26 1.5q12 1 23 3q-58 -28 -101 -48.5
t-76.5 -34.5t-62 -21t-57.5 -7h-160l52 33l-160 530q-29 -8 -67 -15.5t-90.5 -13.5t-122 -11t-160.5 -9q-42 -89 -77 -158t-63 -120t-49.5 -86t-36.5 -56q17 -3 38 -4.5t42 -1.5q32 0 63.5 2.5t57.5 5.5q30 4 57 8zM539 633q135 0 245 6l-153 508q-62 -159 -113.5 -284
t-97.5 -230h119zM1030 1552l-156 -108l-120 114l155 107zM663 1552l-155 -108l-121 114l156 107z" />
    <glyph glyph-name="Aring" unicode="&#xc5;" horiz-adv-x="1311" 
d="M399 104q-53 -30 -101.5 -50t-90.5 -32t-75.5 -17t-57.5 -5h-150l109 61q17 22 33 44t27 41q13 21 24 42q31 63 92 204q25 60 59.5 143t79.5 193t100 250t123 314l174 160l392 -1329q42 -11 80.5 -14t72.5 -3q18 0 33 0.5t26 1.5q12 1 23 3q-58 -28 -101 -48.5
t-76.5 -34.5t-62 -21t-57.5 -7h-160l52 33l-160 530q-29 -8 -67 -15.5t-90.5 -13.5t-122 -11t-160.5 -9q-42 -89 -77 -158t-63 -120t-49.5 -86t-36.5 -56q17 -3 38 -4.5t42 -1.5q32 0 63.5 2.5t57.5 5.5q30 4 57 8zM539 633q135 0 245 6l-153 508q-62 -159 -113.5 -284
t-97.5 -230h119zM877 1690q0 -40 -18 -77t-47.5 -65.5t-66.5 -45.5t-75 -17q-26 0 -49 9.5t-41 27.5t-28.5 43t-10.5 57q0 41 17.5 79.5t46.5 68.5t66.5 48.5t76.5 18.5q25 0 48.5 -11.5t41.5 -31.5t28.5 -46.5t10.5 -57.5zM629 1747q-11 -85 21 -128.5t92 -43.5q20 0 49 6
q13 47 2 81.5t-36 56t-59.5 28.5t-68.5 0z" />
    <glyph glyph-name="AE" unicode="&#xc6;" horiz-adv-x="1774" 
d="M365 104q-53 -30 -102 -50t-91 -32t-75.5 -17t-57.5 -5h-150l183 104q8 -3 15.5 -5.5t16.5 -4.5q15 17 28.5 34t24.5 31q12 16 23 29q60 83 153 235q40 65 90.5 151.5t113 198t137 249.5t162.5 305q-42 0 -79.5 1t-66.5 3l187 99q189 0 340 2.5t258 5.5q125 4 221 8
q34 0 45 -5.5t9 -12t-12 -13.5t-18 -10q-8 -4 -30 -17q-19 -11 -53.5 -34.5t-94.5 -63.5q20 22 17 32.5t-14 15.5q-13 5 -36 5q-17 -2 -53.5 -3.5t-87 -3.5t-111 -4t-124.5 -3q1 -52 1.5 -113.5t0.5 -128v-137.5v-141q102 1 183.5 3.5t139.5 5.5q68 4 121 7q33 1 44 -4
t9 -12t-11.5 -14.5t-16.5 -10.5q-9 -4 -27 -15q-16 -10 -45.5 -29.5t-77.5 -53.5q8 15 -0.5 23t-22.5 11q-17 4 -40 3q-45 -3 -107.5 -9.5t-148.5 -8.5q-1 -92 -2 -176.5t-2 -153t-2.5 -115.5t-2.5 -65q-2 -20 -12 -39q-8 -17 -25.5 -36t-48.5 -34h453q32 0 65 4q28 3 60 10
t61 21q-50 -47 -99 -72t-90 -36q-48 -13 -91 -15q-98 0 -185 -1t-157 -4t-119.5 -7.5t-71.5 -10.5q31 31 48.5 61t26.5 67t11.5 83.5t1.5 110.5v274q-28 -10 -66 -18.5t-91 -15.5t-125 -13t-168 -10q-117 -175 -198.5 -277.5t-123.5 -148.5h4q32 0 64 2.5t58 5.5q30 4 57 8z
M676 633q77 0 148.5 1.5t129.5 4.5q0 109 -1 264t-1 367q-106 -196 -199 -353t-173 -284q23 -2 47 -1t49 1z" />
    <glyph glyph-name="Ccedilla" unicode="&#xc7;" horiz-adv-x="1335" 
d="M1319 1374q-18 -23 -44 -45q-22 -19 -54.5 -40t-75.5 -38q14 18 2.5 38.5t-50.5 37.5t-105.5 28t-162.5 11q-56 0 -120.5 -11.5t-127.5 -39.5t-121.5 -74.5t-103.5 -116t-71.5 -165t-26.5 -220.5t30.5 -220t81 -163.5t115.5 -114t133 -73t133.5 -38.5t118.5 -11
q61 1 127 9q57 7 125.5 20.5t134.5 39.5q-97 -78 -180 -119t-146 -61q-73 -23 -134 -26q-53 0 -99 6l-96 -117q6 6 22 9t27 5q29 4 57.5 1t51 -13t37.5 -27t18 -41q5 -37 -12 -70.5t-48 -61.5t-72 -49t-84.5 -34.5t-85 -18.5t-73.5 1l49 90q17 -12 37 -18.5t38.5 -8.5t33 -1
t20.5 4q28 11 46 24.5t12 44.5q-3 28 -15.5 45t-30.5 26t-40 12t-43 3q-20 0 -41 -2t-41 -8q39 48 69 83t52.5 60t39 41t29.5 27q-123 18 -228.5 69t-183.5 131.5t-122.5 189t-44.5 243.5q0 95 18 176.5t47.5 149.5t66.5 122.5t75.5 96t75 69.5t63.5 43q26 15 66.5 34
t89 38.5t102.5 38.5t110 34t109.5 24t101.5 9q107 0 173 -10t100.5 -24.5t43 -29.5t1.5 -24z" />
    <glyph glyph-name="Egrave" unicode="&#xc8;" horiz-adv-x="1049" 
d="M879 784q-9 -4 -27 -15q-16 -10 -45.5 -29.5t-77.5 -53.5q8 15 -0.5 23t-22.5 11q-17 4 -40 3q-36 -3 -103.5 -7t-152.5 -7q0 -160 -2 -260.5t-3 -156.5q-2 -66 -4 -97q-2 -20 -12 -39q-8 -17 -25.5 -36t-48.5 -34h453q32 0 65 4q28 3 60 10t61 21q-50 -47 -99 -72
t-90 -36q-48 -13 -91 -15q-98 0 -185 -1t-157 -4t-119.5 -7.5t-71.5 -10.5q31 31 48.5 61t26.5 67t11.5 83.5t1.5 110.5v410q-29 0 -56.5 1t-53.5 3l110 57q0 54 -0.5 113.5t-0.5 127.5t-0.5 146.5t-0.5 171.5q-45 0 -85 1t-74 3l186 99q190 0 324.5 2.5t222.5 5.5
q102 4 170 8q34 0 45 -5.5t9 -12t-12 -13.5t-18 -10q-8 -4 -30 -17q-19 -11 -53.5 -34.5t-94.5 -63.5q20 22 17 32.5t-14 15.5q-13 5 -36 5q-19 -2 -57 -3.5t-88.5 -3.5t-109.5 -4t-121 -3q1 -160 1.5 -287t0.5 -233q102 1 183.5 3.5t139.5 5.5q68 4 121 7q33 1 44 -4t9 -12
t-11.5 -14.5t-16.5 -10.5zM690 1588q-10 -9 -29 -25t-40.5 -32t-41 -28t-30.5 -12q-94 60 -170 140.5t-129 177.5q0 4 22 19t48 32q31 19 71 43q29 -49 57 -90.5t61.5 -79t77 -73t103.5 -72.5z" />
    <glyph glyph-name="Eacute" unicode="&#xc9;" horiz-adv-x="1049" 
d="M879 784q-9 -4 -27 -15q-16 -10 -45.5 -29.5t-77.5 -53.5q8 15 -0.5 23t-22.5 11q-17 4 -40 3q-36 -3 -103.5 -7t-152.5 -7q0 -160 -2 -260.5t-3 -156.5q-2 -66 -4 -97q-2 -20 -12 -39q-8 -17 -25.5 -36t-48.5 -34h453q32 0 65 4q28 3 60 10t61 21q-50 -47 -99 -72
t-90 -36q-48 -13 -91 -15q-98 0 -185 -1t-157 -4t-119.5 -7.5t-71.5 -10.5q31 31 48.5 61t26.5 67t11.5 83.5t1.5 110.5v410q-29 0 -56.5 1t-53.5 3l110 57q0 54 -0.5 113.5t-0.5 127.5t-0.5 146.5t-0.5 171.5q-45 0 -85 1t-74 3l186 99q190 0 324.5 2.5t222.5 5.5
q102 4 170 8q34 0 45 -5.5t9 -12t-12 -13.5t-18 -10q-8 -4 -30 -17q-19 -11 -53.5 -34.5t-94.5 -63.5q20 22 17 32.5t-14 15.5q-13 5 -36 5q-19 -2 -57 -3.5t-88.5 -3.5t-109.5 -4t-121 -3q1 -160 1.5 -287t0.5 -233q102 1 183.5 3.5t139.5 5.5q68 4 121 7q33 1 44 -4t9 -12
t-11.5 -14.5t-16.5 -10.5zM1046 1914q-27 -36 -52 -69q-21 -28 -43 -56t-36 -43q-63 -69 -130 -118t-124 -81q-66 -37 -129 -61q-1 3 -1 6q0 6 1 7q51 41 84 74t59 64.5t49.5 64.5t55.5 75q24 24 54.5 39.5t65.5 29t72 29t74 39.5z" />
    <glyph glyph-name="Ecircumflex" unicode="&#xca;" horiz-adv-x="1049" 
d="M879 784q-9 -4 -27 -15q-16 -10 -45.5 -29.5t-77.5 -53.5q8 15 -0.5 23t-22.5 11q-17 4 -40 3q-36 -3 -103.5 -7t-152.5 -7q0 -160 -2 -260.5t-3 -156.5q-2 -66 -4 -97q-2 -20 -12 -39q-8 -17 -25.5 -36t-48.5 -34h453q32 0 65 4q28 3 60 10t61 21q-50 -47 -99 -72
t-90 -36q-48 -13 -91 -15q-98 0 -185 -1t-157 -4t-119.5 -7.5t-71.5 -10.5q31 31 48.5 61t26.5 67t11.5 83.5t1.5 110.5v410q-29 0 -56.5 1t-53.5 3l110 57q0 54 -0.5 113.5t-0.5 127.5t-0.5 146.5t-0.5 171.5q-45 0 -85 1t-74 3l186 99q190 0 324.5 2.5t222.5 5.5
q102 4 170 8q34 0 45 -5.5t9 -12t-12 -13.5t-18 -10q-8 -4 -30 -17q-19 -11 -53.5 -34.5t-94.5 -63.5q20 22 17 32.5t-14 15.5q-13 5 -36 5q-19 -2 -57 -3.5t-88.5 -3.5t-109.5 -4t-121 -3q1 -160 1.5 -287t0.5 -233q102 1 183.5 3.5t139.5 5.5q68 4 121 7q33 1 44 -4t9 -12
t-11.5 -14.5t-16.5 -10.5zM887 1604q-10 -8 -21.5 -19.5t-28 -25t-40 -29t-57.5 -30.5q-53 62 -107 125.5t-100 117.5q-78 -102 -144 -157t-114 -70l-31 20q75 50 139 117t111 142l145 100q32 -38 67 -80.5t68 -82.5t62.5 -74t50.5 -54z" />
    <glyph glyph-name="Edieresis" unicode="&#xcb;" horiz-adv-x="1049" 
d="M879 784q-9 -4 -27 -15q-16 -10 -45.5 -29.5t-77.5 -53.5q8 15 -0.5 23t-22.5 11q-17 4 -40 3q-36 -3 -103.5 -7t-152.5 -7q0 -160 -2 -260.5t-3 -156.5q-2 -66 -4 -97q-2 -20 -12 -39q-8 -17 -25.5 -36t-48.5 -34h453q32 0 65 4q28 3 60 10t61 21q-50 -47 -99 -72
t-90 -36q-48 -13 -91 -15q-98 0 -185 -1t-157 -4t-119.5 -7.5t-71.5 -10.5q31 31 48.5 61t26.5 67t11.5 83.5t1.5 110.5v410q-29 0 -56.5 1t-53.5 3l110 57q0 54 -0.5 113.5t-0.5 127.5t-0.5 146.5t-0.5 171.5q-45 0 -85 1t-74 3l186 99q190 0 324.5 2.5t222.5 5.5
q102 4 170 8q34 0 45 -5.5t9 -12t-12 -13.5t-18 -10q-8 -4 -30 -17q-19 -11 -53.5 -34.5t-94.5 -63.5q20 22 17 32.5t-14 15.5q-13 5 -36 5q-19 -2 -57 -3.5t-88.5 -3.5t-109.5 -4t-121 -3q1 -160 1.5 -287t0.5 -233q102 1 183.5 3.5t139.5 5.5q68 4 121 7q33 1 44 -4t9 -12
t-11.5 -14.5t-16.5 -10.5zM887 1597l-156 -108l-120 114l155 107zM520 1597l-155 -108l-121 114l156 107z" />
    <glyph glyph-name="Igrave" unicode="&#xcc;" horiz-adv-x="641" 
d="M604 129q-54 -36 -89 -62t-63.5 -42.5t-55 -24.5t-62.5 -8q-48 0 -82 4t-68 4q-17 0 -34.5 -1.5t-38.5 -6.5q28 24 51 52t39.5 69t25.5 98.5t9 138.5v1010q-31 -3 -75 -8t-100 -13q54 44 97.5 67t74.5 34q36 12 64 14q35 -1 77.5 1t82 5.5t72.5 9t49 11.5
q-47 -31 -84.5 -52.5t-71.5 -35.5q-5 -181 -8.5 -324t-6 -253.5t-4 -191t-2.5 -137.5q-3 -133 -2 -182q-1 -37 -10 -73q-8 -32 -24 -67.5t-46 -64.5q19 -2 37 -2h35q51 0 90.5 4.5t66.5 10.5q32 7 56 16zM440 1618q-10 -9 -29 -25t-40.5 -32t-41 -28t-30.5 -12
q-94 60 -170 140.5t-129 177.5q0 4 22 19t48 32q31 19 71 43q29 -49 57 -90.5t61.5 -79t77 -73t103.5 -72.5z" />
    <glyph glyph-name="Iacute" unicode="&#xcd;" horiz-adv-x="641" 
d="M604 129q-54 -36 -89 -62t-63.5 -42.5t-55 -24.5t-62.5 -8q-48 0 -82 4t-68 4q-17 0 -34.5 -1.5t-38.5 -6.5q28 24 51 52t39.5 69t25.5 98.5t9 138.5v1010q-31 -3 -75 -8t-100 -13q54 44 97.5 67t74.5 34q36 12 64 14q35 -1 77.5 1t82 5.5t72.5 9t49 11.5
q-47 -31 -84.5 -52.5t-71.5 -35.5q-5 -181 -8.5 -324t-6 -253.5t-4 -191t-2.5 -137.5q-3 -133 -2 -182q-1 -37 -10 -73q-8 -32 -24 -67.5t-46 -64.5q19 -2 37 -2h35q51 0 90.5 4.5t66.5 10.5q32 7 56 16zM837 1949q-27 -36 -52 -69q-21 -28 -43 -56t-36 -43
q-63 -69 -130 -118t-124 -81q-66 -37 -129 -61q-1 3 -1 6q0 6 1 7q51 41 84 74t59 64.5t49.5 64.5t55.5 75q24 24 54.5 39.5t65.5 29t72 29t74 39.5z" />
    <glyph glyph-name="Icircumflex" unicode="&#xce;" horiz-adv-x="641" 
d="M604 129q-54 -36 -89 -62t-63.5 -42.5t-55 -24.5t-62.5 -8q-48 0 -82 4t-68 4q-17 0 -34.5 -1.5t-38.5 -6.5q28 24 51 52t39.5 69t25.5 98.5t9 138.5v1010q-31 -3 -75 -8t-100 -13q54 44 97.5 67t74.5 34q36 12 64 14q35 -1 77.5 1t82 5.5t72.5 9t49 11.5
q-47 -31 -84.5 -52.5t-71.5 -35.5q-5 -181 -8.5 -324t-6 -253.5t-4 -191t-2.5 -137.5q-3 -133 -2 -182q-1 -37 -10 -73q-8 -32 -24 -67.5t-46 -64.5q19 -2 37 -2h35q51 0 90.5 4.5t66.5 10.5q32 7 56 16zM704 1630q-10 -8 -21.5 -19.5t-28 -25t-40 -29t-57.5 -30.5
q-53 62 -107 125.5t-100 117.5q-78 -102 -144 -157t-114 -70l-31 20q75 50 139 117t111 142l145 100q32 -38 67 -80.5t68 -82.5t62.5 -74t50.5 -54z" />
    <glyph glyph-name="Idieresis" unicode="&#xcf;" horiz-adv-x="641" 
d="M604 129q-54 -36 -89 -62t-63.5 -42.5t-55 -24.5t-62.5 -8q-48 0 -82 4t-68 4q-17 0 -34.5 -1.5t-38.5 -6.5q28 24 51 52t39.5 69t25.5 98.5t9 138.5v1010q-31 -3 -75 -8t-100 -13q54 44 97.5 67t74.5 34q36 12 64 14q35 -1 77.5 1t82 5.5t72.5 9t49 11.5
q-47 -31 -84.5 -52.5t-71.5 -35.5q-5 -181 -8.5 -324t-6 -253.5t-4 -191t-2.5 -137.5q-3 -133 -2 -182q-1 -37 -10 -73q-8 -32 -24 -67.5t-46 -64.5q19 -2 37 -2h35q51 0 90.5 4.5t66.5 10.5q32 7 56 16zM684 1648l-156 -108l-120 114l155 107zM317 1648l-155 -108l-121 114
l156 107z" />
    <glyph glyph-name="Eth" unicode="&#xd0;" horiz-adv-x="1542" 
d="M1464 803q0 -124 -41.5 -231.5t-112 -197t-164.5 -159t-199.5 -117.5t-216 -73t-214.5 -25q-10 -1 -36.5 -1t-61.5 -0.5t-76 -0.5h-80t-73 0.5t-56 1.5q17 0 30 9t22.5 24t16 34.5t11.5 39.5q10 48 12 108v87q0 48 1 128t3 203h-247q17 3 34.5 15t35.5 27.5t36.5 33.5
t37.5 32.5t38 24.5t37 10h30l11 551q-44 -5 -87.5 -7.5t-91.5 -0.5l187 123q46 -6 95 -8t97 -2q88 0 162.5 7t147.5 7q66 0 144.5 -10.5t157.5 -38t153 -73.5t131 -117.5t91.5 -171t34.5 -232.5zM408 776h387q-19 -3 -43 -25.5t-52 -49t-58.5 -47.5t-61.5 -21h-177
q-3 -114 -5 -183t-3 -108q-2 -46 -2 -66q-3 -31 -13 -60q-8 -25 -23.5 -53t-41.5 -48q139 -7 229 -9t144 -2q138 0 248 49.5t186.5 134t117 196.5t40.5 237q0 123 -32.5 218.5t-86.5 167t-123 120.5t-141.5 79.5t-143.5 44t-128 13.5q-59 0 -110 -4t-99 -10z" />
    <glyph glyph-name="Ntilde" unicode="&#xd1;" horiz-adv-x="1540" 
d="M289 184q-2 -9 -9 -21q-6 -11 -17 -27.5t-30 -39.5q29 -6 58.5 -8t54.5 -2q50 0 81.5 4t37.5 6q-47 -22 -78 -41t-63.5 -33t-74 -23.5t-110.5 -12.5q4 2 13 16l-19 -16q-14 -2 -29 -2h-30l92 69q4 24 8 54.5t7 63.5t6 66.5t5 65.5q5 74 9 152q5 227 7.5 446.5t2.5 441.5
l111 179q6 -96 37 -185t81 -172.5t114 -161t136 -151.5t147 -145t146 -140.5t134.5 -138t111.5 -137.5q15 217 19.5 423.5t4.5 411.5q0 92 -5 144.5t-15 87.5q-12 -2 -25.5 -2h-27.5q-35 0 -67.5 -1.5t-53.5 -11.5q37 26 72 48t70.5 37.5t72 24.5t78.5 9q23 0 51.5 -1.5
t62.5 -6.5q-27 -17 -51 -30.5t-47 -24.5q-2 -306 -17.5 -601.5t-29.5 -590.5q-60 -98 -86.5 -161t-30.5 -77v-4q-46 104 -113 194t-146.5 172t-165.5 160t-169 159.5t-157.5 170t-130.5 191.5q-1 -87 -2.5 -174t-3.5 -170t-5 -159t-6.5 -139t-7.5 -111t-8 -75zM139 -14
q-2 -2 -6 -2v2h6zM1149 1742q-15 -53 -35 -101t-47.5 -85t-64.5 -58.5t-85 -21.5q-33 0 -65 16t-61 35.5t-54 36.5t-45 19q-18 3 -38 -7q-17 -8 -39.5 -30.5t-45.5 -69.5l-47 -33q14 34 36 77.5t55.5 82.5t80 65.5t109.5 26.5q29 0 58.5 -14t57 -31t53 -31t46.5 -14
q8 0 20.5 7.5t25.5 20t23.5 28.5t14.5 32z" />
    <glyph glyph-name="Ograve" unicode="&#xd2;" horiz-adv-x="1579" 
d="M1501 776q0 -127 -42 -235t-111 -197t-157.5 -157.5t-181 -115t-181.5 -70.5t-160 -24q-60 0 -127 18.5t-132.5 55t-125.5 91t-105.5 126t-72.5 160t-27 193.5q0 140 39 256t103.5 208.5t147 161.5t169 114.5t170.5 68t151 22.5q71 0 146 -15t146.5 -48t135 -85.5
t111.5 -127.5t76 -174.5t28 -225.5zM1319 715q0 110 -27 199.5t-72.5 159t-105 120t-124 83.5t-130.5 48.5t-125 15.5q-94 0 -182 -35.5t-156.5 -111t-109.5 -194.5t-41 -285q0 -111 32 -199.5t84 -155.5t117.5 -115t133 -78t131 -44t110.5 -14t99.5 14t104.5 44.5t99 78.5
t83 115t57.5 155t21.5 199zM827 1598q-10 -9 -29 -25t-40.5 -32t-41 -28t-30.5 -12q-94 60 -170 140.5t-129 177.5q0 4 22 19t48 32q31 19 71 43q29 -49 57 -90.5t61.5 -79t77 -73t103.5 -72.5z" />
    <glyph glyph-name="Oacute" unicode="&#xd3;" horiz-adv-x="1579" 
d="M1501 776q0 -127 -42 -235t-111 -197t-157.5 -157.5t-181 -115t-181.5 -70.5t-160 -24q-60 0 -127 18.5t-132.5 55t-125.5 91t-105.5 126t-72.5 160t-27 193.5q0 140 39 256t103.5 208.5t147 161.5t169 114.5t170.5 68t151 22.5q71 0 146 -15t146.5 -48t135 -85.5
t111.5 -127.5t76 -174.5t28 -225.5zM1319 715q0 110 -27 199.5t-72.5 159t-105 120t-124 83.5t-130.5 48.5t-125 15.5q-94 0 -182 -35.5t-156.5 -111t-109.5 -194.5t-41 -285q0 -111 32 -199.5t84 -155.5t117.5 -115t133 -78t131 -44t110.5 -14t99.5 14t104.5 44.5t99 78.5
t83 115t57.5 155t21.5 199zM1223 1923q-27 -36 -52 -69q-21 -28 -43 -56t-36 -43q-63 -69 -130 -118t-124 -81q-66 -37 -129 -61q-1 3 -1 6q0 6 1 7q51 41 84 74t59 64.5t49.5 64.5t55.5 75q24 24 54.5 39.5t65.5 29t72 29t74 39.5z" />
    <glyph glyph-name="Ocircumflex" unicode="&#xd4;" horiz-adv-x="1579" 
d="M1501 776q0 -127 -42 -235t-111 -197t-157.5 -157.5t-181 -115t-181.5 -70.5t-160 -24q-60 0 -127 18.5t-132.5 55t-125.5 91t-105.5 126t-72.5 160t-27 193.5q0 140 39 256t103.5 208.5t147 161.5t169 114.5t170.5 68t151 22.5q71 0 146 -15t146.5 -48t135 -85.5
t111.5 -127.5t76 -174.5t28 -225.5zM1319 715q0 110 -27 199.5t-72.5 159t-105 120t-124 83.5t-130.5 48.5t-125 15.5q-94 0 -182 -35.5t-156.5 -111t-109.5 -194.5t-41 -285q0 -111 32 -199.5t84 -155.5t117.5 -115t133 -78t131 -44t110.5 -14t99.5 14t104.5 44.5t99 78.5
t83 115t57.5 155t21.5 199zM1161 1593q-10 -8 -21.5 -19.5t-28 -25t-40 -29t-57.5 -30.5q-53 62 -107 125.5t-100 117.5q-78 -102 -144 -157t-114 -70l-31 20q75 50 139 117t111 142l145 100q32 -38 67 -80.5t68 -82.5t62.5 -74t50.5 -54z" />
    <glyph glyph-name="Otilde" unicode="&#xd5;" horiz-adv-x="1579" 
d="M1501 776q0 -127 -42 -235t-111 -197t-157.5 -157.5t-181 -115t-181.5 -70.5t-160 -24q-60 0 -127 18.5t-132.5 55t-125.5 91t-105.5 126t-72.5 160t-27 193.5q0 140 39 256t103.5 208.5t147 161.5t169 114.5t170.5 68t151 22.5q71 0 146 -15t146.5 -48t135 -85.5
t111.5 -127.5t76 -174.5t28 -225.5zM1319 715q0 110 -27 199.5t-72.5 159t-105 120t-124 83.5t-130.5 48.5t-125 15.5q-94 0 -182 -35.5t-156.5 -111t-109.5 -194.5t-41 -285q0 -111 32 -199.5t84 -155.5t117.5 -115t133 -78t131 -44t110.5 -14t99.5 14t104.5 44.5t99 78.5
t83 115t57.5 155t21.5 199zM1157 1781q-15 -53 -35 -101t-47.5 -85t-64.5 -58.5t-85 -21.5q-33 0 -65 16t-61 35.5t-54 36.5t-45 19q-18 3 -38 -7q-17 -8 -39.5 -30.5t-45.5 -69.5l-47 -33q14 34 36 77.5t55.5 82.5t80 65.5t109.5 26.5q29 0 58.5 -14t57 -31t53 -31
t46.5 -14q8 0 20.5 7.5t25.5 20t23.5 28.5t14.5 32z" />
    <glyph glyph-name="Odieresis" unicode="&#xd6;" horiz-adv-x="1579" 
d="M1501 776q0 -127 -42 -235t-111 -197t-157.5 -157.5t-181 -115t-181.5 -70.5t-160 -24q-60 0 -127 18.5t-132.5 55t-125.5 91t-105.5 126t-72.5 160t-27 193.5q0 140 39 256t103.5 208.5t147 161.5t169 114.5t170.5 68t151 22.5q71 0 146 -15t146.5 -48t135 -85.5
t111.5 -127.5t76 -174.5t28 -225.5zM1319 715q0 110 -27 199.5t-72.5 159t-105 120t-124 83.5t-130.5 48.5t-125 15.5q-94 0 -182 -35.5t-156.5 -111t-109.5 -194.5t-41 -285q0 -111 32 -199.5t84 -155.5t117.5 -115t133 -78t131 -44t110.5 -14t99.5 14t104.5 44.5t99 78.5
t83 115t57.5 155t21.5 199zM1161 1607l-156 -108l-120 114l155 107zM794 1607l-155 -108l-121 114l156 107z" />
    <glyph glyph-name="multiply" unicode="&#xd7;" horiz-adv-x="997" 
d="M881 854q-19 -29 -49 -68t-69.5 -86t-88 -100t-103.5 -108q60 -73 124.5 -137.5t133.5 -118.5q-5 1 -17 -8.5t-28 -23.5t-33 -30.5t-32.5 -30t-27 -21t-15.5 -3.5q-66 49 -127.5 110t-120.5 129q-82 -72 -169.5 -136t-178.5 -113q99 85 174 158t135 139q-60 74 -115 150
t-106 151q45 31 80 57q15 11 29 21.5t25 18.5t17.5 13.5l6.5 5.5q45 -66 93.5 -134t100.5 -136q25 30 43.5 54.5t32.5 42.5q15 21 27 38q12 19 40.5 35.5t65.5 34.5t77 41t75 55z" />
    <glyph glyph-name="Oslash" unicode="&#xd8;" horiz-adv-x="1579" 
d="M1288 1642q-11 -33 -28 -73q-14 -35 -35 -84t-47 -111q67 -35 125.5 -87.5t102.5 -126t69.5 -169t25.5 -215.5q0 -127 -42 -235t-111 -197t-157.5 -157.5t-181 -115t-181.5 -70.5t-160 -24q-68 0 -143.5 23t-147.5 70q-34 -38 -68 -72.5t-69 -69.5q31 41 59.5 78.5
t56.5 75.5q-57 39 -107.5 92.5t-88.5 121.5t-60 149t-22 176q0 140 39 256t103.5 208.5t147 161.5t169 114.5t170.5 68t151 22.5q37 0 76.5 -4t79.5 -12q0 8 4 16q9 30 37 47t66.5 34t82 41t84.5 68zM735 1341q-94 0 -182 -35.5t-156.5 -111t-109.5 -194.5t-41 -285
q0 -82 18 -152t48.5 -128t72 -104.5t88.5 -82.5q112 168 195 321.5t143 286t99 241.5t63 187q-62 29 -123 43t-115 14zM1319 715q0 86 -16.5 159t-46 134t-69.5 109.5t-87 86.5q-50 -105 -112.5 -225t-137 -246.5t-161 -255.5t-183.5 -252q46 -31 94 -53t93.5 -36
t86.5 -20.5t74 -6.5q47 0 99.5 14t104.5 44.5t99 78.5t83 115t57.5 155t21.5 199z" />
    <glyph glyph-name="Ugrave" unicode="&#xd9;" horiz-adv-x="1591" 
d="M569 1444q-40 -28 -88.5 -59t-93.5 -50q-4 -128 -6.5 -233t-5 -189.5t-3.5 -149.5t-2 -114q-2 -114 -1 -174q-2 -71 20 -138t71.5 -120t129.5 -85t194 -32q62 2 129 18q57 14 126 42t135 82v1081q-14 2 -29 2h-29q-28 0 -55.5 -1.5t-50.5 -4.5q47 42 83.5 64t62.5 33
q30 12 52 14q19 0 48 0.5t61.5 1.5t66 2.5t62 3t49 3t27.5 3.5q-35 -25 -78.5 -52.5t-83.5 -45.5v-1031q-1 -49 -6 -91q-5 -36 -13.5 -70.5t-25.5 -47.5q56 -8 99 -10t75 -2q57 0 82 4t28 6q-47 -27 -86 -46.5t-73.5 -32t-67 -19t-65.5 -6.5h-195q23 8 35.5 35t18.5 56
q7 33 8 73v47q-106 -86 -202 -132t-171 -67q-87 -25 -164 -28q-126 0 -211.5 33.5t-137 93.5t-73 144t-18.5 185q-1 83 1 209q1 108 3.5 274.5t7.5 401.5h-45q-28 0 -56 -1.5t-51 -4.5q47 42 83.5 64t62.5 33q30 12 53 14q19 0 48 0.5t61.5 1.5t66 2.5t62 3t48.5 3t27 3.5z
M1599 104v1h1q1 1 2 1zM895 1528q-10 -9 -29 -25t-40.5 -32t-41 -28t-30.5 -12q-94 60 -170 140.5t-129 177.5q0 4 22 19t48 32q31 19 71 43q29 -49 57 -90.5t61.5 -79t77 -73t103.5 -72.5z" />
    <glyph glyph-name="Uacute" unicode="&#xda;" horiz-adv-x="1591" 
d="M569 1444q-40 -28 -88.5 -59t-93.5 -50q-4 -128 -6.5 -233t-5 -189.5t-3.5 -149.5t-2 -114q-2 -114 -1 -174q-2 -71 20 -138t71.5 -120t129.5 -85t194 -32q62 2 129 18q57 14 126 42t135 82v1081q-14 2 -29 2h-29q-28 0 -55.5 -1.5t-50.5 -4.5q47 42 83.5 64t62.5 33
q30 12 52 14q19 0 48 0.5t61.5 1.5t66 2.5t62 3t49 3t27.5 3.5q-35 -25 -78.5 -52.5t-83.5 -45.5v-1031q-1 -49 -6 -91q-5 -36 -13.5 -70.5t-25.5 -47.5q56 -8 99 -10t75 -2q57 0 82 4t28 6q-47 -27 -86 -46.5t-73.5 -32t-67 -19t-65.5 -6.5h-195q23 8 35.5 35t18.5 56
q7 33 8 73v47q-106 -86 -202 -132t-171 -67q-87 -25 -164 -28q-126 0 -211.5 33.5t-137 93.5t-73 144t-18.5 185q-1 83 1 209q1 108 3.5 274.5t7.5 401.5h-45q-28 0 -56 -1.5t-51 -4.5q47 42 83.5 64t62.5 33q30 12 53 14q19 0 48 0.5t61.5 1.5t66 2.5t62 3t48.5 3t27 3.5z
M1599 104v1h1q1 1 2 1zM1306 1867q-27 -36 -52 -69q-21 -28 -43 -56t-36 -43q-63 -69 -130 -118t-124 -81q-66 -37 -129 -61q-1 3 -1 6q0 6 1 7q51 41 84 74t59 64.5t49.5 64.5t55.5 75q24 24 54.5 39.5t65.5 29t72 29t74 39.5z" />
    <glyph glyph-name="Ucircumflex" unicode="&#xdb;" horiz-adv-x="1591" 
d="M569 1444q-40 -28 -88.5 -59t-93.5 -50q-4 -128 -6.5 -233t-5 -189.5t-3.5 -149.5t-2 -114q-2 -114 -1 -174q-2 -71 20 -138t71.5 -120t129.5 -85t194 -32q62 2 129 18q57 14 126 42t135 82v1081q-14 2 -29 2h-29q-28 0 -55.5 -1.5t-50.5 -4.5q47 42 83.5 64t62.5 33
q30 12 52 14q19 0 48 0.5t61.5 1.5t66 2.5t62 3t49 3t27.5 3.5q-35 -25 -78.5 -52.5t-83.5 -45.5v-1031q-1 -49 -6 -91q-5 -36 -13.5 -70.5t-25.5 -47.5q56 -8 99 -10t75 -2q57 0 82 4t28 6q-47 -27 -86 -46.5t-73.5 -32t-67 -19t-65.5 -6.5h-195q23 8 35.5 35t18.5 56
q7 33 8 73v47q-106 -86 -202 -132t-171 -67q-87 -25 -164 -28q-126 0 -211.5 33.5t-137 93.5t-73 144t-18.5 185q-1 83 1 209q1 108 3.5 274.5t7.5 401.5h-45q-28 0 -56 -1.5t-51 -4.5q47 42 83.5 64t62.5 33q30 12 53 14q19 0 48 0.5t61.5 1.5t66 2.5t62 3t48.5 3t27 3.5z
M1599 104v1h1q1 1 2 1zM1161 1608q-10 -8 -21.5 -19.5t-28 -25t-40 -29t-57.5 -30.5q-53 62 -107 125.5t-100 117.5q-78 -102 -144 -157t-114 -70l-31 20q75 50 139 117t111 142l145 100q32 -38 67 -80.5t68 -82.5t62.5 -74t50.5 -54z" />
    <glyph glyph-name="Udieresis" unicode="&#xdc;" horiz-adv-x="1591" 
d="M569 1444q-40 -28 -88.5 -59t-93.5 -50q-4 -128 -6.5 -233t-5 -189.5t-3.5 -149.5t-2 -114q-2 -114 -1 -174q-2 -71 20 -138t71.5 -120t129.5 -85t194 -32q62 2 129 18q57 14 126 42t135 82v1081q-14 2 -29 2h-29q-28 0 -55.5 -1.5t-50.5 -4.5q47 42 83.5 64t62.5 33
q30 12 52 14q19 0 48 0.5t61.5 1.5t66 2.5t62 3t49 3t27.5 3.5q-35 -25 -78.5 -52.5t-83.5 -45.5v-1031q-1 -49 -6 -91q-5 -36 -13.5 -70.5t-25.5 -47.5q56 -8 99 -10t75 -2q57 0 82 4t28 6q-47 -27 -86 -46.5t-73.5 -32t-67 -19t-65.5 -6.5h-195q23 8 35.5 35t18.5 56
q7 33 8 73v47q-106 -86 -202 -132t-171 -67q-87 -25 -164 -28q-126 0 -211.5 33.5t-137 93.5t-73 144t-18.5 185q-1 83 1 209q1 108 3.5 274.5t7.5 401.5h-45q-28 0 -56 -1.5t-51 -4.5q47 42 83.5 64t62.5 33q30 12 53 14q19 0 48 0.5t61.5 1.5t66 2.5t62 3t48.5 3t27 3.5z
M1599 104v1h1q1 1 2 1zM1155 1589l-156 -108l-120 114l155 107zM788 1589l-155 -108l-121 114l156 107z" />
    <glyph glyph-name="Yacute" unicode="&#xdd;" horiz-adv-x="1247" 
d="M969 113q-56 -36 -107 -59.5t-108 -37t-124 -19t-153 -5.5q17 14 27.5 27.5t16.5 31t9 41.5t5 58q0 29 2 88q2 50 5 136t9 220q-109 190 -186 321t-128.5 216t-80.5 130.5t-43 65.5q-29 -3 -69.5 -8.5t-88.5 -13.5q54 50 97 76t74 38q36 14 64 15q36 -1 78 1t82 6.5
t72.5 10t48.5 12.5q-43 -34 -79 -56t-70 -38l376 -625q78 127 132 225.5t88.5 171t52 119.5t24.5 70q-29 -2 -80.5 -5.5t-119.5 -12.5q42 34 76.5 57t69 37t71.5 20.5t84 6.5q32 0 65.5 1.5t63.5 4.5t54 7t38 9q-63 -46 -111.5 -71t-93.5 -37q-58 -130 -117.5 -238
t-112.5 -192t-96.5 -143t-68.5 -91q-2 -90 -4 -160.5t-3.5 -124.5t-2.5 -92.5t-1 -65.5q-2 -62 -1 -83q0 -12 -3 -24q-2 -11 -8 -22.5t-16 -19.5q20 -2 38.5 -2h35.5q58 0 99.5 3t67.5 8q31 5 50 12zM1155 1859q-27 -36 -52 -69q-21 -28 -43 -56t-36 -43q-63 -69 -130 -118
t-124 -81q-66 -37 -129 -61q-1 3 -1 6q0 6 1 7q51 41 84 74t59 64.5t49.5 64.5t55.5 75q24 24 54.5 39.5t65.5 29t72 29t74 39.5z" />
    <glyph glyph-name="Thorn" unicode="&#xde;" horiz-adv-x="1130" 
d="M412 1530l-6 -359q83 4 160.5 14.5t156.5 10.5t151 -27.5t125.5 -78.5t81.5 -124t19 -163q-7 -67 -30.5 -123.5t-57.5 -103t-73.5 -83.5t-78 -64.5t-72.5 -46.5t-55 -30q-29 -13 -63 -23q-29 -8 -67.5 -15t-82.5 -5l103 49q57 -3 114 30.5t101 94.5t69.5 144t18.5 178
q-6 70 -39.5 125.5t-80.5 93.5t-102 58t-106 20q-37 0 -87.5 -2.5t-107.5 -7.5q-3 -141 -5.5 -252.5t-5 -198t-4.5 -150t-4 -108.5q-4 -106 -9 -145q-3 -20 -10 -41q-6 -18 -16.5 -39t-26.5 -41q43 -5 77.5 -5.5t63.5 -0.5q69 0 101.5 4t37.5 6q-52 -26 -98 -48t-88 -39
t-80.5 -26.5t-75.5 -9.5h-174l88 59q7 26 13.5 62t11.5 77.5t8.5 86t6.5 87.5q6 99 9 210q0 77 2 161q1 72 2.5 159t3.5 175q-54 -6 -100.5 -10t-77.5 -6l178 106q2 57 2 105.5v83.5z" />
    <glyph glyph-name="germandbls" unicode="&#xdf;" horiz-adv-x="995" 
d="M1008 1544q0 -66 -24.5 -126t-60.5 -116t-79 -109.5t-79 -106t-60.5 -106.5t-24.5 -110q0 -55 20 -100t49.5 -84t64.5 -74.5t64.5 -71t49.5 -73.5t20 -82q0 -45 -24 -92t-63 -91.5t-89 -84.5t-103 -70t-104 -47.5t-92 -17.5q-38 0 -66 11t-34 34q-5 18 12.5 44.5t43 53
t53 50t42.5 36.5q-3 -48 21 -68.5t78 -23.5q26 -2 56 3.5t56 17t43 29.5t17 42q0 53 -18 97.5t-45.5 84.5t-59.5 79t-59.5 80.5t-45.5 88.5t-18 104q0 50 21.5 106t53 118t69 130t69 141t53 151t21.5 161q0 45 -11 77.5t-30.5 53.5t-45.5 31t-55 10q-76 0 -129.5 -37.5
t-90 -97t-58 -135t-34 -152t-19 -146t-11.5 -118.5q-13 -121 -22 -258t-16.5 -275t-15 -271t-17 -246.5t-23 -201t-33.5 -134.5q-23 -54 -59.5 -108t-83.5 -104.5t-102 -94t-113 -75.5t-118 -50.5t-116 -18.5q-57 0 -105.5 12.5t-76.5 30.5q-17 10 -16 26.5t13 36t32 40
t42 39.5t42.5 34t34.5 23q-6 -24 -1.5 -42t24 -31.5t56 -23.5t93.5 -18q112 -17 194 52t119 225q16 65 27 153.5t20 191.5t15.5 217t12.5 232t13 235.5t16 227.5q0 8 1 14.5t1 14.5q-29 -2 -61 -8.5t-61 -22.5q43 35 76.5 73.5t58.5 82.5q18 157 44 265.5t61.5 185t82.5 129
t109 96.5q66 46 138 69t138 23q57 0 100.5 -18t72.5 -50t44 -76t15 -96z" />
    <glyph glyph-name="agrave" unicode="&#xe0;" horiz-adv-x="1010" 
d="M1030 260q-9 -14 -25 -33.5t-32 -38.5q-18 -22 -39 -45q-26 -32 -56 -62t-59.5 -53.5t-57.5 -37.5t-50 -13q-42 2 -58 51.5t-16 143.5q0 50 3 108t9 130q-22 -35 -42 -64t-36 -51q-18 -26 -36 -47q-53 -65 -102.5 -115t-91 -84t-73 -52t-49.5 -20t-43.5 12t-48.5 54
t-39.5 112t-15.5 187t24.5 202.5t61 153t83.5 113t91 82.5q93 71 178.5 113.5t167.5 44.5q27 1 53 -1q23 -2 49.5 -6.5t50.5 -13.5l29 23q-6 -28 -12.5 -76t-12.5 -108t-12 -128t-10.5 -136.5t-8.5 -133t-6.5 -117.5t-3 -90t0.5 -51q5 -57 26.5 -78t59.5 4q15 12 37 38
q19 22 46.5 60.5t65.5 100.5v-78zM688 897q-95 12 -156 12q-65 0 -113 -21t-82 -56.5t-56 -82t-34.5 -98.5t-17 -106t-4.5 -103q0 -17 2 -46t7.5 -62t14 -67t22 -61.5t31.5 -45t42 -17.5q26 0 63.5 28.5t90.5 96.5q31 42 62 101q26 50 55.5 123t52.5 170zM616 1193
q-10 -9 -29 -25t-40.5 -32t-41 -28t-30.5 -12q-94 60 -170 140.5t-129 177.5q0 4 22 19t48 32q31 19 71 43q29 -49 57 -90.5t61.5 -79t77 -73t103.5 -72.5z" />
    <glyph glyph-name="aacute" unicode="&#xe1;" horiz-adv-x="1010" 
d="M1030 260q-9 -14 -25 -33.5t-32 -38.5q-18 -22 -39 -45q-26 -32 -56 -62t-59.5 -53.5t-57.5 -37.5t-50 -13q-42 2 -58 51.5t-16 143.5q0 50 3 108t9 130q-22 -35 -42 -64t-36 -51q-18 -26 -36 -47q-53 -65 -102.5 -115t-91 -84t-73 -52t-49.5 -20t-43.5 12t-48.5 54
t-39.5 112t-15.5 187t24.5 202.5t61 153t83.5 113t91 82.5q93 71 178.5 113.5t167.5 44.5q27 1 53 -1q23 -2 49.5 -6.5t50.5 -13.5l29 23q-6 -28 -12.5 -76t-12.5 -108t-12 -128t-10.5 -136.5t-8.5 -133t-6.5 -117.5t-3 -90t0.5 -51q5 -57 26.5 -78t59.5 4q15 12 37 38
q19 22 46.5 60.5t65.5 100.5v-78zM688 897q-95 12 -156 12q-65 0 -113 -21t-82 -56.5t-56 -82t-34.5 -98.5t-17 -106t-4.5 -103q0 -17 2 -46t7.5 -62t14 -67t22 -61.5t31.5 -45t42 -17.5q26 0 63.5 28.5t90.5 96.5q31 42 62 101q26 50 55.5 123t52.5 170zM1003 1520
q-27 -36 -52 -69q-21 -28 -43 -56t-36 -43q-63 -69 -130 -118t-124 -81q-66 -37 -129 -61q-1 3 -1 6q0 6 1 7q51 41 84 74t59 64.5t49.5 64.5t55.5 75q24 24 54.5 39.5t65.5 29t72 29t74 39.5z" />
    <glyph glyph-name="acircumflex" unicode="&#xe2;" horiz-adv-x="1010" 
d="M1030 260q-9 -14 -25 -33.5t-32 -38.5q-18 -22 -39 -45q-26 -32 -56 -62t-59.5 -53.5t-57.5 -37.5t-50 -13q-42 2 -58 51.5t-16 143.5q0 50 3 108t9 130q-22 -35 -42 -64t-36 -51q-18 -26 -36 -47q-53 -65 -102.5 -115t-91 -84t-73 -52t-49.5 -20t-43.5 12t-48.5 54
t-39.5 112t-15.5 187t24.5 202.5t61 153t83.5 113t91 82.5q93 71 178.5 113.5t167.5 44.5q27 1 53 -1q23 -2 49.5 -6.5t50.5 -13.5l29 23q-6 -28 -12.5 -76t-12.5 -108t-12 -128t-10.5 -136.5t-8.5 -133t-6.5 -117.5t-3 -90t0.5 -51q5 -57 26.5 -78t59.5 4q15 12 37 38
q19 22 46.5 60.5t65.5 100.5v-78zM688 897q-95 12 -156 12q-65 0 -113 -21t-82 -56.5t-56 -82t-34.5 -98.5t-17 -106t-4.5 -103q0 -17 2 -46t7.5 -62t14 -67t22 -61.5t31.5 -45t42 -17.5q26 0 63.5 28.5t90.5 96.5q31 42 62 101q26 50 55.5 123t52.5 170zM887 1220
q-10 -8 -21.5 -19.5t-28 -25t-40 -29t-57.5 -30.5q-53 62 -107 125.5t-100 117.5q-78 -102 -144 -157t-114 -70l-31 20q75 50 139 117t111 142l145 100q32 -38 67 -80.5t68 -82.5t62.5 -74t50.5 -54z" />
    <glyph glyph-name="atilde" unicode="&#xe3;" horiz-adv-x="1010" 
d="M1030 260q-9 -14 -25 -33.5t-32 -38.5q-18 -22 -39 -45q-26 -32 -56 -62t-59.5 -53.5t-57.5 -37.5t-50 -13q-42 2 -58 51.5t-16 143.5q0 50 3 108t9 130q-22 -35 -42 -64t-36 -51q-18 -26 -36 -47q-53 -65 -102.5 -115t-91 -84t-73 -52t-49.5 -20t-43.5 12t-48.5 54
t-39.5 112t-15.5 187t24.5 202.5t61 153t83.5 113t91 82.5q93 71 178.5 113.5t167.5 44.5q27 1 53 -1q23 -2 49.5 -6.5t50.5 -13.5l29 23q-6 -28 -12.5 -76t-12.5 -108t-12 -128t-10.5 -136.5t-8.5 -133t-6.5 -117.5t-3 -90t0.5 -51q5 -57 26.5 -78t59.5 4q15 12 37 38
q19 22 46.5 60.5t65.5 100.5v-78zM688 897q-95 12 -156 12q-65 0 -113 -21t-82 -56.5t-56 -82t-34.5 -98.5t-17 -106t-4.5 -103q0 -17 2 -46t7.5 -62t14 -67t22 -61.5t31.5 -45t42 -17.5q26 0 63.5 28.5t90.5 96.5q31 42 62 101q26 50 55.5 123t52.5 170zM873 1403
q-15 -53 -35 -101t-47.5 -85t-64.5 -58.5t-85 -21.5q-33 0 -65 16t-61 35.5t-54 36.5t-45 19q-18 3 -38 -7q-17 -8 -39.5 -30.5t-45.5 -69.5l-47 -33q14 34 36 77.5t55.5 82.5t80 65.5t109.5 26.5q29 0 58.5 -14t57 -31t53 -31t46.5 -14q8 0 20.5 7.5t25.5 20t23.5 28.5
t14.5 32z" />
    <glyph glyph-name="adieresis" unicode="&#xe4;" horiz-adv-x="1010" 
d="M1030 260q-9 -14 -25 -33.5t-32 -38.5q-18 -22 -39 -45q-26 -32 -56 -62t-59.5 -53.5t-57.5 -37.5t-50 -13q-42 2 -58 51.5t-16 143.5q0 50 3 108t9 130q-22 -35 -42 -64t-36 -51q-18 -26 -36 -47q-53 -65 -102.5 -115t-91 -84t-73 -52t-49.5 -20t-43.5 12t-48.5 54
t-39.5 112t-15.5 187t24.5 202.5t61 153t83.5 113t91 82.5q93 71 178.5 113.5t167.5 44.5q27 1 53 -1q23 -2 49.5 -6.5t50.5 -13.5l29 23q-6 -28 -12.5 -76t-12.5 -108t-12 -128t-10.5 -136.5t-8.5 -133t-6.5 -117.5t-3 -90t0.5 -51q5 -57 26.5 -78t59.5 4q15 12 37 38
q19 22 46.5 60.5t65.5 100.5v-78zM688 897q-95 12 -156 12q-65 0 -113 -21t-82 -56.5t-56 -82t-34.5 -98.5t-17 -106t-4.5 -103q0 -17 2 -46t7.5 -62t14 -67t22 -61.5t31.5 -45t42 -17.5q26 0 63.5 28.5t90.5 96.5q31 42 62 101q26 50 55.5 123t52.5 170zM854 1264
l-156 -108l-120 114l155 107zM487 1264l-155 -108l-121 114l156 107z" />
    <glyph glyph-name="aring" unicode="&#xe5;" horiz-adv-x="1010" 
d="M1030 260q-9 -14 -25 -33.5t-32 -38.5q-18 -22 -39 -45q-26 -32 -56 -62t-59.5 -53.5t-57.5 -37.5t-50 -13q-42 2 -58 51.5t-16 143.5q0 50 3 108t9 130q-22 -35 -42 -64t-36 -51q-18 -26 -36 -47q-53 -65 -102.5 -115t-91 -84t-73 -52t-49.5 -20t-43.5 12t-48.5 54
t-39.5 112t-15.5 187t24.5 202.5t61 153t83.5 113t91 82.5q93 71 178.5 113.5t167.5 44.5q27 1 53 -1q23 -2 49.5 -6.5t50.5 -13.5l29 23q-6 -28 -12.5 -76t-12.5 -108t-12 -128t-10.5 -136.5t-8.5 -133t-6.5 -117.5t-3 -90t0.5 -51q5 -57 26.5 -78t59.5 4q15 12 37 38
q19 22 46.5 60.5t65.5 100.5v-78zM688 897q-95 12 -156 12q-65 0 -113 -21t-82 -56.5t-56 -82t-34.5 -98.5t-17 -106t-4.5 -103q0 -17 2 -46t7.5 -62t14 -67t22 -61.5t31.5 -45t42 -17.5q26 0 63.5 28.5t90.5 96.5q31 42 62 101q26 50 55.5 123t52.5 170zM733 1335
q0 -40 -18 -77t-47.5 -65.5t-66.5 -45.5t-75 -17q-26 0 -49 9.5t-41 27.5t-28.5 43t-10.5 57q0 41 17.5 79.5t46.5 68.5t66.5 48.5t76.5 18.5q25 0 48.5 -11.5t41.5 -31.5t28.5 -46.5t10.5 -57.5zM485 1392q-11 -85 21 -128.5t92 -43.5q20 0 49 6q13 47 2 81.5t-36 56
t-59.5 28.5t-68.5 0z" />
    <glyph glyph-name="ae" unicode="&#xe6;" horiz-adv-x="1094" 
d="M119 756q30 34 70.5 78.5t86.5 84.5t94.5 67.5t94.5 27.5q34 0 60.5 -18t45.5 -47t31.5 -66t20.5 -74q33 45 71.5 85.5t82 70.5t91.5 47.5t99 17.5q21 0 35 -7.5t22.5 -20.5t12 -29t3.5 -33q0 -44 -20 -88t-53.5 -86.5t-76.5 -83t-89.5 -77t-92 -68.5t-83.5 -58v-22
q0 -25 2.5 -60.5t9 -74t17.5 -76.5t27.5 -68t40 -48.5t54.5 -18.5q27 0 54 16.5t53 43t50 59t44.5 64.5t36.5 60.5t26 46.5v-110q-53 -60 -98 -105.5t-78 -76.5q-39 -36 -71 -62q-89 -70 -154 -70q-53 0 -92 46q-19 20 -36 62t-30 99q-38 -52 -76 -89t-72 -61.5t-59.5 -38
t-37.5 -18.5q-22 -8 -42 -11t-38 -3q-30 0 -51 11t-34.5 29.5t-19.5 42t-6 48.5q0 28 7 59t20.5 61.5t33.5 59.5t46 54q48 45 89.5 74.5t80 58t76 63.5t77.5 92q-2 5 -2 8.5v8.5q-14 124 -54 186t-91 62q-33 0 -65 -24t-59.5 -57.5t-48.5 -69.5t-32 -60zM274 362
q-42 -35 -59.5 -78t-17.5 -83q0 -32 10 -57t29 -38q11 -14 32.5 -17.5t45.5 3.5t46.5 24t36.5 46q12 24 26.5 61.5t27 85.5t20.5 105.5t8 120.5v24q-32 -39 -53.5 -62.5t-42.5 -42.5t-46 -39t-63 -53zM854 881q-48 6 -82 -8t-58 -41t-38.5 -63.5t-23.5 -76t-14 -78.5t-9 -71
q32 19 66 44t65.5 53t57 58.5t40 62t15 62t-18.5 58.5z" />
    <glyph glyph-name="ccedilla" unicode="&#xe7;" horiz-adv-x="737" 
d="M737 965q-10 -11 -29 -29q-17 -15 -46.5 -38.5t-77.5 -55.5q12 11 13 20t-2 16q-4 8 -13 15q-16 9 -51.5 14.5t-75.5 5.5q-34 0 -64 -4.5t-49 -15.5q-18 -11 -38.5 -53t-37.5 -102t-28 -131.5t-11 -141.5q0 -33 3.5 -72t11.5 -77.5t22 -74t35 -62.5t49 -42t66 -12
q24 4 54 21q25 14 58.5 43.5t71.5 82.5l84 25q-53 -60 -95 -102.5t-71 -69.5q-34 -32 -61 -51q-44 -29 -79 -51t-69 -33l-98 -119q6 6 22 9t27 5q29 4 57.5 1t51 -13t37.5 -27t18 -41q5 -37 -12 -70.5t-48 -61.5t-72.5 -49t-84.5 -34.5t-84.5 -18.5t-73.5 1l49 90
q17 -12 37 -18.5t38.5 -8.5t33 -1t20.5 4q28 11 46 24.5t12 44.5q-3 28 -16 45t-31 26t-39.5 12t-42.5 3q-20 0 -41 -2t-41 -8q34 42 61.5 74t48.5 55.5t37.5 40.5t28.5 29h-21q-24 2 -51.5 27t-51.5 69.5t-40 107.5t-16 142q0 86 16.5 174t49.5 169.5t84 151t120 117.5
q36 25 78.5 44t85 31t82 17t69.5 4q60 -3 81.5 -22.5t2.5 -48.5z" />
    <glyph glyph-name="egrave" unicode="&#xe8;" horiz-adv-x="692" 
d="M639 291q-53 -60 -97.5 -105.5t-78.5 -76.5q-40 -36 -72 -62q-88 -70 -153 -70q-37 0 -63.5 19.5t-45.5 50.5t-31 70t-18.5 78.5t-9 75.5t-2.5 61q0 67 15.5 145t45 155.5t72.5 149t98.5 127t122 88.5t143.5 33q21 0 35 -7.5t23 -20.5t12.5 -29t3.5 -33q0 -44 -20 -88
t-53.5 -86.5t-76.5 -83t-89.5 -77t-92.5 -68.5t-84 -58v-22q0 -25 2.5 -60.5t9 -74t17.5 -76.5t28 -68t40.5 -48.5t54.5 -18.5q14 0 29 4.5t30 15.5q26 21 59 58q28 32 65 83t81 129v-110zM453 881q-12 14 -31 18t-40.5 -2t-42 -23t-34.5 -45q-20 -40 -44 -114.5t-34 -171.5
q32 19 66 44t65.5 53t57 58.5t40 62t15.5 62t-18 58.5zM506 1142q-10 -9 -29 -25t-40.5 -32t-41 -28t-30.5 -12q-94 60 -170 140.5t-129 177.5q0 4 22 19t48 32q31 19 71 43q29 -49 57 -90.5t61.5 -79t77 -73t103.5 -72.5z" />
    <glyph glyph-name="eacute" unicode="&#xe9;" horiz-adv-x="692" 
d="M639 291q-53 -60 -97.5 -105.5t-78.5 -76.5q-40 -36 -72 -62q-88 -70 -153 -70q-37 0 -63.5 19.5t-45.5 50.5t-31 70t-18.5 78.5t-9 75.5t-2.5 61q0 67 15.5 145t45 155.5t72.5 149t98.5 127t122 88.5t143.5 33q21 0 35 -7.5t23 -20.5t12.5 -29t3.5 -33q0 -44 -20 -88
t-53.5 -86.5t-76.5 -83t-89.5 -77t-92.5 -68.5t-84 -58v-22q0 -25 2.5 -60.5t9 -74t17.5 -76.5t28 -68t40.5 -48.5t54.5 -18.5q14 0 29 4.5t30 15.5q26 21 59 58q28 32 65 83t81 129v-110zM453 881q-12 14 -31 18t-40.5 -2t-42 -23t-34.5 -45q-20 -40 -44 -114.5t-34 -171.5
q32 19 66 44t65.5 53t57 58.5t40 62t15.5 62t-18 58.5zM827 1479q-27 -36 -52 -69q-21 -28 -43 -56t-36 -43q-63 -69 -130 -118t-124 -81q-66 -37 -129 -61q-1 3 -1 6q0 6 1 7q51 41 84 74t59 64.5t49.5 64.5t55.5 75q24 24 54.5 39.5t65.5 29t72 29t74 39.5z" />
    <glyph glyph-name="ecircumflex" unicode="&#xea;" horiz-adv-x="692" 
d="M639 291q-53 -60 -97.5 -105.5t-78.5 -76.5q-40 -36 -72 -62q-88 -70 -153 -70q-37 0 -63.5 19.5t-45.5 50.5t-31 70t-18.5 78.5t-9 75.5t-2.5 61q0 67 15.5 145t45 155.5t72.5 149t98.5 127t122 88.5t143.5 33q21 0 35 -7.5t23 -20.5t12.5 -29t3.5 -33q0 -44 -20 -88
t-53.5 -86.5t-76.5 -83t-89.5 -77t-92.5 -68.5t-84 -58v-22q0 -25 2.5 -60.5t9 -74t17.5 -76.5t28 -68t40.5 -48.5t54.5 -18.5q14 0 29 4.5t30 15.5q26 21 59 58q28 32 65 83t81 129v-110zM453 881q-12 14 -31 18t-40.5 -2t-42 -23t-34.5 -45q-20 -40 -44 -114.5t-34 -171.5
q32 19 66 44t65.5 53t57 58.5t40 62t15.5 62t-18 58.5zM709 1189q-10 -8 -21.5 -19.5t-28 -25t-40 -29t-57.5 -30.5q-53 62 -107 125.5t-100 117.5q-78 -102 -144 -157t-114 -70l-31 20q75 50 139 117t111 142l145 100q32 -38 67 -80.5t68 -82.5t62.5 -74t50.5 -54z" />
    <glyph glyph-name="edieresis" unicode="&#xeb;" horiz-adv-x="692" 
d="M639 291q-53 -60 -97.5 -105.5t-78.5 -76.5q-40 -36 -72 -62q-88 -70 -153 -70q-37 0 -63.5 19.5t-45.5 50.5t-31 70t-18.5 78.5t-9 75.5t-2.5 61q0 67 15.5 145t45 155.5t72.5 149t98.5 127t122 88.5t143.5 33q21 0 35 -7.5t23 -20.5t12.5 -29t3.5 -33q0 -44 -20 -88
t-53.5 -86.5t-76.5 -83t-89.5 -77t-92.5 -68.5t-84 -58v-22q0 -25 2.5 -60.5t9 -74t17.5 -76.5t28 -68t40.5 -48.5t54.5 -18.5q14 0 29 4.5t30 15.5q26 21 59 58q28 32 65 83t81 129v-110zM453 881q-12 14 -31 18t-40.5 -2t-42 -23t-34.5 -45q-20 -40 -44 -114.5t-34 -171.5
q32 19 66 44t65.5 53t57 58.5t40 62t15.5 62t-18 58.5zM711 1195l-156 -108l-120 114l155 107zM344 1195l-155 -108l-121 114l156 107z" />
    <glyph glyph-name="igrave" unicode="&#xec;" horiz-adv-x="528" 
d="M570 311l-22 -82q-17 -17 -41.5 -42.5t-54 -54t-61.5 -56.5t-63 -50t-59.5 -34.5t-50.5 -9.5q-20 2 -32 19.5t-18.5 42.5t-9 55.5t-3 59t0.5 52.5t1 37q2 41 4.5 93t6 108.5t6.5 113t6.5 107t6.5 90.5t5 63q3 35 -14 50.5t-42 15.5q-23 0 -48 -11.5t-44 -31.5
q42 42 74 70t55 45q26 20 45 32q25 15 48.5 15.5t42 -11.5t29 -35t9.5 -55q-1 -22 -4.5 -70.5t-8 -110.5t-10 -131t-10 -133t-8 -116t-4.5 -80q-2 -57 13 -92t47 -35q16 0 35.5 10t40 25.5t41.5 34.5t38.5 38t31.5 36t21 28zM320 1175q-10 -9 -29 -25t-40.5 -32t-41 -28
t-30.5 -12q-94 60 -170 140.5t-129 177.5q0 4 22 19t48 32q31 19 71 43q29 -49 57 -90.5t61.5 -79t77 -73t103.5 -72.5z" />
    <glyph glyph-name="iacute" unicode="&#xed;" horiz-adv-x="528" 
d="M573 311l-22 -82q-17 -17 -41.5 -42.5t-54 -54t-61.5 -56.5t-63 -50t-59.5 -34.5t-50.5 -9.5q-20 2 -32 19.5t-18.5 42.5t-9 55.5t-3 59t0.5 52.5t1 37q2 41 4.5 93t6 108.5t6.5 113t6.5 107t6.5 90.5t5 63q3 35 -14 50.5t-42 15.5q-23 0 -48 -11.5t-44 -31.5
q42 42 74 70t55 45q26 20 45 32q25 15 48.5 15.5t42 -11.5t29 -35t9.5 -55q-1 -22 -4.5 -70.5t-8 -110.5t-10 -131t-10 -133t-8 -116t-4.5 -80q-2 -57 13 -92t47 -35q16 0 35.5 10t40 25.5t41.5 34.5t38.5 38t31.5 36t21 28zM684 1485q-27 -36 -52 -69q-21 -28 -43 -56
t-36 -43q-63 -69 -130 -118t-124 -81q-66 -37 -129 -61q-1 3 -1 6q0 6 1 7q51 41 84 74t59 64.5t49.5 64.5t55.5 75q24 24 54.5 39.5t65.5 29t72 29t74 39.5z" />
    <glyph glyph-name="icircumflex" unicode="&#xee;" horiz-adv-x="528" 
d="M570 311l-22 -82q-17 -17 -41.5 -42.5t-54 -54t-61.5 -56.5t-63 -50t-59.5 -34.5t-50.5 -9.5q-20 2 -32 19.5t-18.5 42.5t-9 55.5t-3 59t0.5 52.5t1 37q2 41 4.5 93t6 108.5t6.5 113t6.5 107t6.5 90.5t5 63q3 35 -14 50.5t-42 15.5q-23 0 -48 -11.5t-44 -31.5
q42 42 74 70t55 45q26 20 45 32q25 15 48.5 15.5t42 -11.5t29 -35t9.5 -55q-1 -22 -4.5 -70.5t-8 -110.5t-10 -131t-10 -133t-8 -116t-4.5 -80q-2 -57 13 -92t47 -35q16 0 35.5 10t40 25.5t41.5 34.5t38.5 38t31.5 36t21 28zM605 1158q-10 -8 -21.5 -19.5t-28 -25t-40 -29
t-57.5 -30.5q-53 62 -107 125.5t-100 117.5q-78 -102 -144 -157t-114 -70l-31 20q75 50 139 117t111 142l145 100q32 -38 67 -80.5t68 -82.5t62.5 -74t50.5 -54z" />
    <glyph glyph-name="idieresis" unicode="&#xef;" horiz-adv-x="528" 
d="M604 1208l-155 -108l-121 114l155 107zM279 1208l-156 -108l-121 114l156 107zM569 311l-22 -82q-17 -17 -41.5 -42.5t-54 -54t-61.5 -56.5t-63 -50t-59.5 -34.5t-50.5 -9.5q-20 2 -32 19.5t-18.5 42.5t-9 55.5t-3 59t0.5 52.5t1 37q2 41 4.5 93t6 108.5t6.5 113t6.5 107
t6.5 90.5t5 63q3 35 -14 50.5t-42 15.5q-23 0 -48 -11.5t-44 -31.5q42 42 74 70t55 45q26 20 45 32q25 15 48.5 15.5t42 -11.5t29 -35t9.5 -55q-1 -22 -4.5 -70.5t-8 -110.5t-10 -131t-10 -133t-8 -116t-4.5 -80q-2 -57 13 -92t47 -35q16 0 35.5 10t40 25.5t41.5 34.5
t38.5 38t31.5 36t21 28z" />
    <glyph glyph-name="eth" unicode="&#xf0;" 
d="M743 1485q-27 -36 -52 -69q-21 -28 -43 -56t-36 -43l-43 -45q88 -103 142.5 -232.5t62.5 -269.5q3 -78 -5 -153t-23.5 -140.5t-38 -119t-48.5 -87.5q-17 -23 -47.5 -53.5t-68.5 -63t-81 -64.5t-85 -56.5t-80.5 -40t-67.5 -15.5q-34 0 -59 17.5t-43 46t-30 64t-19 71
t-9.5 68t-2.5 55.5q0 88 16 174.5t49.5 164.5t84.5 144.5t122 114.5q62 42 107.5 72t82.5 47q-20 40 -45.5 76.5t-54.5 68.5q-42 -27 -77.5 -46.5t-62.5 -32.5q-32 -15 -59 -25q-1 2 -1 5q0 6 1 7q53 43 86.5 77t61.5 66q-36 31 -74 56t-74 42t-69 25.5t-58 7.5
q32 29 66.5 47.5t63.5 29.5q34 13 67 20q42 0 89.5 -23t96.5 -63q24 21 54 35.5t63.5 27.5t69.5 28.5t71 39.5zM616 604q0 85 -15 146t-38 96q-18 29 -48.5 48t-65.5 19q-22 0 -45.5 -9.5t-43.5 -29.5q-40 -40 -64.5 -91.5t-38.5 -108.5t-19 -115t-5 -110q0 -27 1 -62.5
t6 -73t14.5 -74.5t26 -65.5t41.5 -46.5t61 -18q48 0 84 27.5t62 71.5t42.5 99t26.5 110t14 104.5t4 82.5z" />
    <glyph glyph-name="ntilde" unicode="&#xf1;" horiz-adv-x="1098" 
d="M358 985q7 -18 9 -53t2 -80q0 -32 -1 -68t-3 -73q29 42 63 86.5t71.5 85t78.5 74.5t84.5 55.5t89 28t92.5 -8.5q26 -8 42.5 -24t26.5 -39.5t13.5 -53.5t3.5 -65q0 -78 -6 -154t-13.5 -150.5t-13.5 -148.5t-6 -147q0 -50 8.5 -79t30.5 -34q22 1 49 19q23 14 55 46t70 91
l-8 -76q-27 -30 -62.5 -72t-74 -79.5t-78 -62.5t-74.5 -21q-38 5 -62 43.5t-24 121.5q0 41 3 96.5t8 116.5t10.5 124t11 120t10 104.5t6.5 77.5t-5.5 54.5t-23 42.5t-36.5 27.5t-46 9.5q-27 0 -57 -13.5t-61 -42.5q-15 -15 -36.5 -41.5t-46.5 -69t-52.5 -101.5t-53.5 -138
q-2 -23 -3 -45t-1 -41q-2 -48 -6 -102q-3 -46 -7 -104t-9 -118l-158 -139q11 243 19.5 401.5t13.5 250.5q6 108 10 165q3 67 -18 95t-52 28q-24 0 -51.5 -15t-52.5 -38q25 28 55.5 60t64.5 59t69.5 45t70.5 18q22 0 37.5 -11.5t23.5 -37.5zM916 1387q-15 -53 -35 -101
t-47.5 -85t-64.5 -58.5t-85 -21.5q-33 0 -65 16t-61 35.5t-54 36.5t-45 19q-18 3 -38 -7q-17 -8 -39.5 -30.5t-45.5 -69.5l-47 -33q14 34 36 77.5t55.5 82.5t80 65.5t109.5 26.5q29 0 58.5 -14t57 -31t53 -31t46.5 -14q8 0 20.5 7.5t25.5 20t23.5 28.5t14.5 32z" />
    <glyph glyph-name="ograve" unicode="&#xf2;" 
d="M774 770q3 -78 -5 -153t-23.5 -140.5t-38 -119t-48.5 -87.5q-17 -23 -47.5 -53.5t-68.5 -63t-81 -64.5t-85 -56.5t-80.5 -40t-67.5 -15.5q-34 0 -59 17.5t-43 46t-30 64t-19 71t-9.5 68t-2.5 55.5q0 88 16 174.5t49.5 164.5t84.5 144.5t122 114.5q46 31 83 56.5t68 42.5
t56.5 26.5t48.5 9.5q22 0 51.5 -12t57 -41.5t47.5 -80t24 -128.5zM616 604q0 42 -6 96t-24 101t-50.5 79.5t-86.5 32.5q-22 0 -45.5 -9.5t-43.5 -29.5q-40 -40 -64.5 -91.5t-38.5 -108.5t-19 -115t-5 -110q0 -27 1 -62.5t6 -73t14.5 -74.5t26 -65.5t41.5 -46.5t61 -18
q48 0 84 27.5t62 71.5t42.5 99t26.5 110t14 104.5t4 82.5zM512 1118q-10 -9 -29 -25t-40.5 -32t-41 -28t-30.5 -12q-94 60 -170 140.5t-129 177.5q0 4 22 19t48 32q31 19 71 43q29 -49 57 -90.5t61.5 -79t77 -73t103.5 -72.5z" />
    <glyph glyph-name="oacute" unicode="&#xf3;" 
d="M774 770q3 -78 -5 -153t-23.5 -140.5t-38 -119t-48.5 -87.5q-17 -23 -47.5 -53.5t-68.5 -63t-81 -64.5t-85 -56.5t-80.5 -40t-67.5 -15.5q-34 0 -59 17.5t-43 46t-30 64t-19 71t-9.5 68t-2.5 55.5q0 88 16 174.5t49.5 164.5t84.5 144.5t122 114.5q46 31 83 56.5t68 42.5
t56.5 26.5t48.5 9.5q22 0 51.5 -12t57 -41.5t47.5 -80t24 -128.5zM616 604q0 42 -6 96t-24 101t-50.5 79.5t-86.5 32.5q-22 0 -45.5 -9.5t-43.5 -29.5q-40 -40 -64.5 -91.5t-38.5 -108.5t-19 -115t-5 -110q0 -27 1 -62.5t6 -73t14.5 -74.5t26 -65.5t41.5 -46.5t61 -18
q48 0 84 27.5t62 71.5t42.5 99t26.5 110t14 104.5t4 82.5zM936 1469q-27 -36 -52 -69q-21 -28 -43 -56t-36 -43q-63 -69 -130 -118t-124 -81q-66 -37 -129 -61q-1 3 -1 6q0 6 1 7q51 41 84 74t59 64.5t49.5 64.5t55.5 75q24 24 54.5 39.5t65.5 29t72 29t74 39.5z" />
    <glyph glyph-name="ocircumflex" unicode="&#xf4;" 
d="M774 770q3 -78 -5 -153t-23.5 -140.5t-38 -119t-48.5 -87.5q-17 -23 -47.5 -53.5t-68.5 -63t-81 -64.5t-85 -56.5t-80.5 -40t-67.5 -15.5q-34 0 -59 17.5t-43 46t-30 64t-19 71t-9.5 68t-2.5 55.5q0 88 16 174.5t49.5 164.5t84.5 144.5t122 114.5q46 31 83 56.5t68 42.5
t56.5 26.5t48.5 9.5q22 0 51.5 -12t57 -41.5t47.5 -80t24 -128.5zM616 604q0 42 -6 96t-24 101t-50.5 79.5t-86.5 32.5q-22 0 -45.5 -9.5t-43.5 -29.5q-40 -40 -64.5 -91.5t-38.5 -108.5t-19 -115t-5 -110q0 -27 1 -62.5t6 -73t14.5 -74.5t26 -65.5t41.5 -46.5t61 -18
q48 0 84 27.5t62 71.5t42.5 99t26.5 110t14 104.5t4 82.5zM776 1195q-10 -8 -21.5 -19.5t-28 -25t-40 -29t-57.5 -30.5q-53 62 -107 125.5t-100 117.5q-78 -102 -144 -157t-114 -70l-31 20q75 50 139 117t111 142l145 100q32 -38 67 -80.5t68 -82.5t62.5 -74t50.5 -54z" />
    <glyph glyph-name="otilde" unicode="&#xf5;" 
d="M774 770q3 -78 -5 -153t-23.5 -140.5t-38 -119t-48.5 -87.5q-17 -23 -47.5 -53.5t-68.5 -63t-81 -64.5t-85 -56.5t-80.5 -40t-67.5 -15.5q-34 0 -59 17.5t-43 46t-30 64t-19 71t-9.5 68t-2.5 55.5q0 88 16 174.5t49.5 164.5t84.5 144.5t122 114.5q46 31 83 56.5t68 42.5
t56.5 26.5t48.5 9.5q22 0 51.5 -12t57 -41.5t47.5 -80t24 -128.5zM616 604q0 42 -6 96t-24 101t-50.5 79.5t-86.5 32.5q-22 0 -45.5 -9.5t-43.5 -29.5q-40 -40 -64.5 -91.5t-38.5 -108.5t-19 -115t-5 -110q0 -27 1 -62.5t6 -73t14.5 -74.5t26 -65.5t41.5 -46.5t61 -18
q48 0 84 27.5t62 71.5t42.5 99t26.5 110t14 104.5t4 82.5zM809 1367q-15 -53 -35 -101t-47.5 -85t-64.5 -58.5t-85 -21.5q-33 0 -65 16t-61 35.5t-54 36.5t-45 19q-18 3 -38 -7q-17 -8 -39.5 -30.5t-45.5 -69.5l-47 -33q14 34 36 77.5t55.5 82.5t80 65.5t109.5 26.5
q29 0 58.5 -14t57 -31t53 -31t46.5 -14q8 0 20.5 7.5t25.5 20t23.5 28.5t14.5 32z" />
    <glyph glyph-name="odieresis" unicode="&#xf6;" 
d="M774 770q3 -78 -5 -153t-23.5 -140.5t-38 -119t-48.5 -87.5q-17 -23 -47.5 -53.5t-68.5 -63t-81 -64.5t-85 -56.5t-80.5 -40t-67.5 -15.5q-34 0 -59 17.5t-43 46t-30 64t-19 71t-9.5 68t-2.5 55.5q0 88 16 174.5t49.5 164.5t84.5 144.5t122 114.5q46 31 83 56.5t68 42.5
t56.5 26.5t48.5 9.5q22 0 51.5 -12t57 -41.5t47.5 -80t24 -128.5zM616 604q0 42 -6 96t-24 101t-50.5 79.5t-86.5 32.5q-22 0 -45.5 -9.5t-43.5 -29.5q-40 -40 -64.5 -91.5t-38.5 -108.5t-19 -115t-5 -110q0 -27 1 -62.5t6 -73t14.5 -74.5t26 -65.5t41.5 -46.5t61 -18
q48 0 84 27.5t62 71.5t42.5 99t26.5 110t14 104.5t4 82.5zM797 1195l-156 -108l-120 114l155 107zM430 1195l-155 -108l-121 114l156 107z" />
    <glyph glyph-name="divide" unicode="&#xf7;" horiz-adv-x="1165" 
d="M1061 612q-31 0 -58 -22.5t-53 -49t-54 -49t-60 -22.5h-746q17 3 35.5 15t37.5 27.5t38.5 33.5t38.5 32.5t38 24.5t37 10h746zM768 813q-32 -22 -61.5 -43t-55 -37.5t-46 -26.5t-32.5 -10q-9 0 -27 10q-15 8 -39.5 25t-60.5 49l156 111q38 -32 68 -48t52 -23q26 -8 46 -7
zM733 309q-32 -22 -61.5 -43t-55 -37t-45.5 -26t-32 -10q-10 1 -28 10q-15 8 -39 24.5t-60 48.5l155 111q38 -32 68.5 -48t52.5 -23q26 -8 45 -7z" />
    <glyph glyph-name="oslash" unicode="&#xf8;" 
d="M760 1266q-9 -33 -20 -73q-20 -73 -62 -194q18 -13 34 -32.5t29 -47.5t22 -65t11 -84q5 -138 -16 -248t-72 -199t-132 -161.5t-196 -134.5q-43 -23 -73 -36.5t-56 -13.5q-18 0 -36 8t-39 25q-2 0 -2 1t-2 1q-29 -38 -61 -76.5t-64 -76.5q29 46 55 89t51 85
q-29 37 -47 106.5t-18 159.5q0 88 16 174.5t49.5 164.5t84.5 144.5t122 114.5q56 38 98.5 67t77.5 46l6 65q3 20 15.5 33.5t32 25t43.5 22.5t49.5 25.5t51.5 34.5t48 50zM616 604q0 54 -6.5 97.5t-17.5 78.5q-56 -133 -134.5 -285t-185.5 -311q17 -35 45.5 -55t65.5 -20
q48 0 84 27.5t62 71.5t42.5 99t26.5 110t14 104.5t4 82.5zM449 913q-31 0 -57 -16t-47.5 -41.5t-38 -57.5t-28 -65t-19 -63t-11.5 -52q-15 -86 -15 -169q0 -57 5.5 -108t13.5 -91q60 115 102.5 212.5t71 178.5t46 146t26.5 116q-25 10 -49 10z" />
    <glyph glyph-name="ugrave" unicode="&#xf9;" horiz-adv-x="1114" 
d="M1176 258q-48 -42 -79 -70.5t-51 -45.5q-23 -20 -36 -33q-15 -15 -40.5 -37.5t-55 -43.5t-60 -35.5t-55.5 -12.5q-41 2 -59.5 72.5t-18.5 191.5v96q-35 -47 -66.5 -84.5t-55.5 -63.5q-28 -31 -52 -55q-50 -49 -93 -81.5t-79 -50.5t-64 -23.5t-49 -1.5q-20 4 -37 19
t-29 47t-18.5 83.5t-5.5 128.5t4.5 153.5t7 145.5t8 126.5t7.5 96.5q3 50 -10.5 80.5t-47.5 30.5q-20 0 -45 -11.5t-57 -37.5q24 23 56 55.5t67.5 62.5t71.5 51t67 21q24 0 36.5 -12.5t18 -30.5t6 -38.5t0.5 -35.5q0 -72 -5 -142.5t-11 -140t-11 -138.5t-5 -138
q0 -48 4.5 -92.5t16.5 -77.5t32.5 -51.5t52.5 -15.5q42 4 83.5 35t78.5 80.5t67 112.5t48 130q2 8 5 19q2 9 5.5 20t7.5 25q6 97 16.5 191t24.5 188l195 139q-37 -183 -58.5 -351t-21.5 -335q0 -79 7.5 -128t21 -75t32.5 -32t41 1q20 9 47 34q23 21 58 61t82 108v-84z
M39 842l-6 -4zM680 1134q-10 -9 -29 -25t-40.5 -32t-41 -28t-30.5 -12q-94 60 -170 140.5t-129 177.5q0 4 22 19t48 32q31 19 71 43q29 -49 57 -90.5t61.5 -79t77 -73t103.5 -72.5z" />
    <glyph glyph-name="uacute" unicode="&#xfa;" horiz-adv-x="1114" 
d="M1176 258q-48 -42 -79 -70.5t-51 -45.5q-23 -20 -36 -33q-15 -15 -40.5 -37.5t-55 -43.5t-60 -35.5t-55.5 -12.5q-41 2 -59.5 72.5t-18.5 191.5v96q-35 -47 -66.5 -84.5t-55.5 -63.5q-28 -31 -52 -55q-50 -49 -93 -81.5t-79 -50.5t-64 -23.5t-49 -1.5q-20 4 -37 19
t-29 47t-18.5 83.5t-5.5 128.5t4.5 153.5t7 145.5t8 126.5t7.5 96.5q3 50 -10.5 80.5t-47.5 30.5q-20 0 -45 -11.5t-57 -37.5q24 23 56 55.5t67.5 62.5t71.5 51t67 21q24 0 36.5 -12.5t18 -30.5t6 -38.5t0.5 -35.5q0 -72 -5 -142.5t-11 -140t-11 -138.5t-5 -138
q0 -48 4.5 -92.5t16.5 -77.5t32.5 -51.5t52.5 -15.5q42 4 83.5 35t78.5 80.5t67 112.5t48 130q2 8 5 19q2 9 5.5 20t7.5 25q6 97 16.5 191t24.5 188l195 139q-37 -183 -58.5 -351t-21.5 -335q0 -79 7.5 -128t21 -75t32.5 -32t41 1q20 9 47 34q23 21 58 61t82 108v-84z
M39 842l-6 -4zM1096 1475q-27 -36 -52 -69q-21 -28 -43 -56t-36 -43q-63 -69 -130 -118t-124 -81q-66 -37 -129 -61q-1 3 -1 6q0 6 1 7q51 41 84 74t59 64.5t49.5 64.5t55.5 75q24 24 54.5 39.5t65.5 29t72 29t74 39.5z" />
    <glyph glyph-name="ucircumflex" unicode="&#xfb;" horiz-adv-x="1114" 
d="M1176 258q-48 -42 -79 -70.5t-51 -45.5q-23 -20 -36 -33q-15 -15 -40.5 -37.5t-55 -43.5t-60 -35.5t-55.5 -12.5q-41 2 -59.5 72.5t-18.5 191.5v96q-35 -47 -66.5 -84.5t-55.5 -63.5q-28 -31 -52 -55q-50 -49 -93 -81.5t-79 -50.5t-64 -23.5t-49 -1.5q-20 4 -37 19
t-29 47t-18.5 83.5t-5.5 128.5t4.5 153.5t7 145.5t8 126.5t7.5 96.5q3 50 -10.5 80.5t-47.5 30.5q-20 0 -45 -11.5t-57 -37.5q24 23 56 55.5t67.5 62.5t71.5 51t67 21q24 0 36.5 -12.5t18 -30.5t6 -38.5t0.5 -35.5q0 -72 -5 -142.5t-11 -140t-11 -138.5t-5 -138
q0 -48 4.5 -92.5t16.5 -77.5t32.5 -51.5t52.5 -15.5q42 4 83.5 35t78.5 80.5t67 112.5t48 130q2 8 5 19q2 9 5.5 20t7.5 25q6 97 16.5 191t24.5 188l195 139q-37 -183 -58.5 -351t-21.5 -335q0 -79 7.5 -128t21 -75t32.5 -32t41 1q20 9 47 34q23 21 58 61t82 108v-84z
M39 842l-6 -4zM940 1203q-10 -8 -21.5 -19.5t-28 -25t-40 -29t-57.5 -30.5q-53 62 -107 125.5t-100 117.5q-78 -102 -144 -157t-114 -70l-31 20q75 50 139 117t111 142l145 100q32 -38 67 -80.5t68 -82.5t62.5 -74t50.5 -54z" />
    <glyph glyph-name="udieresis" unicode="&#xfc;" horiz-adv-x="1114" 
d="M1176 258q-48 -42 -79 -70.5t-51 -45.5q-23 -20 -36 -33q-15 -15 -40.5 -37.5t-55 -43.5t-60 -35.5t-55.5 -12.5q-41 2 -59.5 72.5t-18.5 191.5v96q-35 -47 -66.5 -84.5t-55.5 -63.5q-28 -31 -52 -55q-50 -49 -93 -81.5t-79 -50.5t-64 -23.5t-49 -1.5q-20 4 -37 19
t-29 47t-18.5 83.5t-5.5 128.5t4.5 153.5t7 145.5t8 126.5t7.5 96.5q3 50 -10.5 80.5t-47.5 30.5q-20 0 -45 -11.5t-57 -37.5q24 23 56 55.5t67.5 62.5t71.5 51t67 21q24 0 36.5 -12.5t18 -30.5t6 -38.5t0.5 -35.5q0 -72 -5 -142.5t-11 -140t-11 -138.5t-5 -138
q0 -48 4.5 -92.5t16.5 -77.5t32.5 -51.5t52.5 -15.5q42 4 83.5 35t78.5 80.5t67 112.5t48 130q2 8 5 19q2 9 5.5 20t7.5 25q6 97 16.5 191t24.5 188l195 139q-37 -183 -58.5 -351t-21.5 -335q0 -79 7.5 -128t21 -75t32.5 -32t41 1q20 9 47 34q23 21 58 61t82 108v-84z
M39 842l-6 -4zM956 1213l-156 -108l-120 114l155 107zM589 1213l-155 -108l-121 114l156 107z" />
    <glyph glyph-name="yacute" unicode="&#xfd;" horiz-adv-x="1053" 
d="M948 1020q-15 -147 -28 -287.5t-22.5 -278t-15 -273.5t-5.5 -273q0 -76 -3 -135t-14 -90q-18 -56 -59 -110.5t-96.5 -103.5t-121 -90.5t-133.5 -71t-134 -45.5t-121 -14q-47 1 -87 14.5t-64.5 34.5t-30.5 46.5t16 48.5q17 17 43 38q22 17 54 41t77 50q-19 -20 -21 -37
t3 -29q5 -14 18 -26q25 -19 76.5 -35.5t113.5 -16.5q77 0 134.5 24.5t97.5 67.5t61.5 102t26.5 128q6 75 7 162t1 180v133t2 127q-17 -22 -32 -39.5t-27 -30.5q-14 -15 -27 -28q-125 -118 -216 -175t-159 -46q-56 11 -81 72t-25 157q0 44 2.5 98.5t6.5 112.5t8.5 116t9 110
t8 94t4.5 69q2 42 -13.5 64t-44.5 22q-37 0 -102 -41q24 22 54 49t62.5 51t66.5 40t67 16q32 0 51.5 -26.5t19.5 -86.5q0 -31 -2 -80t-5.5 -106.5t-8 -119t-8 -119.5t-6.5 -107.5t-4 -81.5q-1 -37 6.5 -68.5t22 -54.5t35 -36t44.5 -13q31 0 64 20q30 20 61 49.5t61.5 71
t59.5 96t55 123.5q6 115 17 220t26 210zM1040 1438q-27 -36 -52 -69q-21 -28 -43 -56t-36 -43q-63 -69 -130 -118t-124 -81q-66 -37 -129 -61q-1 3 -1 6q0 6 1 7q51 41 84 74t59 64.5t49.5 64.5t55.5 75q24 24 54.5 39.5t65.5 29t72 29t74 39.5z" />
    <glyph glyph-name="thorn" unicode="&#xfe;" horiz-adv-x="979" 
d="M473 -510q-36 -38 -67 -65t-54 -44q-27 -20 -49 -34q-27 -17 -55 -25.5t-52 -10.5t-41.5 2.5t-23.5 14.5q-7 9 -6.5 51.5t4 105t9 138.5t9.5 154l11 221q-26 0 -50.5 1t-46.5 1q-21 0 -37 -0.5t-24 -3.5q46 34 84 65.5t78 51.5q4 98 9 211.5t9.5 233.5t9.5 241t9.5 233
t8.5 211t7 174t4.5 122t1.5 56q0 31 -20 53.5t-56 22.5q-17 0 -36.5 -6t-42.5 -20q28 26 57 53.5t59.5 50t62 37t64.5 14.5q31 0 51.5 -20t20.5 -70q0 -14 -1.5 -62t-4.5 -123t-7 -172.5t-8.5 -210.5t-9.5 -236.5t-10 -250.5q20 50 36.5 84t27.5 55q13 25 22 40q31 44 68 84
t75.5 71.5t76.5 52t73 25.5t69 -8.5t61 -47.5t45 -88t21 -130t-7 -157.5t-38 -161.5t-75.5 -155t-120.5 -137q-64 -54 -117.5 -88.5t-98 -54.5t-81 -28.5t-66.5 -10.5q-5 -105 -9 -196t-7 -161t-4.5 -115t-1.5 -58q7 -5 18 -9q9 -3 21.5 -5.5t29.5 -2.5q23 0 53 7.5t62 29.5
zM410 133q58 0 109 6.5t77 26.5q20 15 48 50t54 88.5t44 125.5t18 162q0 28 -2.5 67t-10 80t-20 79.5t-33 66t-50 39.5t-69.5 0q-21 -7 -46 -32.5t-51.5 -76.5t-52.5 -131t-48 -195q-8 -30 -17 -67q-8 -32 -17.5 -74t-20.5 -92l-5 -121q22 0 46 -1t47 -1z" />
    <glyph glyph-name="ydieresis" unicode="&#xff;" horiz-adv-x="1053" 
d="M948 1020q-15 -147 -28 -287.5t-22.5 -278t-15 -273.5t-5.5 -273q0 -76 -3 -135t-14 -90q-18 -56 -59 -110.5t-96.5 -103.5t-121 -90.5t-133.5 -71t-134 -45.5t-121 -14q-47 1 -87 14.5t-64.5 34.5t-30.5 46.5t16 48.5q17 17 43 38q22 17 54 41t77 50q-19 -20 -21 -37
t3 -29q5 -14 18 -26q25 -19 76.5 -35.5t113.5 -16.5q77 0 134.5 24.5t97.5 67.5t61.5 102t26.5 128q6 75 7 162t1 180v133t2 127q-17 -22 -32 -39.5t-27 -30.5q-14 -15 -27 -28q-125 -118 -216 -175t-159 -46q-56 11 -81 72t-25 157q0 44 2.5 98.5t6.5 112.5t8.5 116t9 110
t8 94t4.5 69q2 42 -13.5 64t-44.5 22q-37 0 -102 -41q24 22 54 49t62.5 51t66.5 40t67 16q32 0 51.5 -26.5t19.5 -86.5q0 -31 -2 -80t-5.5 -106.5t-8 -119t-8 -119.5t-6.5 -107.5t-4 -81.5q-1 -37 6.5 -68.5t22 -54.5t35 -36t44.5 -13q31 0 64 20q30 20 61 49.5t61.5 71
t59.5 96t55 123.5q6 115 17 220t26 210zM924 1188l-156 -108l-120 114l155 107zM557 1188l-155 -108l-121 114l156 107z" />
    <glyph glyph-name="Amacron" unicode="&#x100;" horiz-adv-x="1311" 
d="M399 104q-53 -30 -101.5 -50t-90.5 -32t-75.5 -17t-57.5 -5h-150l109 61q17 22 33 44t27 41q13 21 24 42q31 63 92 204q25 60 59.5 143t79.5 193t100 250t123 314l174 160l392 -1329q42 -11 80.5 -14t72.5 -3q18 0 33 0.5t26 1.5q12 1 23 3q-58 -28 -101 -48.5
t-76.5 -34.5t-62 -21t-57.5 -7h-160l52 33l-160 530q-29 -8 -67 -15.5t-90.5 -13.5t-122 -11t-160.5 -9q-42 -89 -77 -158t-63 -120t-49.5 -86t-36.5 -56q17 -3 38 -4.5t42 -1.5q32 0 63.5 2.5t57.5 5.5q30 4 57 8zM539 633q135 0 245 6l-153 508q-62 -159 -113.5 -284
t-97.5 -230h119zM1076 1667q-10 -1 -35 -22.5t-54.5 -47t-58 -46.5t-45.5 -21h-518q7 1 20.5 11.5t31.5 26t38 32.5t39.5 32t36.5 25t29 10h516z" />
    <glyph glyph-name="amacron" unicode="&#x101;" horiz-adv-x="1010" 
d="M1030 260q-9 -14 -25 -33.5t-32 -38.5q-18 -22 -39 -45q-26 -32 -56 -62t-59.5 -53.5t-57.5 -37.5t-50 -13q-42 2 -58 51.5t-16 143.5q0 50 3 108t9 130q-22 -35 -42 -64t-36 -51q-18 -26 -36 -47q-53 -65 -102.5 -115t-91 -84t-73 -52t-49.5 -20t-43.5 12t-48.5 54
t-39.5 112t-15.5 187t24.5 202.5t61 153t83.5 113t91 82.5q93 71 178.5 113.5t167.5 44.5q27 1 53 -1q23 -2 49.5 -6.5t50.5 -13.5l29 23q-6 -28 -12.5 -76t-12.5 -108t-12 -128t-10.5 -136.5t-8.5 -133t-6.5 -117.5t-3 -90t0.5 -51q5 -57 26.5 -78t59.5 4q15 12 37 38
q19 22 46.5 60.5t65.5 100.5v-78zM688 897q-95 12 -156 12q-65 0 -113 -21t-82 -56.5t-56 -82t-34.5 -98.5t-17 -106t-4.5 -103q0 -17 2 -46t7.5 -62t14 -67t22 -61.5t31.5 -45t42 -17.5q26 0 63.5 28.5t90.5 96.5q31 42 62 101q26 50 55.5 123t52.5 170zM895 1277
q-10 -1 -35 -22.5t-54.5 -47t-58 -46.5t-45.5 -21h-518q7 1 20.5 11.5t31.5 26t38 32.5t39.5 32t36.5 25t29 10h516z" />
    <glyph glyph-name="Abreve" unicode="&#x102;" horiz-adv-x="1311" 
d="M399 104q-53 -30 -101.5 -50t-90.5 -32t-75.5 -17t-57.5 -5h-150l109 61q17 22 33 44t27 41q13 21 24 42q31 63 92 204q25 60 59.5 143t79.5 193t100 250t123 314l174 160l392 -1329q42 -11 80.5 -14t72.5 -3q18 0 33 0.5t26 1.5q12 1 23 3q-58 -28 -101 -48.5
t-76.5 -34.5t-62 -21t-57.5 -7h-160l52 33l-160 530q-29 -8 -67 -15.5t-90.5 -13.5t-122 -11t-160.5 -9q-42 -89 -77 -158t-63 -120t-49.5 -86t-36.5 -56q17 -3 38 -4.5t42 -1.5q32 0 63.5 2.5t57.5 5.5q30 4 57 8zM539 633q135 0 245 6l-153 508q-62 -159 -113.5 -284
t-97.5 -230h119zM969 1800q-1 -32 -17 -65t-42.5 -64t-60.5 -58t-71 -47t-74 -31.5t-69 -11.5q-35 0 -65.5 11t-56.5 30.5t-47.5 44.5t-37.5 54l-4 8t-6 13t-5.5 12t-2.5 6q0 9 21.5 24t48 30t48.5 27.5t23 16.5q12 -30 32 -62t45.5 -58t57 -43t66.5 -17q42 0 67.5 18t39 41
t17.5 44.5t5 27.5q1 10 12.5 16t26.5 10.5t29.5 9.5t19.5 13z" />
    <glyph glyph-name="abreve" unicode="&#x103;" horiz-adv-x="1010" 
d="M1030 260q-9 -14 -25 -33.5t-32 -38.5q-18 -22 -39 -45q-26 -32 -56 -62t-59.5 -53.5t-57.5 -37.5t-50 -13q-42 2 -58 51.5t-16 143.5q0 50 3 108t9 130q-22 -35 -42 -64t-36 -51q-18 -26 -36 -47q-53 -65 -102.5 -115t-91 -84t-73 -52t-49.5 -20t-43.5 12t-48.5 54
t-39.5 112t-15.5 187t24.5 202.5t61 153t83.5 113t91 82.5q93 71 178.5 113.5t167.5 44.5q27 1 53 -1q23 -2 49.5 -6.5t50.5 -13.5l29 23q-6 -28 -12.5 -76t-12.5 -108t-12 -128t-10.5 -136.5t-8.5 -133t-6.5 -117.5t-3 -90t0.5 -51q5 -57 26.5 -78t59.5 4q15 12 37 38
q19 22 46.5 60.5t65.5 100.5v-78zM688 897q-95 12 -156 12q-65 0 -113 -21t-82 -56.5t-56 -82t-34.5 -98.5t-17 -106t-4.5 -103q0 -17 2 -46t7.5 -62t14 -67t22 -61.5t31.5 -45t42 -17.5q26 0 63.5 28.5t90.5 96.5q31 42 62 101q26 50 55.5 123t52.5 170zM821 1394
q-1 -32 -17 -65t-42.5 -64t-60.5 -58t-71 -47t-74 -31.5t-69 -11.5q-35 0 -65.5 11t-56.5 30.5t-47.5 44.5t-37.5 54l-4 8t-6 13t-5.5 12t-2.5 6q0 9 21.5 24t48 30t48.5 27.5t23 16.5q12 -30 32 -62t45.5 -58t57 -43t66.5 -17q42 0 67.5 18t39 41t17.5 44.5t5 27.5
q1 10 12.5 16t26.5 10.5t29.5 9.5t19.5 13z" />
    <glyph glyph-name="Aogonek" unicode="&#x104;" horiz-adv-x="1311" 
d="M1366 -223q-42 -42 -76.5 -70.5t-66 -46t-61.5 -25.5t-62 -8q-35 0 -64.5 13.5t-50.5 36t-33 52.5t-12 64q0 71 28.5 121.5t71.5 85.5h-125l52 33l-160 530q-29 -8 -67 -15.5t-90.5 -13.5t-122 -11t-160.5 -9q-42 -89 -77 -158t-63 -120t-49.5 -86t-36.5 -56
q17 -3 38 -4.5t42 -1.5q32 0 63.5 2.5t57.5 5.5q30 4 57 8q-53 -30 -101.5 -50t-90.5 -32t-75.5 -17t-57.5 -5h-150l109 61q17 22 33 44t27 41q13 21 24 42q31 63 92 204q25 60 59.5 143t79.5 193t100 250t123 314l174 160l392 -1329q42 -11 80.5 -14t72.5 -3q18 0 33 0.5
t26 1.5q12 1 23 3q-51 -24 -89.5 -43t-69.5 -32.5t-57 -22t-50 -11.5q-19 -28 -30 -60.5t-11 -66.5q0 -71 37 -109t108 -38q24 0 42 1.5t35 6.5t35.5 14.5t43.5 26.5zM539 633q135 0 245 6l-153 508q-62 -159 -113.5 -284t-97.5 -230h119z" />
    <glyph glyph-name="aogonek" unicode="&#x105;" horiz-adv-x="1010" 
d="M989 -229q-41 -42 -76 -70.5t-66.5 -46t-61.5 -25.5t-62 -8q-35 0 -64.5 13.5t-50.5 36t-33 52.5t-12 64q0 72 30 123t75 88q-17 22 -24 65.5t-7 108.5q0 50 3 108t9 130q-22 -35 -42 -64t-36 -51q-18 -26 -36 -47q-53 -65 -102.5 -115t-91 -84t-73 -52t-49.5 -20
t-43.5 12t-48.5 54t-39.5 112t-15.5 187t24.5 202.5t61 153t83.5 113t91 82.5q93 71 178.5 113.5t167.5 44.5q27 1 53 -1q23 -2 49.5 -6.5t50.5 -13.5l29 23q-6 -28 -12.5 -76t-12.5 -108t-12 -128t-10.5 -136.5t-8.5 -133t-6.5 -117.5t-3 -90t0.5 -51q5 -57 26.5 -78
t59.5 4q15 12 37 38q19 22 46.5 60.5t65.5 100.5v-78q-9 -14 -25 -33.5t-32 -38.5q-18 -22 -39 -45q-26 -30 -54 -58.5t-56.5 -51.5t-55.5 -38t-49 -18q-14 -24 -22.5 -51.5t-8.5 -56.5q0 -71 37 -109.5t109 -38.5q24 0 42 1.5t35 6.5t35.5 15t42.5 27zM688 897
q-95 12 -156 12q-65 0 -113 -21t-82 -56.5t-56 -82t-34.5 -98.5t-17 -106t-4.5 -103q0 -17 2 -46t7.5 -62t14 -67t22 -61.5t31.5 -45t42 -17.5q26 0 63.5 28.5t90.5 96.5q31 42 62 101q26 50 55.5 123t52.5 170z" />
    <glyph glyph-name="Cacute" unicode="&#x106;" horiz-adv-x="1335" 
d="M1319 1374q-18 -23 -44 -45q-22 -19 -54.5 -40t-75.5 -38q14 18 2.5 38.5t-50.5 37.5t-105.5 28t-162.5 11q-56 0 -120.5 -11.5t-127.5 -39.5t-121.5 -74.5t-103.5 -116t-71.5 -165t-26.5 -220.5t30.5 -220t81 -163.5t115.5 -114t133 -73t133.5 -38.5t118.5 -11
q61 1 127 9q57 7 125.5 20.5t134.5 39.5q-97 -78 -180 -119t-146 -61q-73 -23 -134 -26q-148 0 -279 43.5t-229.5 126t-155.5 202.5t-57 273q0 95 18 176.5t47.5 149.5t66.5 122.5t75.5 96t75 69.5t63.5 43q26 15 66.5 34t89 38.5t102.5 38.5t110 34t109.5 24t101.5 9
q107 0 173 -10t100.5 -24.5t43 -29.5t1.5 -24zM1204 1900q-27 -36 -52 -69q-21 -28 -43 -56t-36 -43q-63 -69 -130 -118t-124 -81q-66 -37 -129 -61q-1 3 -1 6q0 6 1 7q51 41 84 74t59 64.5t49.5 64.5t55.5 75q24 24 54.5 39.5t65.5 29t72 29t74 39.5z" />
    <glyph glyph-name="cacute" unicode="&#x107;" horiz-adv-x="737" 
d="M737 965q-10 -11 -29 -29q-17 -15 -46.5 -38.5t-77.5 -55.5q12 11 13 20t-2 16q-4 8 -13 15q-16 9 -51.5 14.5t-75.5 5.5q-34 0 -64 -4.5t-49 -15.5q-18 -11 -38.5 -53t-37.5 -102t-28 -131.5t-11 -141.5q0 -33 3.5 -72t11.5 -77.5t22 -74t35 -62.5t49 -42t66 -12
q24 4 54 21q25 14 58.5 43.5t71.5 82.5l84 25q-53 -60 -95 -102.5t-71 -69.5q-34 -32 -61 -51q-33 -23 -62 -41.5t-56.5 -31t-54.5 -17.5t-55 -2q-24 2 -51.5 27t-51.5 69.5t-40 107.5t-16 142q0 86 16.5 174t49.5 169.5t84 151t120 117.5q36 25 78.5 44t85 31t82 17t69.5 4
q60 -3 81.5 -22.5t2.5 -48.5zM878 1500q-27 -36 -52 -69q-21 -28 -43 -56t-36 -43q-63 -69 -130 -118t-124 -81q-66 -37 -129 -61q-1 3 -1 6q0 6 1 7q51 41 84 74t59 64.5t49.5 64.5t55.5 75q24 24 54.5 39.5t65.5 29t72 29t74 39.5z" />
    <glyph glyph-name="Ccircumflex" unicode="&#x108;" horiz-adv-x="1335" 
d="M1319 1374q-18 -23 -44 -45q-22 -19 -54.5 -40t-75.5 -38q14 18 2.5 38.5t-50.5 37.5t-105.5 28t-162.5 11q-56 0 -120.5 -11.5t-127.5 -39.5t-121.5 -74.5t-103.5 -116t-71.5 -165t-26.5 -220.5t30.5 -220t81 -163.5t115.5 -114t133 -73t133.5 -38.5t118.5 -11
q61 1 127 9q57 7 125.5 20.5t134.5 39.5q-97 -78 -180 -119t-146 -61q-73 -23 -134 -26q-148 0 -279 43.5t-229.5 126t-155.5 202.5t-57 273q0 95 18 176.5t47.5 149.5t66.5 122.5t75.5 96t75 69.5t63.5 43q26 15 66.5 34t89 38.5t102.5 38.5t110 34t109.5 24t101.5 9
q107 0 173 -10t100.5 -24.5t43 -29.5t1.5 -24zM1147 1634q-10 -8 -21.5 -19.5t-28 -25t-40 -29t-57.5 -30.5q-53 62 -107 125.5t-100 117.5q-78 -102 -144 -157t-114 -70l-31 20q75 50 139 117t111 142l145 100q32 -38 67 -80.5t68 -82.5t62.5 -74t50.5 -54z" />
    <glyph glyph-name="ccircumflex" unicode="&#x109;" horiz-adv-x="737" 
d="M737 965q-10 -11 -29 -29q-17 -15 -46.5 -38.5t-77.5 -55.5q12 11 13 20t-2 16q-4 8 -13 15q-16 9 -51.5 14.5t-75.5 5.5q-34 0 -64 -4.5t-49 -15.5q-18 -11 -38.5 -53t-37.5 -102t-28 -131.5t-11 -141.5q0 -33 3.5 -72t11.5 -77.5t22 -74t35 -62.5t49 -42t66 -12
q24 4 54 21q25 14 58.5 43.5t71.5 82.5l84 25q-53 -60 -95 -102.5t-71 -69.5q-34 -32 -61 -51q-33 -23 -62 -41.5t-56.5 -31t-54.5 -17.5t-55 -2q-24 2 -51.5 27t-51.5 69.5t-40 107.5t-16 142q0 86 16.5 174t49.5 169.5t84 151t120 117.5q36 25 78.5 44t85 31t82 17t69.5 4
q60 -3 81.5 -22.5t2.5 -48.5zM786 1213q-10 -8 -21.5 -19.5t-28 -25t-40 -29t-57.5 -30.5q-53 62 -107 125.5t-100 117.5q-78 -102 -144 -157t-114 -70l-31 20q75 50 139 117t111 142l145 100q32 -38 67 -80.5t68 -82.5t62.5 -74t50.5 -54z" />
    <glyph glyph-name="Cdotaccent" unicode="&#x10a;" horiz-adv-x="1335" 
d="M1319 1374q-18 -23 -44 -45q-22 -19 -54.5 -40t-75.5 -38q14 18 2.5 38.5t-50.5 37.5t-105.5 28t-162.5 11q-56 0 -120.5 -11.5t-127.5 -39.5t-121.5 -74.5t-103.5 -116t-71.5 -165t-26.5 -220.5t30.5 -220t81 -163.5t115.5 -114t133 -73t133.5 -38.5t118.5 -11
q61 1 127 9q57 7 125.5 20.5t134.5 39.5q-97 -78 -180 -119t-146 -61q-73 -23 -134 -26q-148 0 -279 43.5t-229.5 126t-155.5 202.5t-57 273q0 95 18 176.5t47.5 149.5t66.5 122.5t75.5 96t75 69.5t63.5 43q26 15 66.5 34t89 38.5t102.5 38.5t110 34t109.5 24t101.5 9
q107 0 173 -10t100.5 -24.5t43 -29.5t1.5 -24zM950 1644l-155 -108l-121 114l156 107z" />
    <glyph glyph-name="cdotaccent" unicode="&#x10b;" horiz-adv-x="737" 
d="M737 965q-10 -11 -29 -29q-17 -15 -46.5 -38.5t-77.5 -55.5q12 11 13 20t-2 16q-4 8 -13 15q-16 9 -51.5 14.5t-75.5 5.5q-34 0 -64 -4.5t-49 -15.5q-18 -11 -38.5 -53t-37.5 -102t-28 -131.5t-11 -141.5q0 -33 3.5 -72t11.5 -77.5t22 -74t35 -62.5t49 -42t66 -12
q24 4 54 21q25 14 58.5 43.5t71.5 82.5l84 25q-53 -60 -95 -102.5t-71 -69.5q-34 -32 -61 -51q-33 -23 -62 -41.5t-56.5 -31t-54.5 -17.5t-55 -2q-24 2 -51.5 27t-51.5 69.5t-40 107.5t-16 142q0 86 16.5 174t49.5 169.5t84 151t120 117.5q36 25 78.5 44t85 31t82 17t69.5 4
q60 -3 81.5 -22.5t2.5 -48.5zM602 1203l-155 -108l-121 114l156 107z" />
    <glyph glyph-name="Ccaron" unicode="&#x10c;" horiz-adv-x="1335" 
d="M1319 1374q-18 -23 -44 -45q-22 -19 -54.5 -40t-75.5 -38q14 18 2.5 38.5t-50.5 37.5t-105.5 28t-162.5 11q-56 0 -120.5 -11.5t-127.5 -39.5t-121.5 -74.5t-103.5 -116t-71.5 -165t-26.5 -220.5t30.5 -220t81 -163.5t115.5 -114t133 -73t133.5 -38.5t118.5 -11
q61 1 127 9q57 7 125.5 20.5t134.5 39.5q-97 -78 -180 -119t-146 -61q-73 -23 -134 -26q-148 0 -279 43.5t-229.5 126t-155.5 202.5t-57 273q0 95 18 176.5t47.5 149.5t66.5 122.5t75.5 96t75 69.5t63.5 43q26 15 66.5 34t89 38.5t102.5 38.5t110 34t109.5 24t101.5 9
q107 0 173 -10t100.5 -24.5t43 -29.5t1.5 -24zM479 1777q10 9 21.5 20.5t28 25t40 29t57.5 30.5q53 -62 107 -126t100 -118q78 102 144 157t114 70l31 -20q-75 -50 -139 -117t-111 -141l-145 -100q-32 37 -67 80t-68 83t-62.5 73.5t-50.5 53.5z" />
    <glyph glyph-name="ccaron" unicode="&#x10d;" horiz-adv-x="737" 
d="M737 965q-10 -11 -29 -29q-17 -15 -46.5 -38.5t-77.5 -55.5q12 11 13 20t-2 16q-4 8 -13 15q-16 9 -51.5 14.5t-75.5 5.5q-34 0 -64 -4.5t-49 -15.5q-18 -11 -38.5 -53t-37.5 -102t-28 -131.5t-11 -141.5q0 -33 3.5 -72t11.5 -77.5t22 -74t35 -62.5t49 -42t66 -12
q24 4 54 21q25 14 58.5 43.5t71.5 82.5l84 25q-53 -60 -95 -102.5t-71 -69.5q-34 -32 -61 -51q-33 -23 -62 -41.5t-56.5 -31t-54.5 -17.5t-55 -2q-24 2 -51.5 27t-51.5 69.5t-40 107.5t-16 142q0 86 16.5 174t49.5 169.5t84 151t120 117.5q36 25 78.5 44t85 31t82 17t69.5 4
q60 -3 81.5 -22.5t2.5 -48.5zM150 1354q10 9 21.5 20.5t28 25t40 29t57.5 30.5q53 -62 107 -126t100 -118q78 102 144 157t114 70l31 -20q-75 -50 -139 -117t-111 -141l-145 -100q-32 37 -67 80t-68 83t-62.5 73.5t-50.5 53.5z" />
    <glyph glyph-name="Dcaron" unicode="&#x10e;" horiz-adv-x="1538" 
d="M1460 803q0 -124 -41.5 -231.5t-112 -197t-164.5 -159t-199.5 -117.5t-216 -73t-214.5 -25q-10 -1 -36.5 -1t-61.5 -0.5t-76 -0.5h-80t-73 0.5t-56 1.5q17 0 30 9t22.5 24t16 34.5t11.5 39.5q10 48 12 108q0 74 2 220q1 62 2 146.5t3 194t4.5 246.5t5.5 305
q-44 -5 -87.5 -7.5t-91.5 -0.5l187 123q46 -6 95 -8t97 -2q88 0 162.5 7t147.5 7q66 0 144.5 -10.5t157.5 -38t153 -73.5t131 -117.5t91.5 -171t34.5 -232.5zM389 276q-3 -31 -13 -60q-8 -25 -23.5 -53t-41.5 -48q139 -7 229 -9t144 -2q138 0 248 49.5t186.5 134t117 196.5
t40.5 237q0 123 -32.5 218.5t-86.5 167t-123 120.5t-141.5 79.5t-143.5 44t-128 13.5q-59 0 -110 -4t-99 -10q-3 -182 -5.5 -324.5t-4.5 -252t-4 -189t-3 -134.5q-4 -129 -6 -174zM446 1798q10 9 21.5 20.5t28 25t40 29t57.5 30.5q53 -62 107 -126t100 -118q78 102 144 157
t114 70l31 -20q-75 -50 -139 -117t-111 -141l-145 -100q-32 37 -67 80t-68 83t-62.5 73.5t-50.5 53.5z" />
    <glyph glyph-name="dcaron" unicode="&#x10f;" horiz-adv-x="1206" 
d="M1067 322l-23 -109q-54 -46 -89.5 -75.5t-57.5 -47.5q-26 -21 -41 -33q-17 -14 -36 -28.5t-39.5 -25.5t-41 -17.5t-39.5 -3.5q-59 6 -59 239q0 101 6 236q-29 -51 -54.5 -92.5t-45.5 -70.5q-23 -34 -43 -61q-45 -57 -88 -102.5t-81 -78.5t-68.5 -51.5t-49.5 -20.5t-42 5
t-44.5 31.5t-38 70.5t-22.5 122q-2 15 -2 30.5v30.5q0 73 11.5 152t31 150.5t46 130t56.5 90.5q22 24 55 51t71.5 53.5t79.5 51t78 43.5t67 31t48 15h20h24t32 -2q7 90 13.5 175t11 160.5t7.5 138.5t3 108q0 40 -6.5 60.5t-20.5 35.5q-9 8 -22 10q-11 2 -28 -2t-40 -18
q51 35 86 59t58 38q26 17 43 26q21 12 41.5 12.5t36.5 -14t24 -45.5t4 -82q-3 -26 -8.5 -90.5t-13.5 -154t-16.5 -196.5t-17.5 -219t-17.5 -221.5t-14.5 -203t-10 -164.5t-4 -105q0 -103 14 -160t51 -57q26 0 66 31q29 23 55 50q23 23 46 52.5t38 61.5zM678 895
q-59 11 -102 14.5t-72 3.5q-56 0 -98.5 -27.5t-74.5 -71.5t-53.5 -100t-34.5 -113t-18.5 -109.5t-5.5 -90.5q0 -16 1.5 -41.5t6 -54t12.5 -57.5t20 -52.5t29 -38t40 -14.5q26 0 62.5 33t94.5 109q28 39 58 96q26 49 57 124t62 179zM1188 1362q-2 -17 -8.5 -52.5t-16 -74
t-21 -72.5t-22.5 -49q-11 -17 -23 -36t-26 -36v66q0 34 -1 75t-5 76t-10.5 59t-18.5 23q11 13 26 27.5t32 26.5t35 20t34 8q9 0 14.5 -6.5t7.5 -16.5t2.5 -20.5t0.5 -17.5z" />
    <glyph glyph-name="Dcroat" unicode="&#x110;" horiz-adv-x="1542" 
d="M1464 803q0 -124 -41.5 -231.5t-112 -197t-164.5 -159t-199.5 -117.5t-216 -73t-214.5 -25q-10 -1 -36.5 -1t-61.5 -0.5t-76 -0.5h-80t-73 0.5t-56 1.5q17 0 30 9t22.5 24t16 34.5t11.5 39.5q10 48 12 108v87q0 48 1 128t3 203h-247q17 3 34.5 15t35.5 27.5t36.5 33.5
t37.5 32.5t38 24.5t37 10h30l11 551q-44 -5 -87.5 -7.5t-91.5 -0.5l187 123q46 -6 95 -8t97 -2q88 0 162.5 7t147.5 7q66 0 144.5 -10.5t157.5 -38t153 -73.5t131 -117.5t91.5 -171t34.5 -232.5zM408 776h387q-19 -3 -43 -25.5t-52 -49t-58.5 -47.5t-61.5 -21h-177
q-3 -114 -5 -183t-3 -108q-2 -46 -2 -66q-3 -31 -13 -60q-8 -25 -23.5 -53t-41.5 -48q139 -7 229 -9t144 -2q138 0 248 49.5t186.5 134t117 196.5t40.5 237q0 123 -32.5 218.5t-86.5 167t-123 120.5t-141.5 79.5t-143.5 44t-128 13.5q-59 0 -110 -4t-99 -10z" />
    <glyph glyph-name="dcroat" unicode="&#x111;" horiz-adv-x="1018" 
d="M1067 322l-23 -109q-54 -46 -89.5 -75.5t-57.5 -47.5q-26 -21 -41 -33q-17 -14 -36 -28.5t-39.5 -25.5t-41 -17.5t-39.5 -3.5q-59 6 -59 239q0 101 6 236q-29 -51 -54.5 -92.5t-45.5 -70.5q-23 -34 -43 -61q-45 -57 -88 -102.5t-81 -78.5t-68.5 -51.5t-49.5 -20.5t-42 5
t-44.5 31.5t-38 70.5t-22.5 122q-2 15 -2 30.5v30.5q0 73 11.5 152t31 150.5t46 130t56.5 90.5q22 24 55 51t71.5 53.5t79.5 51t78 43.5t67 31t48 15h20h24t32 -2l14 199h-309q17 3 35 15t36 27.5t36.5 33.5t37.5 32.5t37.5 24.5t36.5 10h101q5 73 7.5 134t2.5 106
q0 40 -6.5 60.5t-20.5 35.5q-9 6 -21 9q-11 2 -27 -0.5t-38 -14.5q49 34 84 56.5t57 36.5q26 16 42 26q21 12 41.5 12.5t36.5 -14t24 -45.5t4 -82q-2 -16 -4.5 -46t-6.5 -71.5t-8.5 -93t-9.5 -109.5h236q-30 -3 -55 -25.5t-50 -49t-51 -47.5t-57 -21h-35q-7 -87 -14.5 -179
t-14 -181.5t-12.5 -173t-10.5 -153.5t-7 -123t-2.5 -81q0 -103 14 -160t51 -57q26 0 66 31q29 23 55 50q23 23 46 52.5t38 61.5zM678 895q-59 11 -102 14.5t-72 3.5q-56 0 -98.5 -27.5t-74.5 -71.5t-53.5 -100t-34.5 -113t-18.5 -109.5t-5.5 -90.5q0 -16 1.5 -41.5t6 -54
t12.5 -57.5t20 -52.5t29 -38t40 -14.5q26 0 62.5 33t94.5 109q28 39 58 96q26 49 57 124t62 179zM606 1704q2 0 2 1t2 3q-2 -2 -2 -3t-2 -1z" />
    <glyph glyph-name="Emacron" unicode="&#x112;" horiz-adv-x="1049" 
d="M879 784q-9 -4 -27 -15q-16 -10 -45.5 -29.5t-77.5 -53.5q8 15 -0.5 23t-22.5 11q-17 4 -40 3q-36 -3 -103.5 -7t-152.5 -7q0 -160 -2 -260.5t-3 -156.5q-2 -66 -4 -97q-2 -20 -12 -39q-8 -17 -25.5 -36t-48.5 -34h453q32 0 65 4q28 3 60 10t61 21q-50 -47 -99 -72
t-90 -36q-48 -13 -91 -15q-98 0 -185 -1t-157 -4t-119.5 -7.5t-71.5 -10.5q31 31 48.5 61t26.5 67t11.5 83.5t1.5 110.5v410q-29 0 -56.5 1t-53.5 3l110 57q0 54 -0.5 113.5t-0.5 127.5t-0.5 146.5t-0.5 171.5q-45 0 -85 1t-74 3l186 99q190 0 324.5 2.5t222.5 5.5
q102 4 170 8q34 0 45 -5.5t9 -12t-12 -13.5t-18 -10q-8 -4 -30 -17q-19 -11 -53.5 -34.5t-94.5 -63.5q20 22 17 32.5t-14 15.5q-13 5 -36 5q-19 -2 -57 -3.5t-88.5 -3.5t-109.5 -4t-121 -3q1 -160 1.5 -287t0.5 -233q102 1 183.5 3.5t139.5 5.5q68 4 121 7q33 1 44 -4t9 -12
t-11.5 -14.5t-16.5 -10.5zM967 1657q-10 -1 -35 -22.5t-54.5 -47t-58 -46.5t-45.5 -21h-518q7 1 20.5 11.5t31.5 26t38 32.5t39.5 32t36.5 25t29 10h516z" />
    <glyph glyph-name="emacron" unicode="&#x113;" horiz-adv-x="692" 
d="M639 291q-53 -60 -97.5 -105.5t-78.5 -76.5q-40 -36 -72 -62q-88 -70 -153 -70q-37 0 -63.5 19.5t-45.5 50.5t-31 70t-18.5 78.5t-9 75.5t-2.5 61q0 67 15.5 145t45 155.5t72.5 149t98.5 127t122 88.5t143.5 33q21 0 35 -7.5t23 -20.5t12.5 -29t3.5 -33q0 -44 -20 -88
t-53.5 -86.5t-76.5 -83t-89.5 -77t-92.5 -68.5t-84 -58v-22q0 -25 2.5 -60.5t9 -74t17.5 -76.5t28 -68t40.5 -48.5t54.5 -18.5q14 0 29 4.5t30 15.5q26 21 59 58q28 32 65 83t81 129v-110zM453 881q-12 14 -31 18t-40.5 -2t-42 -23t-34.5 -45q-20 -40 -44 -114.5t-34 -171.5
q32 19 66 44t65.5 53t57 58.5t40 62t15.5 62t-18 58.5zM789 1230q-10 -1 -35 -22.5t-54.5 -47t-58 -46.5t-45.5 -21h-518q7 1 20.5 11.5t31.5 26t38 32.5t39.5 32t36.5 25t29 10h516z" />
    <glyph glyph-name="Ebreve" unicode="&#x114;" horiz-adv-x="1049" 
d="M879 784q-9 -4 -27 -15q-16 -10 -45.5 -29.5t-77.5 -53.5q8 15 -0.5 23t-22.5 11q-17 4 -40 3q-36 -3 -103.5 -7t-152.5 -7q0 -160 -2 -260.5t-3 -156.5q-2 -66 -4 -97q-2 -20 -12 -39q-8 -17 -25.5 -36t-48.5 -34h453q32 0 65 4q28 3 60 10t61 21q-50 -47 -99 -72
t-90 -36q-48 -13 -91 -15q-98 0 -185 -1t-157 -4t-119.5 -7.5t-71.5 -10.5q31 31 48.5 61t26.5 67t11.5 83.5t1.5 110.5v410q-29 0 -56.5 1t-53.5 3l110 57q0 54 -0.5 113.5t-0.5 127.5t-0.5 146.5t-0.5 171.5q-45 0 -85 1t-74 3l186 99q190 0 324.5 2.5t222.5 5.5
q102 4 170 8q34 0 45 -5.5t9 -12t-12 -13.5t-18 -10q-8 -4 -30 -17q-19 -11 -53.5 -34.5t-94.5 -63.5q20 22 17 32.5t-14 15.5q-13 5 -36 5q-19 -2 -57 -3.5t-88.5 -3.5t-109.5 -4t-121 -3q1 -160 1.5 -287t0.5 -233q102 1 183.5 3.5t139.5 5.5q68 4 121 7q33 1 44 -4t9 -12
t-11.5 -14.5t-16.5 -10.5zM868 1780q-1 -32 -17 -65t-42.5 -64t-60.5 -58t-71 -47t-74 -31.5t-69 -11.5q-35 0 -65.5 11t-56.5 30.5t-47.5 44.5t-37.5 54l-4 8t-6 13t-5.5 12t-2.5 6q0 9 21.5 24t48 30t48.5 27.5t23 16.5q12 -30 32 -62t45.5 -58t57 -43t66.5 -17
q42 0 67.5 18t39 41t17.5 44.5t5 27.5q1 10 12.5 16t26.5 10.5t29.5 9.5t19.5 13z" />
    <glyph glyph-name="ebreve" unicode="&#x115;" horiz-adv-x="692" 
d="M639 291q-53 -60 -97.5 -105.5t-78.5 -76.5q-40 -36 -72 -62q-88 -70 -153 -70q-37 0 -63.5 19.5t-45.5 50.5t-31 70t-18.5 78.5t-9 75.5t-2.5 61q0 67 15.5 145t45 155.5t72.5 149t98.5 127t122 88.5t143.5 33q21 0 35 -7.5t23 -20.5t12.5 -29t3.5 -33q0 -44 -20 -88
t-53.5 -86.5t-76.5 -83t-89.5 -77t-92.5 -68.5t-84 -58v-22q0 -25 2.5 -60.5t9 -74t17.5 -76.5t28 -68t40.5 -48.5t54.5 -18.5q14 0 29 4.5t30 15.5q26 21 59 58q28 32 65 83t81 129v-110zM453 881q-12 14 -31 18t-40.5 -2t-42 -23t-34.5 -45q-20 -40 -44 -114.5t-34 -171.5
q32 19 66 44t65.5 53t57 58.5t40 62t15.5 62t-18 58.5zM674 1343q-1 -32 -17 -65t-42.5 -64t-60.5 -58t-71 -47t-74 -31.5t-69 -11.5q-35 0 -65.5 11t-56.5 30.5t-47.5 44.5t-37.5 54l-4 8t-6 13t-5.5 12t-2.5 6q0 9 21.5 24t48 30t48.5 27.5t23 16.5q12 -30 32 -62
t45.5 -58t57 -43t66.5 -17q42 0 67.5 18t39 41t17.5 44.5t5 27.5q1 10 12.5 16t26.5 10.5t29.5 9.5t19.5 13z" />
    <glyph glyph-name="Edotaccent" unicode="&#x116;" horiz-adv-x="1049" 
d="M879 784q-9 -4 -27 -15q-16 -10 -45.5 -29.5t-77.5 -53.5q8 15 -0.5 23t-22.5 11q-17 4 -40 3q-36 -3 -103.5 -7t-152.5 -7q0 -160 -2 -260.5t-3 -156.5q-2 -66 -4 -97q-2 -20 -12 -39q-8 -17 -25.5 -36t-48.5 -34h453q32 0 65 4q28 3 60 10t61 21q-50 -47 -99 -72
t-90 -36q-48 -13 -91 -15q-98 0 -185 -1t-157 -4t-119.5 -7.5t-71.5 -10.5q31 31 48.5 61t26.5 67t11.5 83.5t1.5 110.5v410q-29 0 -56.5 1t-53.5 3l110 57q0 54 -0.5 113.5t-0.5 127.5t-0.5 146.5t-0.5 171.5q-45 0 -85 1t-74 3l186 99q190 0 324.5 2.5t222.5 5.5
q102 4 170 8q34 0 45 -5.5t9 -12t-12 -13.5t-18 -10q-8 -4 -30 -17q-19 -11 -53.5 -34.5t-94.5 -63.5q20 22 17 32.5t-14 15.5q-13 5 -36 5q-19 -2 -57 -3.5t-88.5 -3.5t-109.5 -4t-121 -3q1 -160 1.5 -287t0.5 -233q102 1 183.5 3.5t139.5 5.5q68 4 121 7q33 1 44 -4t9 -12
t-11.5 -14.5t-16.5 -10.5zM722 1616l-155 -108l-121 114l156 107z" />
    <glyph glyph-name="edotaccent" unicode="&#x117;" horiz-adv-x="692" 
d="M639 291q-53 -60 -97.5 -105.5t-78.5 -76.5q-40 -36 -72 -62q-88 -70 -153 -70q-37 0 -63.5 19.5t-45.5 50.5t-31 70t-18.5 78.5t-9 75.5t-2.5 61q0 67 15.5 145t45 155.5t72.5 149t98.5 127t122 88.5t143.5 33q21 0 35 -7.5t23 -20.5t12.5 -29t3.5 -33q0 -44 -20 -88
t-53.5 -86.5t-76.5 -83t-89.5 -77t-92.5 -68.5t-84 -58v-22q0 -25 2.5 -60.5t9 -74t17.5 -76.5t28 -68t40.5 -48.5t54.5 -18.5q14 0 29 4.5t30 15.5q26 21 59 58q28 32 65 83t81 129v-110zM453 881q-12 14 -31 18t-40.5 -2t-42 -23t-34.5 -45q-20 -40 -44 -114.5t-34 -171.5
q32 19 66 44t65.5 53t57 58.5t40 62t15.5 62t-18 58.5zM534 1184l-155 -108l-121 114l156 107z" />
    <glyph glyph-name="Eogonek" unicode="&#x118;" horiz-adv-x="1049" 
d="M938 -250q-42 -41 -76.5 -69.5t-66 -46t-61.5 -25.5t-62 -8q-35 0 -64.5 13t-50.5 35.5t-33 53t-12 64.5q0 41 10.5 75.5t28 63t41.5 51.5t51 41q-92 0 -174 -1t-148 -4t-112.5 -7.5t-67.5 -10.5q31 31 48.5 61t26.5 67t11.5 83.5t1.5 110.5v410q-29 0 -56.5 1t-53.5 3
l110 57q0 54 -0.5 113.5t-0.5 127.5t-0.5 146.5t-0.5 171.5q-45 0 -85 1t-74 3l186 99q190 0 324.5 2.5t222.5 5.5q102 4 170 8q34 0 45 -5.5t9 -12t-12 -13.5t-18 -10q-8 -4 -30 -17q-19 -11 -53.5 -34.5t-94.5 -63.5q20 22 17 32.5t-14 15.5q-13 5 -36 5q-19 -2 -57 -3.5
t-88.5 -3.5t-109.5 -4t-121 -3q1 -160 1.5 -287t0.5 -233q102 1 183.5 3.5t139.5 5.5q68 4 121 7q33 1 44 -4t9 -12t-11.5 -14.5t-16.5 -10.5q-9 -4 -27 -15q-16 -10 -45.5 -29.5t-77.5 -53.5q8 15 -0.5 23t-22.5 11q-17 4 -40 3q-36 -3 -103.5 -7t-152.5 -7
q0 -160 -2 -260.5t-3 -156.5q-2 -66 -4 -97q-2 -20 -12 -39q-8 -17 -25.5 -36t-48.5 -34h453q32 0 65 4q28 3 60 10t61 21q-39 -37 -78 -60t-74 -36.5t-63 -18.5t-45 -6q-24 -34 -40.5 -72t-16.5 -80q0 -71 37 -109t108 -38q24 0 42 1.5t35 6.5t35.5 14.5t43.5 26.5z" />
    <glyph glyph-name="eogonek" unicode="&#x119;" horiz-adv-x="692" 
d="M553 -229q-42 -42 -76.5 -70.5t-66 -46t-61.5 -25.5t-62 -8q-35 0 -64.5 13.5t-50.5 36t-33 52.5t-12 64q0 65 23.5 112t60.5 83q-31 6 -53.5 28t-38.5 53t-26 68.5t-15.5 74t-7.5 69.5t-2 57q0 67 15.5 145t45 155.5t72.5 149t98.5 127t122 88.5t143.5 33q21 0 35 -7.5
t23 -20.5t12.5 -29t3.5 -33q0 -44 -20 -88t-53.5 -86.5t-76.5 -83t-89.5 -77t-92.5 -68.5t-84 -58v-22q0 -25 2.5 -60.5t9 -74t17.5 -76.5t28 -68t40.5 -48.5t54.5 -18.5q14 0 29 4.5t30 15.5q26 21 59 58q28 32 65 83t81 129v-110q-53 -60 -97.5 -105.5t-78.5 -76.5
q-40 -36 -72 -62q-29 -23 -54.5 -38t-49.5 -23q-16 -26 -25.5 -56t-9.5 -61q0 -71 37 -109.5t108 -38.5q24 0 42 1.5t35 6.5t35.5 15t43.5 27zM453 881q-12 14 -31 18t-40.5 -2t-42 -23t-34.5 -45q-20 -40 -44 -114.5t-34 -171.5q32 19 66 44t65.5 53t57 58.5t40 62t15.5 62
t-18 58.5z" />
    <glyph glyph-name="Ecaron" unicode="&#x11a;" horiz-adv-x="1049" 
d="M879 784q-9 -4 -27 -15q-16 -10 -45.5 -29.5t-77.5 -53.5q8 15 -0.5 23t-22.5 11q-17 4 -40 3q-36 -3 -103.5 -7t-152.5 -7q0 -160 -2 -260.5t-3 -156.5q-2 -66 -4 -97q-2 -20 -12 -39q-8 -17 -25.5 -36t-48.5 -34h453q32 0 65 4q28 3 60 10t61 21q-50 -47 -99 -72
t-90 -36q-48 -13 -91 -15q-98 0 -185 -1t-157 -4t-119.5 -7.5t-71.5 -10.5q31 31 48.5 61t26.5 67t11.5 83.5t1.5 110.5v410q-29 0 -56.5 1t-53.5 3l110 57q0 54 -0.5 113.5t-0.5 127.5t-0.5 146.5t-0.5 171.5q-45 0 -85 1t-74 3l186 99q190 0 324.5 2.5t222.5 5.5
q102 4 170 8q34 0 45 -5.5t9 -12t-12 -13.5t-18 -10q-8 -4 -30 -17q-19 -11 -53.5 -34.5t-94.5 -63.5q20 22 17 32.5t-14 15.5q-13 5 -36 5q-19 -2 -57 -3.5t-88.5 -3.5t-109.5 -4t-121 -3q1 -160 1.5 -287t0.5 -233q102 1 183.5 3.5t139.5 5.5q68 4 121 7q33 1 44 -4t9 -12
t-11.5 -14.5t-16.5 -10.5zM272 1781q10 9 21.5 20.5t28 25t40 29t57.5 30.5q53 -62 107 -126t100 -118q78 102 144 157t114 70l31 -20q-75 -50 -139 -117t-111 -141l-145 -100q-32 37 -67 80t-68 83t-62.5 73.5t-50.5 53.5z" />
    <glyph glyph-name="ecaron" unicode="&#x11b;" horiz-adv-x="692" 
d="M639 291q-53 -60 -97.5 -105.5t-78.5 -76.5q-40 -36 -72 -62q-88 -70 -153 -70q-37 0 -63.5 19.5t-45.5 50.5t-31 70t-18.5 78.5t-9 75.5t-2.5 61q0 67 15.5 145t45 155.5t72.5 149t98.5 127t122 88.5t143.5 33q21 0 35 -7.5t23 -20.5t12.5 -29t3.5 -33q0 -44 -20 -88
t-53.5 -86.5t-76.5 -83t-89.5 -77t-92.5 -68.5t-84 -58v-22q0 -25 2.5 -60.5t9 -74t17.5 -76.5t28 -68t40.5 -48.5t54.5 -18.5q14 0 29 4.5t30 15.5q26 21 59 58q28 32 65 83t81 129v-110zM453 881q-12 14 -31 18t-40.5 -2t-42 -23t-34.5 -45q-20 -40 -44 -114.5t-34 -171.5
q32 19 66 44t65.5 53t57 58.5t40 62t15.5 62t-18 58.5zM76 1340q10 9 21.5 20.5t28 25t40 29t57.5 30.5q53 -62 107 -126t100 -118q78 102 144 157t114 70l31 -20q-75 -50 -139 -117t-111 -141l-145 -100q-32 37 -67 80t-68 83t-62.5 73.5t-50.5 53.5z" />
    <glyph glyph-name="Gcircumflex" unicode="&#x11c;" horiz-adv-x="1489" 
d="M1319 1374q-18 -23 -44 -45q-22 -19 -54.5 -40t-75.5 -38q14 18 2.5 38.5t-50.5 37.5t-105.5 28t-162.5 11q-56 0 -120.5 -11.5t-127.5 -39.5t-121.5 -74.5t-103.5 -116t-71.5 -165t-26.5 -220.5t30.5 -220t81 -163.5t115.5 -114t133 -73t133.5 -38.5t118.5 -11
q40 0 86 4q39 3 89 10t104 21q14 15 22 31.5t13 30.5q5 16 8 32q6 103 5 204t-1 203q-28 3 -60 6t-63 3q-25 0 -45.5 -2t-36.5 -9q57 35 97 54.5t66 30.5q30 12 50 16q22 3 54.5 5t67 3.5t68 4t58.5 7.5l-70 -49q-2 -104 -4.5 -173.5t-4.5 -111.5q-3 -49 -5 -78
q-1 -33 -11.5 -63t-33 -58.5t-59 -56.5t-88.5 -57q-81 -54 -150 -83t-120 -43q-60 -16 -109 -19q-148 0 -279 43.5t-229.5 126t-155.5 202.5t-57 273q0 95 18 176.5t47.5 149.5t66.5 122.5t75.5 96t75 69.5t63.5 43q26 15 66.5 34t89 38.5t102.5 38.5t110 34t109.5 24
t101.5 9q107 0 173 -10t100.5 -24.5t43 -29.5t1.5 -24zM1153 1634q-10 -8 -21.5 -19.5t-28 -25t-40 -29t-57.5 -30.5q-53 62 -107 125.5t-100 117.5q-78 -102 -144 -157t-114 -70l-31 20q75 50 139 117t111 142l145 100q32 -38 67 -80.5t68 -82.5t62.5 -74t50.5 -54z" />
    <glyph glyph-name="gcircumflex" unicode="&#x11d;" horiz-adv-x="942" 
d="M842 1047q-6 -28 -12.5 -76t-12 -108t-11.5 -128t-10.5 -136.5t-8.5 -133t-7 -117.5t-4.5 -90t-1.5 -51q0 -101 -13.5 -211t-44 -216.5t-80.5 -203t-122 -169.5t-169 -116t-222 -43q-58 0 -118 19t-109.5 54.5t-81 85t-31.5 110.5q0 46 19.5 90t53 85t76.5 79t90.5 73
t95 67t89.5 60q-19 1 -43.5 17.5t-45.5 57.5t-35.5 111t-12.5 179q1 115 24.5 202.5t60.5 153t83 113t92 82.5q91 71 177.5 113.5t168.5 46.5q25 1 50 -2q21 -2 44.5 -7t42.5 -14zM532 242q-65 -79 -122.5 -134.5t-104.5 -89.5q-31 -23 -69 -50t-76.5 -57.5t-75.5 -64
t-65.5 -69.5t-46 -73.5t-17.5 -76.5q0 -47 17 -83t46 -64t66.5 -47t78.5 -31t82.5 -17.5t78.5 -5.5q84 0 137.5 44t84.5 119t44.5 174.5t18.5 209.5t7 225.5t9 221.5q-19 -28 -35.5 -52t-29.5 -41q-15 -21 -28 -38zM522 905q-63 0 -110 -22t-80 -58.5t-55 -84.5t-34 -100
t-17 -105.5t-5 -100.5q0 -19 2 -48t7.5 -62t14.5 -66.5t22.5 -60t32 -43.5t42.5 -17q26 0 63 28.5t91 96.5q24 32 49 77q21 38 46 94t48 130q3 37 6.5 80.5t7.5 87.5t8.5 85.5t8.5 76.5q-93 12 -148 12zM854 1220q-10 -8 -21.5 -19.5t-28 -25t-40 -29t-57.5 -30.5
q-53 62 -107 125.5t-100 117.5q-78 -102 -144 -157t-114 -70l-31 20q75 50 139 117t111 142l145 100q32 -38 67 -80.5t68 -82.5t62.5 -74t50.5 -54z" />
    <glyph glyph-name="Gbreve" unicode="&#x11e;" horiz-adv-x="1489" 
d="M1319 1374q-18 -23 -44 -45q-22 -19 -54.5 -40t-75.5 -38q14 18 2.5 38.5t-50.5 37.5t-105.5 28t-162.5 11q-56 0 -120.5 -11.5t-127.5 -39.5t-121.5 -74.5t-103.5 -116t-71.5 -165t-26.5 -220.5t30.5 -220t81 -163.5t115.5 -114t133 -73t133.5 -38.5t118.5 -11
q40 0 86 4q39 3 89 10t104 21q14 15 22 31.5t13 30.5q5 16 8 32q6 103 5 204t-1 203q-28 3 -60 6t-63 3q-25 0 -45.5 -2t-36.5 -9q57 35 97 54.5t66 30.5q30 12 50 16q22 3 54.5 5t67 3.5t68 4t58.5 7.5l-70 -49q-2 -104 -4.5 -173.5t-4.5 -111.5q-3 -49 -5 -78
q-1 -33 -11.5 -63t-33 -58.5t-59 -56.5t-88.5 -57q-81 -54 -150 -83t-120 -43q-60 -16 -109 -19q-148 0 -279 43.5t-229.5 126t-155.5 202.5t-57 273q0 95 18 176.5t47.5 149.5t66.5 122.5t75.5 96t75 69.5t63.5 43q26 15 66.5 34t89 38.5t102.5 38.5t110 34t109.5 24
t101.5 9q107 0 173 -10t100.5 -24.5t43 -29.5t1.5 -24zM1083 1800q-1 -32 -17 -65t-42.5 -64t-60.5 -58t-71 -47t-74 -31.5t-69 -11.5q-35 0 -65.5 11t-56.5 30.5t-47.5 44.5t-37.5 54l-4 8t-6 13t-5.5 12t-2.5 6q0 9 21.5 24t48 30t48.5 27.5t23 16.5q12 -30 32 -62
t45.5 -58t57 -43t66.5 -17q42 0 67.5 18t39 41t17.5 44.5t5 27.5q1 10 12.5 16t26.5 10.5t29.5 9.5t19.5 13z" />
    <glyph glyph-name="gbreve" unicode="&#x11f;" horiz-adv-x="942" 
d="M842 1047q-6 -28 -12.5 -76t-12 -108t-11.5 -128t-10.5 -136.5t-8.5 -133t-7 -117.5t-4.5 -90t-1.5 -51q0 -101 -13.5 -211t-44 -216.5t-80.5 -203t-122 -169.5t-169 -116t-222 -43q-58 0 -118 19t-109.5 54.5t-81 85t-31.5 110.5q0 46 19.5 90t53 85t76.5 79t90.5 73
t95 67t89.5 60q-19 1 -43.5 17.5t-45.5 57.5t-35.5 111t-12.5 179q1 115 24.5 202.5t60.5 153t83 113t92 82.5q91 71 177.5 113.5t168.5 46.5q25 1 50 -2q21 -2 44.5 -7t42.5 -14zM532 242q-65 -79 -122.5 -134.5t-104.5 -89.5q-31 -23 -69 -50t-76.5 -57.5t-75.5 -64
t-65.5 -69.5t-46 -73.5t-17.5 -76.5q0 -47 17 -83t46 -64t66.5 -47t78.5 -31t82.5 -17.5t78.5 -5.5q84 0 137.5 44t84.5 119t44.5 174.5t18.5 209.5t7 225.5t9 221.5q-19 -28 -35.5 -52t-29.5 -41q-15 -21 -28 -38zM522 905q-63 0 -110 -22t-80 -58.5t-55 -84.5t-34 -100
t-17 -105.5t-5 -100.5q0 -19 2 -48t7.5 -62t14.5 -66.5t22.5 -60t32 -43.5t42.5 -17q26 0 63 28.5t91 96.5q24 32 49 77q21 38 46 94t48 130q3 37 6.5 80.5t7.5 87.5t8.5 85.5t8.5 76.5q-93 12 -148 12zM786 1377q-1 -32 -17 -65t-42.5 -64t-60.5 -58t-71 -47t-74 -31.5
t-69 -11.5q-35 0 -65.5 11t-56.5 30.5t-47.5 44.5t-37.5 54l-4 8t-6 13t-5.5 12t-2.5 6q0 9 21.5 24t48 30t48.5 27.5t23 16.5q12 -30 32 -62t45.5 -58t57 -43t66.5 -17q42 0 67.5 18t39 41t17.5 44.5t5 27.5q1 10 12.5 16t26.5 10.5t29.5 9.5t19.5 13z" />
    <glyph glyph-name="Gdotaccent" unicode="&#x120;" horiz-adv-x="1489" 
d="M1319 1374q-18 -23 -44 -45q-22 -19 -54.5 -40t-75.5 -38q14 18 2.5 38.5t-50.5 37.5t-105.5 28t-162.5 11q-56 0 -120.5 -11.5t-127.5 -39.5t-121.5 -74.5t-103.5 -116t-71.5 -165t-26.5 -220.5t30.5 -220t81 -163.5t115.5 -114t133 -73t133.5 -38.5t118.5 -11
q40 0 86 4q39 3 89 10t104 21q14 15 22 31.5t13 30.5q5 16 8 32q6 103 5 204t-1 203q-28 3 -60 6t-63 3q-25 0 -45.5 -2t-36.5 -9q57 35 97 54.5t66 30.5q30 12 50 16q22 3 54.5 5t67 3.5t68 4t58.5 7.5l-70 -49q-2 -104 -4.5 -173.5t-4.5 -111.5q-3 -49 -5 -78
q-1 -33 -11.5 -63t-33 -58.5t-59 -56.5t-88.5 -57q-81 -54 -150 -83t-120 -43q-60 -16 -109 -19q-148 0 -279 43.5t-229.5 126t-155.5 202.5t-57 273q0 95 18 176.5t47.5 149.5t66.5 122.5t75.5 96t75 69.5t63.5 43q26 15 66.5 34t89 38.5t102.5 38.5t110 34t109.5 24
t101.5 9q107 0 173 -10t100.5 -24.5t43 -29.5t1.5 -24zM962 1630l-155 -108l-121 114l156 107z" />
    <glyph glyph-name="gdotaccent" unicode="&#x121;" horiz-adv-x="942" 
d="M842 1047q-6 -28 -12.5 -76t-12 -108t-11.5 -128t-10.5 -136.5t-8.5 -133t-7 -117.5t-4.5 -90t-1.5 -51q0 -101 -13.5 -211t-44 -216.5t-80.5 -203t-122 -169.5t-169 -116t-222 -43q-58 0 -118 19t-109.5 54.5t-81 85t-31.5 110.5q0 46 19.5 90t53 85t76.5 79t90.5 73
t95 67t89.5 60q-19 1 -43.5 17.5t-45.5 57.5t-35.5 111t-12.5 179q1 115 24.5 202.5t60.5 153t83 113t92 82.5q91 71 177.5 113.5t168.5 46.5q25 1 50 -2q21 -2 44.5 -7t42.5 -14zM532 242q-65 -79 -122.5 -134.5t-104.5 -89.5q-31 -23 -69 -50t-76.5 -57.5t-75.5 -64
t-65.5 -69.5t-46 -73.5t-17.5 -76.5q0 -47 17 -83t46 -64t66.5 -47t78.5 -31t82.5 -17.5t78.5 -5.5q84 0 137.5 44t84.5 119t44.5 174.5t18.5 209.5t7 225.5t9 221.5q-19 -28 -35.5 -52t-29.5 -41q-15 -21 -28 -38zM522 905q-63 0 -110 -22t-80 -58.5t-55 -84.5t-34 -100
t-17 -105.5t-5 -100.5q0 -19 2 -48t7.5 -62t14.5 -66.5t22.5 -60t32 -43.5t42.5 -17q26 0 63 28.5t91 96.5q24 32 49 77q21 38 46 94t48 130q3 37 6.5 80.5t7.5 87.5t8.5 85.5t8.5 76.5q-93 12 -148 12zM663 1203l-155 -108l-121 114l156 107z" />
    <glyph glyph-name="Gcommaaccent" unicode="&#x122;" horiz-adv-x="1489" 
d="M1319 1374q-18 -23 -44 -45q-22 -19 -54.5 -40t-75.5 -38q14 18 2.5 38.5t-50.5 37.5t-105.5 28t-162.5 11q-56 0 -120.5 -11.5t-127.5 -39.5t-121.5 -74.5t-103.5 -116t-71.5 -165t-26.5 -220.5t30.5 -220t81 -163.5t115.5 -114t133 -73t133.5 -38.5t118.5 -11
q40 0 86 4q39 3 89 10t104 21q14 15 22 31.5t13 30.5q5 16 8 32q6 103 5 204t-1 203q-28 3 -60 6t-63 3q-25 0 -45.5 -2t-36.5 -9q57 35 97 54.5t66 30.5q30 12 50 16q22 3 54.5 5t67 3.5t68 4t58.5 7.5l-70 -49q-2 -104 -4.5 -173.5t-4.5 -111.5q-3 -49 -5 -78
q-1 -33 -11.5 -63t-33 -58.5t-59 -56.5t-88.5 -57q-81 -54 -150 -83t-120 -43q-60 -16 -109 -19q-148 0 -279 43.5t-229.5 126t-155.5 202.5t-57 273q0 95 18 176.5t47.5 149.5t66.5 122.5t75.5 96t75 69.5t63.5 43q26 15 66.5 34t89 38.5t102.5 38.5t110 34t109.5 24
t101.5 9q107 0 173 -10t100.5 -24.5t43 -29.5t1.5 -24zM809 -170q-2 -17 -8.5 -52.5t-16 -74t-21 -72.5t-22.5 -49q-11 -17 -23 -35.5t-26 -35.5v65q0 34 -1 75t-5 76.5t-10.5 59.5t-18.5 23q11 13 26 27.5t32 26.5t35 20t34 8q9 0 14.5 -6.5t7.5 -16.5t2.5 -20.5t0.5 -18.5
z" />
    <glyph glyph-name="gcommaaccent" unicode="&#x123;" horiz-adv-x="942" 
d="M842 1047q-6 -28 -12.5 -76t-12 -108t-11.5 -128t-10.5 -136.5t-8.5 -133t-7 -117.5t-4.5 -90t-1.5 -51q0 -101 -13.5 -211t-44 -216.5t-80.5 -203t-122 -169.5t-169 -116t-222 -43q-58 0 -118 19t-109.5 54.5t-81 85t-31.5 110.5q0 46 19.5 90t53 85t76.5 79t90.5 73
t95 67t89.5 60q-19 1 -43.5 17.5t-45.5 57.5t-35.5 111t-12.5 179q1 115 24.5 202.5t60.5 153t83 113t92 82.5q91 71 177.5 113.5t168.5 46.5q25 1 50 -2q21 -2 44.5 -7t42.5 -14zM532 242q-65 -79 -122.5 -134.5t-104.5 -89.5q-31 -23 -69 -50t-76.5 -57.5t-75.5 -64
t-65.5 -69.5t-46 -73.5t-17.5 -76.5q0 -47 17 -83t46 -64t66.5 -47t78.5 -31t82.5 -17.5t78.5 -5.5q84 0 137.5 44t84.5 119t44.5 174.5t18.5 209.5t7 225.5t9 221.5q-19 -28 -35.5 -52t-29.5 -41q-15 -21 -28 -38zM522 905q-63 0 -110 -22t-80 -58.5t-55 -84.5t-34 -100
t-17 -105.5t-5 -100.5q0 -19 2 -48t7.5 -62t14.5 -66.5t22.5 -60t32 -43.5t42.5 -17q26 0 63 28.5t91 96.5q24 32 49 77q21 38 46 94t48 130q3 37 6.5 80.5t7.5 87.5t8.5 85.5t8.5 76.5q-93 12 -148 12zM451 1161q1 17 8 52.5t16.5 74t21 72.5t22.5 49q11 17 23 35.5
t26 35.5v-65q0 -34 1 -75t4.5 -76.5t10.5 -59.5t18 -23q-11 -13 -25.5 -27.5t-31.5 -26.5t-35 -20t-34 -8q-9 0 -14.5 6.5t-7.5 16.5t-2.5 20.5t-0.5 18.5z" />
    <glyph glyph-name="Hcircumflex" unicode="&#x124;" horiz-adv-x="1552" 
d="M578 1489q-47 -31 -84.5 -51.5t-71.5 -34.5q-2 -86 -4 -159.5t-3.5 -138.5t-2.5 -123t-2 -112q53 11 110 11q55 0 127.5 -1.5t150.5 -4t157 -4t147 -1.5h47v498q-31 -3 -75.5 -7.5t-100.5 -12.5q54 44 97 66.5t74 33.5q36 12 64 14q36 0 78 2t82 5.5t72.5 8.5t48.5 11
q-47 -31 -84.5 -51.5t-71.5 -34.5q-5 -182 -8 -325t-5.5 -253.5t-4 -191.5t-2.5 -138q-3 -134 -2 -182q-1 -37 -10 -73q-8 -31 -24 -66.5t-46 -64.5q18 -2 35 -2.5t34 -0.5q47 0 84.5 4.5t65 9.5t43.5 10t20 7q-53 -36 -88 -62t-63 -42.5t-54.5 -24.5t-62.5 -8
q-48 0 -81.5 4t-67.5 4q-17 0 -34.5 -1.5t-39.5 -6.5q32 15 56 31.5t39.5 46t23.5 78t8 129.5v520q-29 -6 -65 -10t-83 -4q-65 0 -152 4t-190 4q-61 0 -123.5 -3t-127.5 -10q-4 -147 -5.5 -239t-2.5 -144q-1 -61 -1 -90q-1 -37 -10 -73q-8 -31 -24 -66.5t-46 -64.5
q19 -2 36 -2.5t34 -0.5q47 0 84.5 4.5t65 9.5t43.5 10t20 7q-53 -36 -88 -62t-63 -42.5t-54.5 -24.5t-62.5 -8q-48 0 -82 4t-68 4q-17 0 -34.5 -1.5t-38.5 -6.5q28 24 51 52.5t39.5 69.5t25.5 98t9 138v398q-23 -5 -45 -11t-44 -14q22 20 44 37t45 33v567q-31 -3 -75 -7.5
t-100 -12.5q54 44 97.5 66.5t74.5 33.5q36 12 64 14q35 0 77.5 2t82 5.5t72.5 8.5t49 11zM602 137v1q1 1 2 1zM1513 137v1h1q1 1 2 1zM1147 1644q-10 -8 -21.5 -19.5t-28 -25t-40 -29t-57.5 -30.5q-53 62 -107 125.5t-100 117.5q-78 -102 -144 -157t-114 -70l-31 20
q75 50 139 117t111 142l145 100q32 -38 67 -80.5t68 -82.5t62.5 -74t50.5 -54z" />
    <glyph glyph-name="hcircumflex" unicode="&#x125;" horiz-adv-x="1038" 
d="M338 1739q2 -19 2 -50v-73q0 -232 -10.5 -453.5t-26.5 -441.5q37 58 82.5 118t96.5 108.5t106 79t112 30.5q47 0 78 -24t49 -60t25.5 -78t7.5 -78q0 -76 -6 -150.5t-12.5 -147.5t-12.5 -145.5t-6 -144.5q0 -20 2 -40t9 -36.5t19.5 -27t33.5 -10.5q28 0 57.5 23.5t55 55
t46 63t31.5 48.5l-22 -92q-44 -43 -72.5 -69.5t-45.5 -42.5q-20 -18 -32 -27q-12 -10 -30 -27t-39.5 -33t-45 -27.5t-47.5 -11.5q-20 0 -33 6t-21 21t-11.5 39.5t-3.5 62.5q0 94 5.5 183.5t11.5 176.5t10 172t1 169q-2 24 -12 45.5t-27.5 37.5t-41.5 24.5t-52 5.5t-54.5 -16
t-52 -39t-51 -67t-51.5 -102q-11 -27 -23 -60q-11 -29 -24 -67.5t-26 -85.5l-25 -403l-160 -125q16 193 31.5 377.5t27.5 363t19.5 353t7.5 348.5q0 62 -2.5 114t-7 91.5t-11.5 65.5t-17 36q-15 10 -35 10q-17 0 -42.5 -9.5t-60.5 -39.5q21 18 52 48t65 58.5t68 49t61 20.5
q29 0 52 -23t28 -77zM956.419 1230.68q-8.94922 -7.1709 -19.2402 -17.4785q-10.291 -10.3086 -25.0566 -22.4092q-14.7666 -12.1006 -35.7959 -25.9941q-21.0303 -13.8936 -51.457 -27.3398q-47.4297 55.5752 -95.7539 112.494t-89.4902 105.322
q-69.8018 -91.4287 -128.865 -140.729q-59.0625 -49.2998 -102.018 -62.7461l-27.7422 17.9277q67.1172 44.8184 124.391 104.874q57.2734 60.0566 99.334 127.283l129.76 89.6367q28.6367 -34.0615 59.958 -72.1572t60.8535 -73.9502q29.5312 -35.8545 55.9307 -66.3301
q26.3994 -30.4766 45.1924 -48.4043z" />
    <glyph glyph-name="Hbar" unicode="&#x126;" horiz-adv-x="1552" 
d="M578 1489q-47 -31 -84.5 -51.5t-71.5 -34.5q-2 -86 -4 -159.5t-3.5 -138.5t-2.5 -123t-2 -112q53 11 110 11q55 0 127.5 -1.5t150.5 -4t157 -4t147 -1.5h47v498q-31 -3 -75.5 -7.5t-100.5 -12.5q54 44 97 66.5t74 33.5q36 12 64 14q36 0 78 2t82 5.5t72.5 8.5t48.5 11
q-47 -31 -84.5 -51.5t-71.5 -34.5q-4 -142 -7 -258.5t-5 -211.5t-3.5 -170.5t-2.5 -135.5h192q-19 -2 -36 -14.5t-35.5 -27t-41 -26.5t-53.5 -12h-28q-1 -70 -1.5 -115t-0.5 -71v-48q-1 -37 -10 -73q-8 -31 -24 -66.5t-46 -64.5q18 -2 35 -2.5t34 -0.5q47 0 84.5 4.5t65 9.5
t43.5 10t20 7q-53 -36 -88 -62t-63 -42.5t-54.5 -24.5t-62.5 -8q-48 0 -81.5 4t-67.5 4q-17 0 -34.5 -1.5t-39.5 -6.5q32 15 56 31.5t39.5 46t23.5 78t8 129.5v262h-748q-1 -70 -1.5 -115t-0.5 -71v-48q-1 -37 -10 -73q-8 -31 -24 -66.5t-46 -64.5q19 -2 36 -2.5t34 -0.5
q47 0 84.5 4.5t65 9.5t43.5 10t20 7q-53 -36 -88 -62t-63 -42.5t-54.5 -24.5t-62.5 -8q-48 0 -82 4t-68 4q-17 0 -34.5 -1.5t-38.5 -6.5q28 24 51 52.5t39.5 69.5t25.5 98t9 138v189h-201q24 2 44 15t39.5 27.5t40.5 26t48 11.5h29v129q-23 -5 -45 -11t-44 -14q22 20 44 37
t45 33v567q-31 -3 -75 -7.5t-100 -12.5q54 44 97.5 66.5t74.5 33.5q36 12 64 14q35 0 77.5 2t82 5.5t72.5 8.5t49 11zM1149 805q-29 -6 -65 -10t-83 -4q-65 0 -152 4t-190 4q-61 0 -123.5 -3t-127.5 -10q-2 -48 -3.5 -86t-1.5 -73h746v178zM1513 137v1h1q1 1 2 1zM602 137v1
q1 1 2 1z" />
    <glyph glyph-name="hbar" unicode="&#x127;" horiz-adv-x="1038" 
d="M338 1739q2 -19 2 -50v-73q0 -68 -1 -135t-3 -133h328q-19 -3 -43 -26t-52 -49.5t-58.5 -47.5t-61.5 -21h-117q-6 -124 -13.5 -244t-15.5 -239q37 58 82.5 118t96.5 108.5t106 79t112 30.5q47 0 78 -24t49 -60t25.5 -78t7.5 -78q0 -76 -6 -150.5t-12.5 -147.5
t-12.5 -145.5t-6 -144.5q0 -20 2 -40t9 -36.5t19.5 -27t33.5 -10.5q28 0 57.5 23.5t55 55t46 63t31.5 48.5l-22 -92q-44 -43 -72.5 -69.5t-45.5 -42.5q-20 -18 -32 -27q-12 -10 -30 -27t-39.5 -33t-45 -27.5t-47.5 -11.5q-20 0 -33 6t-21 21t-11.5 39.5t-3.5 62.5
q0 94 5.5 183.5t11.5 176.5t10 172t1 169q-2 24 -12 45.5t-27.5 37.5t-41.5 24.5t-52 5.5t-54.5 -16t-52 -39t-51 -67t-51.5 -102q-11 -27 -23 -60q-11 -29 -24 -67.5t-26 -85.5l-25 -403l-160 -125q28 333 52 641.5t32 609.5h-213q25 5 51.5 27t53.5 47t55 46t55 24v47
q0 62 -2.5 114t-7 91.5t-11.5 65.5t-17 36q-15 10 -35 10q-17 0 -42.5 -9.5t-60.5 -39.5q21 18 52 48t65 58.5t68 49t61 20.5q29 0 52 -23t28 -77z" />
    <glyph glyph-name="Itilde" unicode="&#x128;" horiz-adv-x="641" 
d="M604 129q-54 -36 -89 -62t-63.5 -42.5t-55 -24.5t-62.5 -8q-48 0 -82 4t-68 4q-17 0 -34.5 -1.5t-38.5 -6.5q28 24 51 52t39.5 69t25.5 98.5t9 138.5v1010q-31 -3 -75 -8t-100 -13q54 44 97.5 67t74.5 34q36 12 64 14q35 -1 77.5 1t82 5.5t72.5 9t49 11.5
q-47 -31 -84.5 -52.5t-71.5 -35.5q-5 -181 -8.5 -324t-6 -253.5t-4 -191t-2.5 -137.5q-3 -133 -2 -182q-1 -37 -10 -73q-8 -32 -24 -67.5t-46 -64.5q19 -2 37 -2h35q51 0 90.5 4.5t66.5 10.5q32 7 56 16zM633 1810q-15 -53 -35 -101t-47.5 -85t-64.5 -58.5t-85 -21.5
q-33 0 -65 16t-61 35.5t-54 36.5t-45 19q-18 3 -38 -7q-17 -8 -39.5 -30.5t-45.5 -69.5l-47 -33q14 34 36 77.5t55.5 82.5t80 65.5t109.5 26.5q29 0 58.5 -14t57 -31t53 -31t46.5 -14q8 0 20.5 7.5t25.5 20t23.5 28.5t14.5 32z" />
    <glyph glyph-name="itilde" unicode="&#x129;" horiz-adv-x="528" 
d="M573 311l-22 -82q-17 -17 -41.5 -42.5t-54 -54t-61.5 -56.5t-63 -50t-59.5 -34.5t-50.5 -9.5q-20 2 -32 19.5t-18.5 42.5t-9 55.5t-3 59t0.5 52.5t1 37q2 41 4.5 93t6 108.5t6.5 113t6.5 107t6.5 90.5t5 63q3 35 -14 50.5t-42 15.5q-23 0 -48 -11.5t-44 -31.5
q42 42 74 70t55 45q26 20 45 32q25 15 48.5 15.5t42 -11.5t29 -35t9.5 -55q-1 -22 -4.5 -70.5t-8 -110.5t-10 -131t-10 -133t-8 -116t-4.5 -80q-2 -57 13 -92t47 -35q16 0 35.5 10t40 25.5t41.5 34.5t38.5 38t31.5 36t21 28zM579 1356q-15 -53 -35 -101t-47.5 -85
t-64.5 -58.5t-85 -21.5q-33 0 -65 16t-61 35.5t-54 36.5t-45 19q-18 3 -38 -7q-17 -8 -39.5 -30.5t-45.5 -69.5l-47 -33q14 34 36 77.5t55.5 82.5t80 65.5t109.5 26.5q29 0 58.5 -14t57 -31t53 -31t46.5 -14q8 0 20.5 7.5t25.5 20t23.5 28.5t14.5 32z" />
    <glyph glyph-name="Imacron" unicode="&#x12a;" horiz-adv-x="641" 
d="M604 129q-54 -36 -89 -62t-63.5 -42.5t-55 -24.5t-62.5 -8q-48 0 -82 4t-68 4q-17 0 -34.5 -1.5t-38.5 -6.5q28 24 51 52t39.5 69t25.5 98.5t9 138.5v1010q-31 -3 -75 -8t-100 -13q54 44 97.5 67t74.5 34q36 12 64 14q35 -1 77.5 1t82 5.5t72.5 9t49 11.5
q-47 -31 -84.5 -52.5t-71.5 -35.5q-5 -181 -8.5 -324t-6 -253.5t-4 -191t-2.5 -137.5q-3 -133 -2 -182q-1 -37 -10 -73q-8 -32 -24 -67.5t-46 -64.5q19 -2 37 -2h35q51 0 90.5 4.5t66.5 10.5q32 7 56 16zM708 1675q-10 -1 -35 -22.5t-54.5 -47t-58 -46.5t-45.5 -21h-518
q7 1 20.5 11.5t31.5 26t38 32.5t39.5 32t36.5 25t29 10h516z" />
    <glyph glyph-name="imacron" unicode="&#x12b;" horiz-adv-x="528" 
d="M573 311l-22 -82q-17 -17 -41.5 -42.5t-54 -54t-61.5 -56.5t-63 -50t-59.5 -34.5t-50.5 -9.5q-20 2 -32 19.5t-18.5 42.5t-9 55.5t-3 59t0.5 52.5t1 37q2 41 4.5 93t6 108.5t6.5 113t6.5 107t6.5 90.5t5 63q3 35 -14 50.5t-42 15.5q-23 0 -48 -11.5t-44 -31.5
q42 42 74 70t55 45q26 20 45 32q25 15 48.5 15.5t42 -11.5t29 -35t9.5 -55q-1 -22 -4.5 -70.5t-8 -110.5t-10 -131t-10 -133t-8 -116t-4.5 -80q-2 -57 13 -92t47 -35q16 0 35.5 10t40 25.5t41.5 34.5t38.5 38t31.5 36t21 28zM622 1246q-10 -1 -35 -22.5t-54.5 -47t-58 -46.5
t-45.5 -21h-518q7 1 20.5 11.5t31.5 26t38 32.5t39.5 32t36.5 25t29 10h516z" />
    <glyph glyph-name="Ibreve" unicode="&#x12c;" horiz-adv-x="641" 
d="M604 129q-54 -36 -89 -62t-63.5 -42.5t-55 -24.5t-62.5 -8q-48 0 -82 4t-68 4q-17 0 -34.5 -1.5t-38.5 -6.5q28 24 51 52t39.5 69t25.5 98.5t9 138.5v1010q-31 -3 -75 -8t-100 -13q54 44 97.5 67t74.5 34q36 12 64 14q35 -1 77.5 1t82 5.5t72.5 9t49 11.5
q-47 -31 -84.5 -52.5t-71.5 -35.5q-5 -181 -8.5 -324t-6 -253.5t-4 -191t-2.5 -137.5q-3 -133 -2 -182q-1 -37 -10 -73q-8 -32 -24 -67.5t-46 -64.5q19 -2 37 -2h35q51 0 90.5 4.5t66.5 10.5q32 7 56 16zM614 1804q-1 -32 -17 -65t-42.5 -64t-60.5 -58t-71 -47t-74 -31.5
t-69 -11.5q-35 0 -65.5 11t-56.5 30.5t-47.5 44.5t-37.5 54l-4 8t-6 13t-5.5 12t-2.5 6q0 9 21.5 24t48 30t48.5 27.5t23 16.5q12 -30 32 -62t45.5 -58t57 -43t66.5 -17q42 0 67.5 18t39 41t17.5 44.5t5 27.5q1 10 12.5 16t26.5 10.5t29.5 9.5t19.5 13z" />
    <glyph glyph-name="ibreve" unicode="&#x12d;" horiz-adv-x="528" 
d="M573 311l-22 -82q-17 -17 -41.5 -42.5t-54 -54t-61.5 -56.5t-63 -50t-59.5 -34.5t-50.5 -9.5q-20 2 -32 19.5t-18.5 42.5t-9 55.5t-3 59t0.5 52.5t1 37q2 41 4.5 93t6 108.5t6.5 113t6.5 107t6.5 90.5t5 63q3 35 -14 50.5t-42 15.5q-23 0 -48 -11.5t-44 -31.5
q42 42 74 70t55 45q26 20 45 32q25 15 48.5 15.5t42 -11.5t29 -35t9.5 -55q-1 -22 -4.5 -70.5t-8 -110.5t-10 -131t-10 -133t-8 -116t-4.5 -80q-2 -57 13 -92t47 -35q16 0 35.5 10t40 25.5t41.5 34.5t38.5 38t31.5 36t21 28zM546 1363q-1 -32 -17 -65t-42.5 -64t-60.5 -58
t-71 -47t-74 -31.5t-69 -11.5q-35 0 -65.5 11t-56.5 30.5t-47.5 44.5t-37.5 54l-4 8t-6 13t-5.5 12t-2.5 6q0 9 21.5 24t48 30t48.5 27.5t23 16.5q12 -30 32 -62t45.5 -58t57 -43t66.5 -17q42 0 67.5 18t39 41t17.5 44.5t5 27.5q1 10 12.5 16t26.5 10.5t29.5 9.5t19.5 13z
" />
    <glyph glyph-name="Iogonek" unicode="&#x12e;" horiz-adv-x="641" 
d="M522 -254q-41 -42 -76 -70.5t-66.5 -46t-61.5 -25t-62 -7.5q-35 0 -64.5 13t-50.5 35.5t-33 52.5t-12 64q0 43 11 78t29.5 64t43.5 52t53 42q-12 2 -24 2h-25q-17 0 -34.5 -1.5t-38.5 -6.5q28 24 51 52t39.5 69t25.5 98.5t9 138.5v1010q-31 -3 -75 -8t-100 -13
q54 44 97.5 67t74.5 34q36 12 64 14q35 -1 77.5 1t82 5.5t72.5 9t49 11.5q-47 -31 -84.5 -52.5t-71.5 -35.5q-5 -181 -8.5 -324t-6 -253.5t-4 -191t-2.5 -137.5q-3 -133 -2 -182q-1 -37 -10 -73q-8 -32 -24 -67.5t-46 -64.5q19 -2 37 -2h35q51 0 90.5 4.5t66.5 10.5
q32 7 56 16q-54 -36 -89 -62t-63.5 -42.5t-55 -24.5t-62.5 -8q-16 0 -29.5 1t-25.5 1q-25 -32 -41.5 -70t-16.5 -80q0 -71 37 -109t109 -38q24 0 42 1.5t35 6.5t35.5 14.5t42.5 26.5z" />
    <glyph glyph-name="iogonek" unicode="&#x12f;" horiz-adv-x="528" 
d="M477 -254q-41 -42 -76 -70.5t-66.5 -46t-61.5 -25t-62 -7.5q-35 0 -64.5 13t-50.5 35.5t-33 52.5t-12 64q0 42 11 77t29.5 64t43 52.5t51.5 42.5q-17 19 -23.5 62.5t-6.5 115.5q0 18 1.5 58.5t4 94.5t6 118.5t7.5 130t8.5 129t9.5 116.5q3 35 -14 50.5t-42 15.5
q-21 0 -43 -10t-41 -25q39 38 70 64.5t52 43.5q25 19 44 31q25 15 48.5 15.5t42 -11.5t29 -35t9.5 -55q-1 -22 -4.5 -70.5t-8 -110.5t-10 -131t-10 -133t-8 -116t-4.5 -80q-2 -57 12.5 -92t46.5 -35q24 0 55.5 21t62.5 49t55.5 57t35.5 45l-22 -82q-17 -17 -41 -42
t-53 -52.5t-60 -55t-62 -49.5t-59.5 -35.5t-50.5 -12.5q-21 -31 -34 -65.5t-13 -72.5q0 -71 37 -109t109 -38q24 0 42 1.5t35 6.5t35.5 14.5t42.5 26.5zM401 1786q2 -49 -2.5 -87.5t-10.5 -65.5q-7 -32 -17 -56q-12 -24 -37 -52q-21 -24 -57.5 -55.5t-94.5 -66.5
q19 38 30 80.5t17 78.5q7 42 9 83z" />
    <glyph glyph-name="Idotaccent" unicode="&#x130;" horiz-adv-x="641" 
d="M604 129q-54 -36 -89 -62t-63.5 -42.5t-55 -24.5t-62.5 -8q-48 0 -82 4t-68 4q-17 0 -34.5 -1.5t-38.5 -6.5q28 24 51 52t39.5 69t25.5 98.5t9 138.5v1010q-31 -3 -75 -8t-100 -13q54 44 97.5 67t74.5 34q36 12 64 14q35 -1 77.5 1t82 5.5t72.5 9t49 11.5
q-47 -31 -84.5 -52.5t-71.5 -35.5q-5 -181 -8.5 -324t-6 -253.5t-4 -191t-2.5 -137.5q-3 -133 -2 -182q-1 -37 -10 -73q-8 -32 -24 -67.5t-46 -64.5q19 -2 37 -2h35q51 0 90.5 4.5t66.5 10.5q32 7 56 16zM458 1630l-155 -108l-121 114l156 107z" />
    <glyph glyph-name="dotlessi" unicode="&#x131;" horiz-adv-x="528" 
d="M573 311l-22 -82q-17 -17 -41.5 -42.5t-54 -54t-61.5 -56.5t-63 -50t-59.5 -34.5t-50.5 -9.5q-20 2 -32 19.5t-18.5 42.5t-9 55.5t-3 59t0.5 52.5t1 37q2 41 4.5 93t6 108.5t6.5 113t6.5 107t6.5 90.5t5 63q3 35 -14 50.5t-42 15.5q-23 0 -48 -11.5t-44 -31.5
q42 42 74 70t55 45q26 20 45 32q25 15 48.5 15.5t42 -11.5t29 -35t9.5 -55q-1 -22 -4.5 -70.5t-8 -110.5t-10 -131t-10 -133t-8 -116t-4.5 -80q-2 -57 13 -92t47 -35q16 0 35.5 10t40 25.5t41.5 34.5t38.5 38t31.5 36t21 28z" />
    <glyph glyph-name="IJ" unicode="&#x132;" horiz-adv-x="1257" 
d="M604 129q-54 -36 -89 -62t-63.5 -42.5t-55 -24.5t-62.5 -8q-48 0 -82 4t-68 4q-17 0 -34.5 -1.5t-38.5 -6.5q28 24 51 52t39.5 69t25.5 98.5t9 138.5v1010q-31 -3 -75 -8t-100 -13q54 44 97.5 67t74.5 34q36 12 64 14q35 -1 77.5 1t82 5.5t72.5 9t49 11.5
q-47 -31 -84.5 -52.5t-71.5 -35.5q-5 -181 -8.5 -324t-6 -253.5t-4 -191t-2.5 -137.5q-3 -133 -2 -182q-1 -37 -10 -73q-8 -32 -24 -67.5t-46 -64.5q19 -2 37 -2h35q51 0 90.5 4.5t66.5 10.5q32 7 56 16zM1210 1481q-46 -31 -84.5 -52.5t-72.5 -35.5q-5 -181 -8.5 -324
t-6 -253.5t-4 -191t-2.5 -137.5q-3 -133 -2 -182q-1 -32 -7.5 -83.5t-25.5 -114.5t-53 -132.5t-88.5 -136.5t-133 -127t-185.5 -104q75 40 128.5 95.5t90 120t59 134.5t34 139.5t15.5 134.5t4 119v1010q-31 -3 -75.5 -8t-100.5 -13q54 44 97.5 67t74.5 34q36 12 64 14
q35 -1 77.5 1t82 5.5t72.5 9t50 11.5z" />
    <glyph glyph-name="ij" unicode="&#x133;" horiz-adv-x="991" 
d="M571 311l-22 -82q-17 -17 -41.5 -42.5t-54 -54t-61.5 -56.5t-63 -50t-59.5 -34.5t-50.5 -9.5q-34 5 -48.5 49.5t-14.5 144.5q0 18 1.5 58.5t4 94.5t6 118.5t7.5 130t8.5 129t9.5 116.5q3 35 -14 50.5t-42 15.5q-21 0 -44 -10t-42 -27q40 39 71 65.5t53 43.5q26 19 44 32
q25 15 48.5 15.5t42 -11.5t29 -35t9.5 -55q-1 -22 -4.5 -70.5t-8 -110.5t-10 -131t-10 -133t-8 -116t-4.5 -80q-2 -57 12.5 -92t46.5 -35q24 0 55.5 21t62.5 49t55.5 57t35.5 45zM401 1786q2 -49 -2.5 -87.5t-10.5 -65.5q-7 -32 -17 -56q-12 -24 -37 -52
q-21 -24 -57.5 -55.5t-94.5 -66.5q19 38 30 80.5t17 78.5q7 42 9 83zM882 1804q1 -49 -3.5 -87.5t-10.5 -65.5q-7 -32 -16 -56q-12 -23 -37 -51q-21 -24 -58 -56t-96 -67q20 38 31 81t17 79q7 42 9 82zM870 926q-1 -17 -3.5 -72t-6 -136t-9 -179.5t-12 -201t-14 -202.5
t-16 -183t-18 -142.5t-19.5 -81.5q-20 -44 -50.5 -87t-67 -82.5t-77 -75t-82.5 -63.5q-41 -28 -85 -50t-87 -37t-84.5 -21.5t-77.5 -3.5q-35 3 -66 12.5t-51 23.5t-25 32t11 38q14 16 35 38q18 19 47 45.5t72 60.5q-9 -17 -9.5 -31.5t2.5 -25.5q4 -12 11 -23q6 -8 21 -14.5
t36 -11t46.5 -7t52.5 -2.5q130 0 210 66.5t93 191.5q3 28 7 88.5t8.5 141t10 174t11 189.5t10.5 187t9 165.5t7 126.5t4 69q3 35 -13.5 50t-41.5 15q-23 0 -48.5 -11.5t-43.5 -31.5q42 42 74 70.5t55 45.5q26 20 45 32q25 15 48.5 15.5t42 -11.5t29 -35t9.5 -55z" />
    <glyph glyph-name="Jcircumflex" unicode="&#x134;" horiz-adv-x="616" 
d="M569 1481q-46 -31 -84.5 -52.5t-72.5 -35.5q-5 -181 -8.5 -324t-6 -253.5t-4 -191t-2.5 -137.5q-3 -133 -2 -182q-1 -32 -7.5 -83.5t-25.5 -114.5t-53 -132.5t-88.5 -136.5t-133 -127t-185.5 -104q75 40 128.5 95.5t90 120t59 134.5t34 139.5t15.5 134.5t4 119v1010
q-31 -3 -75.5 -8t-100.5 -13q54 44 97.5 67t74.5 34q36 12 64 14q35 -1 77.5 1t82 5.5t72.5 9t50 11.5zM632 1640q-10 -8 -21.5 -19.5t-28 -25t-40 -29t-57.5 -30.5q-53 62 -107 125.5t-100 117.5q-78 -102 -144 -157t-114 -70l-31 20q75 50 139 117t111 142l145 100
q32 -38 67 -80.5t68 -82.5t62.5 -74t50.5 -54z" />
    <glyph glyph-name="jcircumflex" unicode="&#x135;" horiz-adv-x="463" 
d="M342 926q-1 -17 -3.5 -72t-6 -136t-9 -179.5t-12 -201t-14 -202.5t-16 -183t-18 -142.5t-19.5 -81.5q-20 -44 -50.5 -87t-67 -82.5t-77 -75t-82.5 -63.5q-41 -28 -85 -50t-87 -37t-84.5 -21.5t-77.5 -3.5q-35 3 -66 12.5t-51 23.5t-25 32t11 38q14 16 35 38
q18 19 47 45.5t72 60.5q-9 -17 -9.5 -31.5t2.5 -25.5q4 -12 11 -23q6 -8 21 -14.5t36 -11t46.5 -7t52.5 -2.5q130 0 210 66.5t93 191.5q3 28 7 88.5t8.5 141t10 174t11 189.5t10.5 187t9 165.5t7 126.5t4 69q3 35 -13.5 50t-41.5 15q-23 0 -48.5 -11.5t-43.5 -31.5
q42 42 74 70.5t55 45.5q26 20 45 32q25 15 48.5 15.5t42 -11.5t29 -35t9.5 -55zM605 1142q-10 -8 -21.5 -19.5t-28 -25t-40 -29t-57.5 -30.5q-53 62 -107 125.5t-100 117.5q-78 -102 -144 -157t-114 -70l-31 20q75 50 139 117t111 142l145 100q32 -38 67 -80.5t68 -82.5
t62.5 -74t50.5 -54z" />
    <glyph glyph-name="Kcommaaccent" unicode="&#x136;" horiz-adv-x="1403" 
d="M1294 1481q-60 -42 -106 -66t-90 -37q-51 -81 -111.5 -153.5t-126 -140.5t-133 -132.5t-131.5 -128.5q42 -60 96 -134t116.5 -149t132 -146.5t142 -126.5t148 -88.5t149.5 -33.5q26 0 55 6t60 21q-60 -65 -105.5 -101.5t-76.5 -53.5q-36 -21 -62 -25q-32 -3 -78 15
t-100 50.5t-112 76.5t-113 93q-61 57 -130 132q-59 64 -133.5 155.5t-152.5 208.5l86 108q30 25 71 62.5t86 82t91.5 94.5t87.5 100.5t73 99.5t50 92q-29 -3 -81 -8t-118 -15q54 44 97 67t74 34q36 12 65 14q35 -1 77 1t81.5 5.5t72 9t49.5 11.5zM604 129q-54 -36 -89 -62
t-63.5 -42.5t-55 -24.5t-62.5 -8q-48 0 -82 4t-68 4q-17 0 -34.5 -1.5t-38.5 -6.5q28 24 51 52t39.5 69t25.5 98.5t9 138.5v1010q-31 -3 -75 -8t-100 -13q54 44 97.5 67t74.5 34q36 12 64 14q35 -1 77.5 1t82 5.5t72.5 9t49 11.5q-47 -31 -84.5 -52.5t-71.5 -35.5
q-5 -181 -8.5 -324t-6 -253.5t-4 -191t-2.5 -137.5q-3 -133 -2 -182q-1 -37 -10 -73q-8 -32 -24 -67.5t-46 -64.5q19 -2 37 -2h35q51 0 90.5 4.5t66.5 10.5q32 7 56 16zM776 -109q-2 -17 -8.5 -52.5t-16 -74t-21 -72.5t-22.5 -49q-11 -17 -23 -35.5t-26 -35.5v65q0 34 -1 75
t-5 76.5t-10.5 59.5t-18.5 23q11 13 26 27.5t32 26.5t35 20t34 8q9 0 14.5 -6.5t7.5 -16.5t2.5 -20.5t0.5 -18.5z" />
    <glyph glyph-name="kcommaaccent" unicode="&#x137;" horiz-adv-x="952" 
d="M334 1735q2 -19 2 -50v-73q0 -71 -2 -165.5t-5.5 -201t-9 -218t-12.5 -216.5l-10 -133q19 35 36 61.5t31 45.5q16 22 29 38q37 40 78 78.5t82.5 69t82.5 49t77 18.5q29 0 52 -14t38.5 -36t24 -48.5t8.5 -50.5q0 -66 -31.5 -123.5t-79 -106.5t-102.5 -88t-103 -67
q31 -42 60 -82.5t52 -72.5q26 -38 50 -73q24 -32 44 -61.5t40 -51.5t40.5 -35t45.5 -13q15 0 32.5 5t37.5 19q-26 -24 -54.5 -52t-58 -51t-59.5 -38.5t-60 -15.5q-32 0 -59.5 17.5t-42.5 43.5q-8 12 -24.5 42.5t-38 69t-46 81.5t-49 81t-46.5 66.5t-38 38.5q58 37 113 74
t98 80t69.5 93.5t26.5 114.5q0 51 -21.5 84t-66.5 31q-63 -3 -105 -49.5t-73 -120.5q-11 -27 -27 -77q-14 -43 -35.5 -114t-50.5 -180l-16 -284l-160 -125q16 193 31.5 377.5t27.5 363t19.5 353t7.5 348.5q0 62 -2.5 114t-7 91.5t-12 65.5t-17.5 36q-14 10 -34 10
q-17 0 -42.5 -9.5t-60.5 -39.5q21 18 51.5 48t65 58.5t68.5 49t61 20.5q29 0 52 -23t28 -77zM926 141q-2 -2 -4 -2q2 0 4 2zM444 -164q-2 -17 -8.5 -52.5t-16 -74t-21 -72.5t-22.5 -49q-11 -17 -23 -35.5t-26 -35.5v65q0 34 -1 75t-5 76.5t-10.5 59.5t-18.5 23
q11 13 26 27.5t32 26.5t35 20t34 8q9 0 14.5 -6.5t7.5 -16.5t2.5 -20.5t0.5 -18.5z" />
    <glyph glyph-name="kgreenlandic" unicode="&#x138;" horiz-adv-x="952" 
d="M319 963l-22 -285q19 35 36 61.5t31 45.5q16 22 29 38q37 40 78 78.5t82.5 69t82.5 49t77 18.5q29 0 52 -14t38.5 -36t24 -48.5t8.5 -50.5q0 -66 -31.5 -123.5t-79 -106.5t-102.5 -88t-103 -67q31 -42 60 -82.5t52 -72.5q26 -38 50 -73q24 -32 44 -61.5t40 -51.5
t40.5 -35t45.5 -13q15 0 32.5 5t37.5 19q-26 -24 -54.5 -52t-58 -51t-59.5 -38.5t-60 -15.5q-32 0 -59.5 17.5t-42.5 43.5q-8 12 -24.5 42.5t-38 69t-46 81.5t-49 81t-46.5 66.5t-38 38.5q58 37 113 74t98 80t69.5 93.5t26.5 114.5q0 51 -21.5 84t-66.5 31
q-63 -3 -105 -49.5t-73 -120.5q-11 -27 -27 -77q-14 -43 -35.5 -114t-50.5 -180l-16 -284l-160 -125q11 129 18 213.5t11.5 140.5t7.5 92t5 67t5 66t7 90q5 69 8.5 122t3.5 91t-4.5 61.5t-14.5 33.5q-14 10 -34 10q-17 0 -42.5 -9.5t-60.5 -39.5q21 18 51.5 48t65 58.5
t68.5 49t61 20.5q29 0 44.5 -23t20.5 -77zM926 141q-2 -2 -4 -2q2 0 4 2z" />
    <glyph glyph-name="Lacute" unicode="&#x139;" horiz-adv-x="975" 
d="M578 1481q-47 -31 -84.5 -52.5t-71.5 -35.5q-5 -181 -8.5 -324t-6 -253.5t-4 -191t-2.5 -137.5q-3 -133 -2 -182q-1 -37 -8 -71q-6 -29 -19 -61.5t-36 -55.5q60 -2 112.5 -2h100.5q137 0 226 4t142 9.5t75 10t26 6.5q-53 -36 -88 -62t-62.5 -42.5t-54 -24.5t-61.5 -8
h-154q-65 0 -141 -0.5t-145 -2t-123.5 -5t-77.5 -8.5q28 24 51 52t39.5 69t25.5 98.5t9 138.5v1010q-31 -3 -75 -8t-100 -13q54 44 97.5 67t74.5 34q36 12 64 14q35 -1 77.5 1t82 5.5t72.5 9t49 11.5zM1018 145v1q1 1 2 1zM852 1960q-27 -36 -52 -69q-21 -28 -43 -56
t-36 -43q-63 -69 -130 -118t-124 -81q-66 -37 -129 -61q-1 3 -1 6q0 6 1 7q51 41 84 74t59 64.5t49.5 64.5t55.5 75q24 24 54.5 39.5t65.5 29t72 29t74 39.5z" />
    <glyph glyph-name="lacute" unicode="&#x13a;" horiz-adv-x="563" 
d="M588 262q-20 -26 -44.5 -57.5t-52.5 -64.5t-59 -63.5t-64.5 -54t-68.5 -36.5t-70 -11q-30 3 -49 27.5t-30 63t-14 88.5t-1 104q1 27 5 95.5t9.5 162.5t12 206t12.5 227t12 225.5t10.5 200.5t7.5 152.5t3 82.5q0 54 -8.5 84t-42.5 30q-33 0 -97 -30q44 38 76 65t53 44
q25 19 41 32q30 25 66 25q31 0 53.5 -23t18.5 -72q-1 -19 -4.5 -81.5t-7.5 -154t-9.5 -204t-10.5 -232t-10.5 -238t-9.5 -220.5t-6.5 -181t-3.5 -120q-1 -56 6 -96t19 -65t29 -36.5t36 -11.5q23 0 46 14t44 36t40 50t35 56t27.5 53t18.5 41zM776 2340q-27 -36 -52 -69
q-21 -28 -43 -56t-36 -43q-63 -69 -130 -118t-124 -81q-66 -37 -129 -61q-1 3 -1 6q0 6 1 7q51 41 84 74t59 64.5t49.5 64.5t55.5 75q24 24 54.5 39.5t65.5 29t72 29t74 39.5z" />
    <glyph glyph-name="Lcommaaccent" unicode="&#x13b;" horiz-adv-x="975" 
d="M578 1481q-47 -31 -84.5 -52.5t-71.5 -35.5q-5 -181 -8.5 -324t-6 -253.5t-4 -191t-2.5 -137.5q-3 -133 -2 -182q-1 -37 -8 -71q-6 -29 -19 -61.5t-36 -55.5q60 -2 112.5 -2h100.5q137 0 226 4t142 9.5t75 10t26 6.5q-53 -36 -88 -62t-62.5 -42.5t-54 -24.5t-61.5 -8
h-154q-65 0 -141 -0.5t-145 -2t-123.5 -5t-77.5 -8.5q28 24 51 52t39.5 69t25.5 98.5t9 138.5v1010q-31 -3 -75 -8t-100 -13q54 44 97.5 67t74.5 34q36 12 64 14q35 -1 77.5 1t82 5.5t72.5 9t49 11.5zM1018 145v1q1 1 2 1zM557 -156q-2 -17 -8.5 -52.5t-16 -74t-21 -72.5
t-22.5 -49q-11 -17 -23 -35.5t-26 -35.5v65q0 34 -1 75t-5 76.5t-10.5 59.5t-18.5 23q11 13 26 27.5t32 26.5t35 20t34 8q9 0 14.5 -6.5t7.5 -16.5t2.5 -20.5t0.5 -18.5z" />
    <glyph glyph-name="lcommaaccent" unicode="&#x13c;" horiz-adv-x="563" 
d="M588 262q-20 -26 -44.5 -57.5t-52.5 -64.5t-59 -63.5t-64.5 -54t-68.5 -36.5t-70 -11q-30 3 -49 27.5t-30 63t-14 88.5t-1 104q1 27 5 95.5t9.5 162.5t12 206t12.5 227t12 225.5t10.5 200.5t7.5 152.5t3 82.5q0 54 -8.5 84t-42.5 30q-33 0 -97 -30q44 38 76 65t53 44
q25 19 41 32q30 25 66 25q31 0 53.5 -23t18.5 -72q-1 -19 -4.5 -81.5t-7.5 -154t-9.5 -204t-10.5 -232t-10.5 -238t-9.5 -220.5t-6.5 -181t-3.5 -120q-1 -56 6 -96t19 -65t29 -36.5t36 -11.5q23 0 46 14t44 36t40 50t35 56t27.5 53t18.5 41zM330 -180q-2 -17 -8.5 -52.5
t-16 -74t-21 -72.5t-22.5 -49q-11 -17 -23 -35.5t-26 -35.5v65q0 34 -1 75t-5 76.5t-10.5 59.5t-18.5 23q11 13 26 27.5t32 26.5t35 20t34 8q9 0 14.5 -6.5t7.5 -16.5t2.5 -20.5t0.5 -18.5z" />
    <glyph glyph-name="Lcaron" unicode="&#x13d;" horiz-adv-x="975" 
d="M578 1481q-47 -31 -84.5 -52.5t-71.5 -35.5q-5 -181 -8.5 -324t-6 -253.5t-4 -191t-2.5 -137.5q-3 -133 -2 -182q-1 -37 -8 -71q-6 -29 -19 -61.5t-36 -55.5q60 -2 112.5 -2h100.5q137 0 226 4t142 9.5t75 10t26 6.5q-53 -36 -88 -62t-62.5 -42.5t-54 -24.5t-61.5 -8
h-154q-65 0 -141 -0.5t-145 -2t-123.5 -5t-77.5 -8.5q28 24 51 52t39.5 69t25.5 98.5t9 138.5v1010q-31 -3 -75 -8t-100 -13q54 44 97.5 67t74.5 34q36 12 64 14q35 -1 77.5 1t82 5.5t72.5 9t49 11.5zM1018 145v1q1 1 2 1zM821 1636q-2 -17 -8.5 -52.5t-16 -74t-21 -72.5
t-22.5 -49q-11 -17 -23 -36t-26 -36v66q0 34 -1 75t-5 76t-10.5 59t-18.5 23q11 13 26 27.5t32 26.5t35 20t34 8q9 0 14.5 -6.5t7.5 -16.5t2.5 -20.5t0.5 -17.5z" />
    <glyph glyph-name="lcaron" unicode="&#x13e;" horiz-adv-x="649" 
d="M588 262q-20 -26 -44.5 -57.5t-52.5 -64.5t-59 -63.5t-64.5 -54t-68.5 -36.5t-70 -11q-30 3 -49 27.5t-30 63t-14 88.5t-1 104q1 27 5 95.5t9.5 162.5t12 206t12.5 227t12 225.5t10.5 200.5t7.5 152.5t3 82.5q0 54 -8.5 84t-42.5 30q-33 0 -97 -30q44 38 76 65t53 44
q25 19 41 32q30 25 66 25q31 0 53.5 -23t18.5 -72q-1 -19 -4.5 -81.5t-7.5 -154t-9.5 -204t-10.5 -232t-10.5 -238t-9.5 -220.5t-6.5 -181t-3.5 -120q-1 -56 6 -96t19 -65t29 -36.5t36 -11.5q23 0 46 14t44 36t40 50t35 56t27.5 53t18.5 41zM631 1362q-2 -17 -8.5 -52.5
t-16 -74t-21 -72.5t-22.5 -49q-11 -17 -23 -36t-26 -36v66q0 34 -1 75t-5 76t-10.5 59t-18.5 23q11 13 26 27.5t32 26.5t35 20t34 8q9 0 14.5 -6.5t7.5 -16.5t2.5 -20.5t0.5 -17.5z" />
    <glyph glyph-name="Ldot" unicode="&#x13f;" horiz-adv-x="1378" 
d="M578 1481q-47 -31 -84.5 -52.5t-71.5 -35.5q-5 -181 -8.5 -324t-6 -253.5t-4 -191t-2.5 -137.5q-3 -133 -2 -182q-1 -37 -8 -71q-6 -29 -19 -61.5t-36 -55.5q60 -2 112.5 -2h100.5q137 0 226 4t142 9.5t75 10t26 6.5q-53 -36 -88 -62t-62.5 -42.5t-54 -24.5t-61.5 -8
h-154q-65 0 -141 -0.5t-145 -2t-123.5 -5t-77.5 -8.5q28 24 51 52t39.5 69t25.5 98.5t9 138.5v1010q-31 -3 -75 -8t-100 -13q54 44 97.5 67t74.5 34q36 12 64 14q35 -1 77.5 1t82 5.5t72.5 9t49 11.5zM1018 145v1q1 1 2 1zM1257 713q-32 -23 -61.5 -44t-55 -37t-45.5 -26
t-32 -10q-10 0 -28 10q-15 8 -39 25t-60 49l156 111q38 -32 68 -48t52 -23q26 -8 45 -7z" />
    </font>
</defs>
</svg>
